<?xml version="1.0" encoding="UTF-8"?>
<svg width="282px" height="282px" viewBox="0 0 282 282" version="1.1" xmlns="http://www.w3.org/2000/svg" xmlns:xlink="http://www.w3.org/1999/xlink">
    <!-- Generator: Sketch 57.1 (83088) - https://sketch.com -->
    <title>Group 23</title>
    <desc>Created with Sketch.</desc>
    <defs>
        <path d="M141.004288,0.357890871 C63.1310279,0.357890871 0,63.3816003 0,141.13121 L0,141.13121 C0,213.206939 54.2821913,272.625553 124.259701,280.900688 L124.259701,280.900688 L159.690023,280.656275 C228.72319,271.525693 281.999831,212.543532 281.999831,141.13121 L281.999831,141.13121 C281.999831,63.3816003 218.877547,0.357890871 141.004288,0.357890871 Z" id="path-1"></path>
        <path d="M141.004288,0.358500297 C63.1310279,0.358500297 0,63.4895282 0,141.371532 L0,141.371532 C0,213.569994 54.2821913,273.089787 124.259701,281.379014 L124.259701,281.379014 C124.259701,281.379014 143.933497,282.699344 159.690023,281.134184 L159.690023,281.134184 C228.72319,271.988055 281.999831,212.905457 281.999831,141.371532 L281.999831,141.371532" id="path-3"></path>
        <path d="M141.004288,0.358500297 C63.1310279,0.358500297 0,63.4895282 0,141.371532 L0,141.371532 C0,213.569994 54.2821913,273.089787 124.259701,281.379014 L124.259701,281.379014 C124.259701,281.379014 143.933497,282.699344 159.690023,281.134184 L159.690023,281.134184 C228.72319,271.988055 281.999831,212.905457 281.999831,141.371532 L281.999831,141.371532" id="path-5"></path>
        <path d="M141.004288,0.358500297 C63.1310279,0.358500297 0,63.4895282 0,141.371532 L0,141.371532 C0,213.569994 54.2821913,273.089787 124.259701,281.379014 L124.259701,281.379014 C124.259701,281.379014 143.933497,282.699344 159.690023,281.134184 L159.690023,281.134184 C228.72319,271.988055 281.999831,212.905457 281.999831,141.371532 L281.999831,141.371532 C281.999831,63.4895282 218.877547,0.358500297 141.004288,0.358500297 Z" id="path-7"></path>
    </defs>
    <g id="Page-1" stroke="none" stroke-width="1" fill="none" fill-rule="evenodd">
        <g id="Profile---Developer" transform="translate(-580.000000, -244.000000)">
            <g id="Group-23" transform="translate(580.000000, 244.000000)">
                <g id="Group-3">
                    <mask id="mask-2" fill="white">
                        <use xlink:href="#path-1"></use>
                    </mask>
                    <g id="Clip-2"></g>
                    <path d="M141.004288,0.357890871 C63.1310279,0.357890871 0,63.3816003 0,141.13121 L0,141.13121 C0,213.206939 54.2821913,272.625553 124.259701,280.900688 L124.259701,280.900688 L159.690023,280.656275 C228.72319,271.525693 281.999831,212.543532 281.999831,141.13121 L281.999831,141.13121 C281.999831,63.3816003 218.877547,0.357890871 141.004288,0.357890871 Z" id="Fill-1" fill-opacity="0.2" fill="#00BAFF" mask="url(#mask-2)"></path>
                </g>
                <g id="Group-22">
                    <g id="Group-6">
                        <mask id="mask-4" fill="white">
                            <use xlink:href="#path-3"></use>
                        </mask>
                        <g id="Clip-5"></g>
                        <path d="M141.0585,200.901818 C105.636922,200.901818 76.9219223,230.779757 76.9219223,267.626593 C76.9219223,274.508049 77.918728,281.144677 79.7811807,287.396572 L202.335819,287.396572 C204.198272,281.144677 205.195077,274.508049 205.195077,267.626593 C205.195077,230.779757 176.480078,200.901818 141.0585,200.901818" id="Fill-4" fill="#FFFFFF" mask="url(#mask-4)"></path>
                    </g>
                    <g id="Group-9">
                        <mask id="mask-6" fill="white">
                            <use xlink:href="#path-5"></use>
                        </mask>
                        <g id="Clip-8"></g>
                        <path d="M141.0585,194.630686 C116.453138,194.630686 96.4995361,228.67947 96.4995361,270.667724 C96.4995361,276.421217 96.8755242,282.008575 97.5837809,287.394824 L127.0595,313.705248 L156.133,314.780749 L184.533219,287.394824 C185.241475,282.008575 185.617464,276.421217 185.617464,270.667724 C185.617464,228.67947 165.663862,194.630686 141.0585,194.630686" id="Fill-7" fill="#F2F2F2" mask="url(#mask-6)"></path>
                    </g>
                    <mask id="mask-8" fill="white">
                        <use xlink:href="#path-7"></use>
                    </mask>
                    <g id="Clip-11"></g>
                    <polygon id="Fill-10" fill="#EEEFF1" mask="url(#mask-8)" points="138.451066 89.6775377 143.67118 89.6775377 143.67118 29.6855734 138.451066 29.6855734"></polygon>
                    <path d="M141.0585,18.6673728 C136.96635,18.6673728 133.652408,21.9813146 133.652408,26.0734643 C133.652408,30.1568701 136.96635,33.4708119 141.0585,33.4708119 C145.141906,33.4708119 148.464591,30.1568701 148.464591,26.0734643 C148.464591,21.9813146 145.141906,18.6673728 141.0585,18.6673728" id="Fill-12" fill="#D1D3D4" mask="url(#mask-8)"></path>
                    <path d="M141.0585,188.252004 C123.089765,188.252004 108.531156,193.830618 108.531156,200.712075 C108.531156,207.602276 123.089765,213.18089 141.0585,213.18089 C159.027234,213.18089 173.585844,207.602276 173.585844,200.712075 C173.585844,193.830618 159.027234,188.252004 141.0585,188.252004" id="Fill-13" fill="#E6E6E6" mask="url(#mask-8)"></path>
                    <path d="M141.0585,59.6763092 C129.472819,59.6763092 120.08186,69.0672682 120.08186,80.6442046 C120.08186,92.229885 129.472819,101.620844 141.0585,101.620844 C152.64418,101.620844 162.026395,92.229885 162.026395,80.6442046 C162.026395,69.0672682 152.64418,59.6763092 141.0585,59.6763092" id="Fill-14" fill="#D1D3D4" mask="url(#mask-8)"></path>
                    <path d="M139.879821,82.6115843 C102.132363,83.2411458 72.2107037,114.824148 72.2107037,152.58035 L72.2107037,181.924911 C72.2107037,192.330163 80.6485766,200.759292 91.0538291,200.759292 L191.066668,200.759292 C201.471921,200.759292 209.90105,192.330163 209.90105,181.924911 L209.90105,151.452385 C209.90105,113.031646 178.440463,81.964535 139.879821,82.6115843" id="Fill-15" fill="#D1D3D4" mask="url(#mask-8)"></path>
                    <path d="M139.879821,75.2256038 C102.132363,75.8551653 72.2107037,107.438167 72.2107037,145.194369 L72.2107037,179.278129 C72.2107037,187.068953 78.5238065,193.382055 86.3058862,193.382055 L195.805867,193.382055 C203.596691,193.382055 209.90105,187.068953 209.90105,179.278129 L209.90105,144.066405 C209.90105,105.645666 178.440463,74.5785545 139.879821,75.2256038" id="Fill-16" fill="#EEEFF1" mask="url(#mask-8)"></path>
                    <path d="M140.140389,87.8544326 C110.795828,88.3528354 87.5370286,113.176795 87.5370286,142.871112 L87.5370286,169.662452 C87.5370286,175.783188 92.442362,180.749729 98.4931475,180.749729 L183.623852,180.749729 C189.674638,180.749729 194.579971,175.783188 194.579971,169.662452 L194.579971,141.97049 C194.579971,111.769026 170.123256,87.3472858 140.140389,87.8544326" id="Fill-17" fill="#D1D3D4" mask="url(#mask-8)"></path>
                    <path d="M140.140389,92.3164497 C110.795828,92.8148525 87.5370286,117.647556 87.5370286,147.333129 L87.5370286,169.665075 C87.5370286,175.785812 92.442362,180.743608 98.4931475,180.743608 L183.623852,180.743608 C189.674638,180.743608 194.579971,175.785812 194.579971,169.665075 L194.579971,146.432507 C194.579971,116.231043 170.123256,91.8093029 140.140389,92.3164497" id="Fill-18" fill="#353849" mask="url(#mask-8)"></path>
                    <path d="M117.473552,124.793953 C113.932269,124.793953 111.064266,127.661956 111.064266,131.203239 C111.064266,134.744523 113.932269,137.612525 117.473552,137.612525 C121.014836,137.612525 123.882838,134.744523 123.882838,131.203239 C123.882838,127.661956 121.014836,124.793953 117.473552,124.793953" id="Fill-19" fill="#4CEEDF" mask="url(#mask-8)"></path>
                    <path d="M164.643447,124.793953 C161.102164,124.793953 158.234162,127.661956 158.234162,131.203239 C158.234162,134.744523 161.102164,137.612525 164.643447,137.612525 C168.184731,137.612525 171.052733,134.744523 171.052733,131.203239 C171.052733,127.661956 168.184731,124.793953 164.643447,124.793953" id="Fill-20" fill="#4CEEDF" mask="url(#mask-8)"></path>
                    <path d="M156.723214,147.264927 L125.393786,147.264927 C124.362004,147.264927 123.566308,148.16555 123.679979,149.188587 C124.641809,157.941241 132.047901,164.752746 141.054128,164.752746 C150.060355,164.752746 157.47519,157.941241 158.43702,149.188587 C158.541947,148.16555 157.754995,147.264927 156.723214,147.264927" id="Fill-21" fill="#4CEEDF" mask="url(#mask-8)"></path>
                </g>
            </g>
        </g>
    </g>
</svg>