<?xml version="1.0" encoding="UTF-8"?>
<svg width="414px" height="310px" viewBox="0 0 414 310" version="1.1" xmlns="http://www.w3.org/2000/svg" xmlns:xlink="http://www.w3.org/1999/xlink">
    <!-- Generator: Sketch 57.1 (83088) - https://sketch.com -->
    <title>Group 96</title>
    <desc>Created with Sketch.</desc>
    <defs>
        <polygon id="path-1" points="0.1715 0.16024 104.5268 0.16024 104.5268 97.05144 0.1715 97.05144"></polygon>
        <polygon id="path-3" points="0.1715 0.16024 104.5268 0.16024 104.5268 17.69644 0.1715 17.69644"></polygon>
        <polygon id="path-5" points="0.10344 0.17552 233.54484 0.17552 233.54484 93.4 0.10344 93.4"></polygon>
    </defs>
    <g id="Page-1" stroke="none" stroke-width="1" fill="none" fill-rule="evenodd">
        <g id="Profile---Developer" transform="translate(-152.000000, -176.000000)">
            <g id="Group-96" transform="translate(152.000000, 176.000000)">
                <g id="Group-42" transform="translate(0.000000, 14.904000)">
                    <path d="M49.33694,205.7766 C76.79254,271.6828 114.71734,236.5042 162.93274,215.0052 C190.86134,202.552 210.98394,201.8108 239.49754,212.3576 C271.94674,224.3606 309.20074,234.472 338.18514,206.3538 C403.47614,143.012 340.84914,10.6374 262.91554,26.2644 C236.52294,31.5564 216.36274,56.5066 190.56694,61.4656 C165.48534,66.2868 144.61874,39.6076 123.44634,28.2386 C86.01854,8.1404 57.25294,36.7552 43.58694,78.2038 C29.26214,121.6506 33.06114,164.3636 49.33694,205.7766" id="Fill-1" fill="#FFFFFF"></path>
                    <g id="Group-5" transform="translate(309.000000, 18.400000)">
                        <mask id="mask-2" fill="white">
                            <use xlink:href="#path-1"></use>
                        </mask>
                        <g id="Clip-4"></g>
                        <path d="M104.5269,8.47524 L104.5269,88.73604 C104.5269,93.31024 100.7847,97.05144 96.2105,97.05144 L8.4879,97.05144 C3.9135,97.05144 0.1715,93.31024 0.1715,88.73604 L0.1715,8.47524 C0.1715,3.90204 3.9135,0.16024 8.4879,0.16024 L96.2105,0.16024 C100.7847,0.16024 104.5269,3.90204 104.5269,8.47524" id="Fill-3" fill="#E2E2E2" mask="url(#mask-2)"></path>
                    </g>
                    <g id="Group-8" transform="translate(309.000000, 18.400000)">
                        <mask id="mask-4" fill="white">
                            <use xlink:href="#path-3"></use>
                        </mask>
                        <g id="Clip-7"></g>
                        <path d="M104.5269,8.47524 L104.5269,17.69644 L0.1715,17.69644 L0.1715,8.47524 C0.1715,3.90204 3.9135,0.16024 8.4879,0.16024 L96.2105,0.16024 C100.7847,0.16024 104.5269,3.90204 104.5269,8.47524" id="Fill-6" fill="#292F52" mask="url(#mask-4)"></path>
                    </g>
                    <path d="M401.05422,27.28588 C401.05422,28.89328 402.35702,30.19648 403.96442,30.19648 C405.56982,30.19648 406.87462,28.89328 406.87462,27.28588 C406.87462,25.67888 405.56982,24.37568 403.96442,24.37568 C402.35702,24.37568 401.05422,25.67888 401.05422,27.28588" id="Fill-9" fill="#E2E2E2"></path>
                    <path d="M390.14016,27.28588 C390.14016,28.89328 391.44296,30.19648 393.05036,30.19648 C394.65776,30.19648 395.96056,28.89328 395.96056,27.28588 C395.96056,25.67888 394.65776,24.37568 393.05036,24.37568 C391.44296,24.37568 390.14016,25.67888 390.14016,27.28588" id="Fill-11" fill="#E2E2E2"></path>
                    <path d="M354.3511,27.28638 C354.3511,28.88698 352.5513,30.19658 350.3511,30.19658 L319.6871,30.19658 C317.4859,30.19658 315.6871,28.88698 315.6871,27.28638 C315.6871,25.68538 317.4859,24.37578 319.6871,24.37578 L350.3511,24.37578 C352.5513,24.37578 354.3511,25.68538 354.3511,27.28638" id="Fill-13" fill="#FFFFFF"></path>
                    <path d="M379.15774,49.85424 L321.22994,49.85424 C320.08154,49.85424 319.14994,48.92364 319.14994,47.77504 C319.14994,46.62724 320.08154,45.69644 321.22994,45.69644 L379.15774,45.69644 C380.30614,45.69644 381.23594,46.62724 381.23594,47.77504 C381.23594,48.92364 380.30614,49.85424 379.15774,49.85424" id="Fill-15" fill="#FFFFFF"></path>
                    <path d="M367.23978,59.5061 L332.31598,59.5061 C331.16758,59.5061 330.23778,58.5755 330.23778,57.4275 C330.23778,56.2791 331.16758,55.3483 332.31598,55.3483 L367.23978,55.3483 C368.38818,55.3483 369.31798,56.2791 369.31798,57.4275 C369.31798,58.5755 368.38818,59.5061 367.23978,59.5061" id="Fill-17" fill="#FFFFFF"></path>
                    <path d="M388.02688,69.15844 L332.31588,69.15844 C331.16748,69.15844 330.23788,68.22784 330.23788,67.07984 C330.23788,65.93144 331.16748,65.00064 332.31588,65.00064 L388.02688,65.00064 C389.17528,65.00064 390.10508,65.93144 390.10508,67.07984 C390.10508,68.22784 389.17528,69.15844 388.02688,69.15844" id="Fill-19" fill="#FFFFFF"></path>
                    <path d="M379.15774,78.8103 L347.56014,78.8103 C346.41174,78.8103 345.48194,77.8801 345.48194,76.7317 C345.48194,75.5837 346.41174,74.6531 347.56014,74.6531 L379.15774,74.6531 C380.30614,74.6531 381.23594,75.5837 381.23594,76.7317 C381.23594,77.8801 380.30614,78.8103 379.15774,78.8103" id="Fill-21" fill="#FFFFFF"></path>
                    <path d="M397.72806,88.46264 L332.31586,88.46264 C331.16746,88.46264 330.23786,87.53204 330.23786,86.38344 C330.23786,85.23564 331.16746,84.30484 332.31586,84.30484 L397.72806,84.30484 C398.87646,84.30484 399.80626,85.23564 399.80626,86.38344 C399.80626,87.53204 398.87646,88.46264 397.72806,88.46264" id="Fill-23" fill="#FFFFFF"></path>
                    <path d="M349.77884,98.11498 L321.23004,98.11498 C320.08164,98.11498 319.14984,97.18438 319.14984,96.03638 C319.14984,94.88798 320.08164,93.95718 321.23004,93.95718 L349.77884,93.95718 C350.92524,93.95718 351.85704,94.88798 351.85704,96.03638 C351.85704,97.18438 350.92524,98.11498 349.77884,98.11498" id="Fill-25" fill="#FFFFFF"></path>
                    <path d="M379.15774,107.76684 L332.31594,107.76684 C331.16754,107.76684 330.23774,106.83664 330.23774,105.68824 C330.23774,104.53984 331.16754,103.60964 332.31594,103.60964 L379.15774,103.60964 C380.30614,103.60964 381.23594,104.53984 381.23594,105.68824 C381.23594,106.83664 380.30614,107.76684 379.15774,107.76684" id="Fill-27" fill="#FFFFFF"></path>
                    <path d="M51.3301,113.46224 C50.5801,117.00224 48.7197,120.13204 46.1299,122.47184 C44.3599,124.08224 42.2501,125.32244 39.9201,126.07244 C38.2799,126.60284 36.5299,126.88204 34.7099,126.88204 C32.8897,126.88204 31.1397,126.60284 29.5001,126.07244 C27.1797,125.32244 25.0699,124.09204 23.2999,122.48264 C20.7099,120.14284 18.8501,117.00224 18.0801,113.46224 C17.8399,112.31264 17.7099,111.11244 17.7099,109.88204 C17.7099,108.65264 17.8399,107.45244 18.0899,106.29224 C18.8501,102.75224 20.7099,99.62224 23.2999,97.28244 C25.0699,95.67264 27.1797,94.44264 29.5097,93.69264 C31.1499,93.16224 32.8999,92.88264 34.7099,92.88264 C36.5299,92.88264 38.2799,93.16224 39.9201,93.69264 C42.2501,94.44264 44.3599,95.68244 46.1299,97.29224 C48.7099,99.63204 50.5699,102.76204 51.3301,106.29224 C51.5801,107.45244 51.7099,108.65264 51.7099,109.88204 C51.7099,111.11244 51.5801,112.31264 51.3301,113.46224 M63.4297,109.88204 C63.4297,108.77264 63.3701,107.67204 63.2397,106.59204 L69.4201,103.02264 C67.8799,95.20244 63.7597,88.30244 57.9897,83.26244 L51.8199,86.82244 C50.0699,85.51244 48.1597,84.40264 46.1299,83.53244 L46.1299,76.40264 C42.5499,75.17264 38.6997,74.51244 34.7099,74.51244 C30.7197,74.51244 26.8799,75.17264 23.2999,76.39224 L23.2999,83.53244 C21.2701,84.40264 19.3599,85.51244 17.6099,86.82244 L11.4297,83.25224 C5.6597,88.30244 1.5401,95.20244 0.0001,103.02264 L6.1899,106.60284 C6.0601,107.68284 6.0001,108.77264 6.0001,109.88204 C6.0001,110.99244 6.0601,112.09204 6.1899,113.16224 L0.0097,116.73264 C1.5401,124.56264 5.6597,131.46224 11.4399,136.50224 L17.6099,132.94264 C19.3599,134.24244 21.2701,135.35284 23.2999,136.23264 L23.2999,143.36244 C26.8799,144.58224 30.7197,145.24244 34.7099,145.24244 C38.6997,145.24244 42.5499,144.58224 46.1299,143.35284 L46.1299,136.23264 C48.1597,135.35284 50.0699,134.24244 51.8199,132.94264 L57.9897,136.50224 C63.7597,131.45244 67.8799,124.56264 69.4097,116.73264 L63.2397,113.16224 C63.3701,112.09204 63.4297,110.99244 63.4297,109.88204" id="Fill-29" fill="#3E4463"></path>
                    <path d="M128.0674,24.6316 C128.0674,29.0316 124.4674,32.6316 120.0674,32.6316 L76.0708,32.6316 C71.671,32.6316 68.0708,29.0316 68.0708,24.6316 L68.0708,8.181 C68.0708,3.781 71.671,0.181 76.0708,0.181 L120.0674,0.181 C124.4674,0.181 128.0674,3.781 128.0674,8.181 L128.0674,24.6316 Z" id="Fill-31" fill="#E2E2E2"></path>
                    <path d="M109.76712,27.0315 C109.27052,27.0315 108.77252,26.8475 108.38532,26.4769 C107.58692,25.7131 107.55872,24.4471 108.32232,23.6491 L115.25012,16.4065 L108.32232,9.1639 C107.55872,8.3659 107.58692,7.0999 108.38532,6.3361 C109.18312,5.5725 110.44932,5.6013 111.21292,6.3991 L119.46292,15.0241 C120.20272,15.7971 120.20272,17.0159 119.46292,17.7889 L111.21292,26.4139 C110.81992,26.8245 110.29392,27.0315 109.76712,27.0315" id="Fill-33" fill="#FFFFFF"></path>
                    <path d="M86.37112,27.0315 C85.84432,27.0315 85.31832,26.8245 84.92532,26.4139 L76.67532,17.7889 C75.93552,17.0159 75.93552,15.7971 76.67532,15.0241 L84.92532,6.3991 C85.68852,5.6013 86.95452,5.5721 87.75292,6.3361 C88.55132,7.0999 88.57952,8.3659 87.81592,9.1639 L80.88812,16.4065 L87.81592,23.6491 C88.57952,24.4471 88.55132,25.7131 87.75292,26.4769 C87.36572,26.8475 86.86772,27.0315 86.37112,27.0315" id="Fill-35" fill="#FFFFFF"></path>
                    <path d="M94.81838,27.03198 C94.58398,27.03198 94.34578,26.99038 94.11378,26.90298 C93.08018,26.51338 92.55758,25.36018 92.94738,24.32638 L99.44738,7.07638 C99.83598,6.04278 100.99078,5.52018 102.02398,5.90998 C103.05758,6.29958 103.58018,7.45278 103.19038,8.48658 L96.69038,25.73658 C96.38878,26.53778 95.62698,27.03198 94.81838,27.03198" id="Fill-37" fill="#FFFFFF"></path>
                    <g id="Group-41" transform="translate(94.400000, 201.400000)">
                        <mask id="mask-6" fill="white">
                            <use xlink:href="#path-5"></use>
                        </mask>
                        <g id="Clip-40"></g>
                        <path d="M233.54484,33.38052 C233.54484,51.72032 181.28704,93.40012 116.82404,93.40012 C52.36084,93.40012 0.10344,51.72032 0.10344,33.38252 C0.10344,15.04272 52.36084,0.17552 116.82404,0.17552 C181.28704,0.17552 233.54484,15.04272 233.54484,33.38052" id="Fill-39" fill="#FFFFFF" mask="url(#mask-6)"></path>
                    </g>
                </g>
                <g id="Group-95" transform="translate(95.000000, 0.104000)">
                    <path d="M178.64406,199.09418 C186.65966,199.68598 226.13046,212.50238 227.13046,223.50238 C228.13046,234.50238 144.13046,283.00238 107.31886,282.50238 C70.50786,282.00238 0.12986,236.50238 2.62986,225.66938 C5.12986,214.83638 31.74766,200.36658 48.12986,199.09418 C68.62986,197.50238 178.64406,199.09418 178.64406,199.09418" id="Fill-43" fill="#292F52"></path>
                    <path d="M105.2969,258.64886 C110.8799,260.00246 120.6303,267.50246 124.1303,269.50246 C127.6303,271.50246 142.8803,280.75246 144.1303,284.75246 C145.3803,288.75246 145.1303,300.50246 136.6303,304.00246 C128.1303,307.50246 99.6299,297.75246 95.8799,294.25246 C91.6299,266.50246 105.2969,258.64886 105.2969,258.64886" id="Fill-45" fill="#292F52"></path>
                    <path d="M2.56498,224.50238 C-0.30362,228.75238 -1.12002,245.75238 2.62998,251.75238 C6.37998,257.75238 46.87998,284.75238 93.62998,294.25238 C92.12998,287.25238 108.51998,266.64978 111.85298,263.00338 C77.68598,246.18998 28.62998,217.75238 2.56498,224.50238" id="Fill-47" fill="#3E4463"></path>
                    <path d="M108.7969,266.66938 C87.3799,264.25238 60.0841,277.00238 58.1069,285.00238 C56.1299,293.00238 57.8799,302.50238 62.8799,307.25238 C67.8799,312.00238 100.7969,310.00438 117.4635,297.00338 C120.8803,283.50238 108.7969,266.66938 108.7969,266.66938" id="Fill-49" fill="#292F52"></path>
                    <path d="M108.48342,270.52778 C99.54582,270.16938 82.12982,274.75238 77.12982,279.25238 C80.12982,287.00238 82.37982,298.25238 79.87982,302.00238 C89.87982,303.75238 109.32422,298.75238 114.85202,294.25238 C115.38042,287.00238 108.48342,270.52778 108.48342,270.52778" id="Fill-51" fill="#FF7B85"></path>
                    <path d="M227.1304,223.50238 C230.9682,230.00338 233.1304,247.00338 227.1304,253.00338 C221.1304,259.00338 157.1304,291.33738 117.4634,297.00338 C111.4634,291.33638 107.1304,270.00238 108.797,266.66938 C135.4634,246.33638 195.7964,219.66838 227.1304,223.50238" id="Fill-53" fill="#3E4463"></path>
                    <path d="M175.1382,172.66448 C176.2026,186.13228 169.3882,187.66448 164.6382,190.91448 C159.8882,194.16448 161.3882,203.91448 163.1382,220.41448 C152.3882,228.91448 94.1386,241.66448 61.8886,224.41448 C62.6386,219.66448 63.1386,206.66448 62.3886,200.91448 C61.6386,195.16448 58.8886,191.91448 49.1386,186.16448 C39.3886,180.41448 49.6386,118.66448 53.8886,113.41448 C58.1386,108.16488 84.3886,91.66508 98.1386,89.66508 C98.1386,89.66508 119.1382,88.41508 127.6382,89.66508 C136.1382,90.91508 166.8882,105.41488 175.1382,114.91448 C183.3882,124.41448 174.3882,163.16448 175.1382,172.66448" id="Fill-55" fill="#FF0013"></path>
                    <path d="M145.79642,225.66938 C147.13042,225.33638 175.13042,220.66938 187.46442,211.66938 C204.75142,199.05418 182.11682,123.34518 176.32182,116.69978 C176.32182,116.69978 171.88822,109.41498 159.25922,103.38858 C149.63822,109.16498 151.93122,135.74658 152.63822,141.16458 C154.79642,157.66938 161.62062,180.42418 163.13042,185.66938 C159.46442,189.66938 141.79642,197.66938 141.79642,197.66938 L145.79642,225.66938 Z" id="Fill-57" fill="#FF7B85"></path>
                    <path d="M81.7969,227.33638 C81.7969,227.33638 69.8037,227.89298 58.4635,224.00238 C17.6783,210.01018 37.6387,131.91458 53.8887,113.41458 C53.8887,113.41458 59.3565,107.52738 66.5425,103.86318 C72.4463,106.31138 77.2011,121.87538 73.7221,139.66938 C70.4635,156.33638 65.7969,188.66838 65.7969,192.00238 C69.4635,194.66938 80.1299,200.00238 80.1299,200.00238 L81.7969,227.33638 Z" id="Fill-59" fill="#FF7B85"></path>
                    <path d="M168.78078,236.00238 L56.81198,236.00238 L51.96298,165.61378 C80.98838,161.04438 149.37658,161.04438 173.63038,165.61378 L168.78078,236.00238 Z" id="Fill-61" fill="#CFD2D3"></path>
                    <path d="M120.29642,199.09418 C120.29642,203.23678 116.93902,206.59418 112.79682,206.59418 C108.65442,206.59418 105.29682,203.23678 105.29682,199.09418 C105.29682,194.95158 108.65442,191.59418 112.79682,191.59418 C116.93902,191.59418 120.29642,194.95158 120.29642,199.09418" id="Fill-63" fill="#E6E8E8"></path>
                    <polygon id="Fill-65" fill="#A2A9AD" points="168.78078 236.00238 168.78078 241.83538 56.73438 241.83538 56.81198 236.00238"></polygon>
                    <path d="M130.2222,75.165 C129.7906,79.6664 129.3882,90.832 132.2222,94.832 C121.3882,104.332 100.5556,102.4984 93.7222,95.9984 C95.2222,90.665 95.2222,79.665 93.7222,76.165 C92.2222,72.665 111.3888,69.9984 111.3888,69.9984 L130.2222,75.165 Z" id="Fill-67" fill="#FFA993"></path>
                    <path d="M78.1592,47.67182 C64.812,15.99502 84.7222,14.99842 84.7222,14.99842 C89.0552,0.44242 116.0406,-1.80758 125.0542,1.33202 C139.8882,6.49842 150.1226,22.31342 143.355,46.58842 C143.355,46.58842 135.0132,82.97702 114.8882,82.9150991 C94.7002,82.85302 78.1592,47.67182 78.1592,47.67182" id="Fill-69" fill="#292F52"></path>
                    <path d="M147.38626,55.08198 C147.38626,62.79438 140.49946,64.99858 136.22026,64.99858 C131.93906,64.99858 133.17926,58.11218 133.17926,53.78618 C133.17926,49.45998 133.77306,45.16498 138.05426,45.16498 C142.33346,45.16498 147.38626,47.16498 147.38626,55.08198" id="Fill-71" fill="#FFA993"></path>
                    <path d="M73.7222,56.50532 C73.7222,64.21772 80.6084,66.42192 84.8888,66.42192 C89.169,66.42192 87.9302,59.53552 87.9302,55.20952 C87.9302,50.88332 87.3354,46.58832 83.0552,46.58832 C78.775,46.58832 73.7222,48.58832 73.7222,56.50532" id="Fill-73" fill="#FFA993"></path>
                    <path d="M119.90774,89.10932 C112.05474,92.66492 100.07234,92.22012 94.73054,89.10932 C94.83294,86.66112 94.89074,83.57852 94.73054,81.80552 C101.05514,83.83152 119.90774,89.10932 119.90774,89.10932" id="Fill-75" fill="#FF7D71"></path>
                    <path d="M81.2222,48.8315 C81.2222,72.8315 93.2222,89.6649 114.8882,89.6649 C136.5542,89.6649 141.5542,61.3315 141.5542,48.8315 C141.5542,36.3315 121.3882,21.9985 110.5556,21.9985 C84.2222,21.9985 81.2222,48.8315 81.2222,48.8315" id="Fill-77" fill="#FFB29E"></path>
                    <path d="M81.2222,55.08198 C90.0556,49.49858 92.3804,40.31678 94.3888,39.16498 C106.0138,32.49858 114.0762,44.22058 130.3882,38.49858 C130.3882,38.49858 133.7222,48.78018 141.5542,51.93118 C141.9194,45.30518 133.484,33.98978 128.519,29.49418 C123.5542,24.99858 94.7124,20.02738 89.3838,30.84618 C84.0552,41.66498 81.2222,55.08198 81.2222,55.08198" id="Fill-79" fill="#FF7D71"></path>
                    <path d="M81.2222,55.08198 C87.7222,50.83198 90.8888,41.33158 91.3888,37.66498 C106.0548,26.83198 117.0542,40.83198 131.5542,36.66498 C132.7222,41.99858 138.0542,49.86378 141.5542,51.93118 C142.2008,47.74118 144.4898,40.81838 142.6578,36.15138 C140.8238,31.48438 138.6108,14.99798 109.75,14.16498 C80.8888,13.33198 76.5556,31.83198 77.2222,37.49858 C77.8888,43.16498 81.2222,55.08198 81.2222,55.08198" id="Fill-81" fill="#292F52"></path>
                    <path d="M124.6382,56.6025 C124.6382,58.3627 123.7984,59.7901 122.7632,59.7901 C121.728,59.7901 120.8882,58.3627 120.8882,56.6025 C120.8882,54.8423 121.728,53.4149 122.7632,53.4149 C123.7984,53.4149 124.6382,54.8423 124.6382,56.6025" id="Fill-83" fill="#292F52"></path>
                    <path d="M104.2007,56.6025 C104.2007,58.3627 103.3613,59.7901 102.3257,59.7901 C101.2901,59.7901 100.4507,58.3627 100.4507,56.6025 C100.4507,54.8423 101.2901,53.4149 102.3257,53.4149 C103.3613,53.4149 104.2007,54.8423 104.2007,56.6025" id="Fill-85" fill="#292F52"></path>
                    <path d="M120.21242,45.07856 C120.21242,45.07856 120.22422,45.03556 120.24562,44.95456 C120.27302,44.87636 120.30422,44.74116 120.36862,44.61476 C120.48982,44.34316 120.69482,43.97856 121.01702,43.65236 C121.17522,43.47896 121.35702,43.30276 121.57382,43.16696 C121.78082,43.01076 122.01702,42.86756 122.27102,42.74936 C122.53082,42.64556 122.80222,42.53176 123.09522,42.47996 C123.38422,42.41356 123.68502,42.37876 123.98982,42.37356 C124.29442,42.37096 124.59922,42.39056 124.89602,42.45596 C125.19482,42.49756 125.48002,42.60496 125.74762,42.71536 C126.01902,42.80716 126.25542,42.98916 126.47602,43.13416 C126.70262,43.26456 126.88622,43.45496 127.04442,43.63516 C127.37462,43.96616 127.56402,44.34756 127.67142,44.62356 C127.78082,44.90036 127.81602,45.07896 127.81402,45.07896 L127.82962,45.15856 C127.83942,45.20456 127.80822,45.24856 127.76322,45.25736 C127.74562,45.26076 127.72802,45.25776 127.71242,45.25096 C127.71242,45.25096 127.60302,45.19976 127.40962,45.11036 C127.22022,45.01516 126.94482,44.89496 126.60502,44.77876 C126.43702,44.71196 126.25342,44.64636 126.05222,44.60256 C125.85302,44.55356 125.64602,44.48716 125.42142,44.46336 C124.98002,44.38916 124.50142,44.34716 124.02482,44.37256 C123.06782,44.36216 122.11482,44.57376 121.43322,44.80956 C120.74162,45.03016 120.31402,45.25136 120.31402,45.25136 C120.27302,45.27296 120.22222,45.25676 120.20062,45.21536 C120.18902,45.19576 120.18702,45.17476 120.19282,45.15516 L120.21242,45.07856 Z" id="Fill-87" fill="#FF7167"></path>
                    <path d="M97.46976,45.07514 C97.46976,45.07514 97.50496,44.89694 97.61536,44.63754 C97.72416,44.38134 97.90536,44.04394 98.18176,43.73434 C98.31836,43.57514 98.47316,43.40674 98.65716,43.27534 C98.84076,43.13854 99.03176,42.97554 99.25736,42.87354 C99.69476,42.63914 100.21736,42.49454 100.76556,42.44774 C101.31456,42.40914 101.89796,42.49354 102.41996,42.69374 C102.94236,42.91594 103.39896,43.23194 103.69776,43.60094 C103.85256,43.78014 103.96436,43.97694 104.05176,44.14494 C104.14416,44.30654 104.17876,44.49994 104.21436,44.63374 C104.27356,44.91834 104.26656,45.08934 104.26656,45.08934 L104.26316,45.17434 C104.26136,45.22014 104.22276,45.25534 104.17676,45.25394 C104.16156,45.25294 104.14696,45.24794 104.13476,45.24014 C104.13476,45.24014 104.04496,45.18214 103.88776,45.07994 C103.74076,44.96194 103.49476,44.85874 103.20796,44.72454 C102.91316,44.60834 102.55576,44.50734 102.16076,44.45314 C101.76476,44.40674 101.33636,44.39934 100.91016,44.44134 C100.05316,44.48974 99.20276,44.69434 98.58396,44.89694 C97.95996,45.09134 97.55756,45.25474 97.55756,45.25474 C97.51756,45.27094 97.47216,45.25194 97.45616,45.21234 C97.45016,45.19774 97.44876,45.18214 97.45176,45.16794 L97.46976,45.07514 Z" id="Fill-89" fill="#FF7167"></path>
                    <path d="M116.2007,63.89252 C116.2007,63.89252 116.2475,64.03372 116.3277,64.28012 C116.3999,64.51892 116.5483,64.86032 116.7027,65.27432 C117.0211,66.10352 117.4683,67.21632 117.7105,68.44912 C117.8139,69.06692 117.8921,69.72412 117.7085,70.39292 C117.6245,70.72412 117.4293,71.05612 117.1617,71.27772 C116.8961,71.50132 116.5913,71.60732 116.3315,71.64792 C115.8023,71.73292 115.4155,71.61372 115.1441,71.56932 C114.8803,71.49352 114.7339,71.44232 114.7339,71.44232 C114.6519,71.41312 114.6083,71.32172 114.6383,71.23872 C114.6597,71.17572 114.7163,71.13572 114.7807,71.13232 L114.7925,71.13172 C114.7925,71.13172 114.9429,71.12452 115.1949,71.12592 C115.4409,71.11412 115.8139,71.09712 116.1617,70.96772 C116.5151,70.83012 116.7553,70.60832 116.8237,70.17332 C116.8999,69.74412 116.8375,69.18552 116.7299,68.63332 C116.5093,67.51792 116.1715,66.36672 116.0151,65.46732 C115.9273,65.01852 115.9019,64.63232 115.8823,64.35632 C115.8667,64.07472 115.8883,63.93152 115.8883,63.93152 L115.8901,63.91752 C115.9039,63.83012 115.9859,63.76992 116.0737,63.78312 C116.1343,63.79292 116.1831,63.83692 116.2007,63.89252" id="Fill-91" fill="#FF7167"></path>
                    <path d="M106.19534,76.28168 C106.19534,76.28168 106.44834,76.38568 106.87694,76.58888 C107.09174,76.70648 107.35254,76.79248 107.63274,76.88868 C107.91014,76.99268 108.22554,77.10108 108.59954,77.19628 C108.95894,77.30748 109.35834,77.39648 109.78234,77.48288 C110.19834,77.58828 110.66114,77.62108 111.12014,77.71048 C111.58994,77.76168 112.07514,77.80848 112.56934,77.84508 C113.06554,77.87748 113.56834,77.89348 114.07414,77.88608 C114.57994,77.91068 115.08554,77.86168 115.58354,77.84568 C116.07574,77.78948 116.57374,77.78948 117.03854,77.70508 C117.50934,77.64148 117.96434,77.58488 118.38814,77.49208 C118.82174,77.42368 119.20454,77.30168 119.58154,77.22508 C119.93514,77.10788 120.27694,77.02048 120.56394,76.91588 C120.83934,76.79388 121.10494,76.71288 121.30234,76.61808 C121.68694,76.41788 121.92734,76.30468 121.92734,76.30468 L121.97414,76.28268 C122.13234,76.20848 122.32174,76.27688 122.39594,76.43508 C122.45074,76.55128 122.42734,76.68348 122.34914,76.77528 C122.34914,76.77528 122.16554,76.98828 121.81014,77.35828 C121.43694,77.69728 120.85894,78.13368 120.09534,78.52928 C119.70854,78.69568 119.29454,78.93208 118.82954,79.06788 C118.37054,79.23188 117.88234,79.39488 117.36474,79.49848 C116.84914,79.63128 116.31014,79.70008 115.75934,79.78508 C115.20654,79.82128 114.64594,79.88868 114.08214,79.87988 C113.51754,79.89748 112.95514,79.84328 112.40034,79.79588 C111.84674,79.75188 111.30674,79.63268 110.78694,79.52768 C110.27154,79.39148 109.77154,79.27928 109.31634,79.08348 C109.08894,78.99548 108.86714,78.91008 108.65234,78.82748 C108.44634,78.72068 108.24814,78.61808 108.05674,78.51908 C107.67574,78.33788 107.33594,78.11368 107.04694,77.89488 C106.74714,77.69288 106.51174,77.50488 106.35554,77.33348 C106.01754,77.00048 105.83214,76.79868 105.83214,76.79868 C105.71194,76.66688 105.72074,76.46228 105.85254,76.34168 C105.94734,76.25428 106.08214,76.23528 106.19534,76.28168" id="Fill-93" fill="#FF7167"></path>
                </g>
            </g>
        </g>
    </g>
</svg>