<?xml version="1.0" encoding="UTF-8"?>
<svg width="160px" height="160px" viewBox="0 0 160 160" version="1.1" xmlns="http://www.w3.org/2000/svg" xmlns:xlink="http://www.w3.org/1999/xlink">
    <!-- Generator: sketchtool 57.1 (101010) - https://sketch.com -->
    <title>01448BBA-5103-4325-B9F4-22C89953A8C6</title>
    <desc>Created with sketchtool.</desc>
    <g id="Page-1" stroke="none" stroke-width="1" fill="none" fill-rule="evenodd">
        <g id="Dashboard-1" transform="translate(-180.000000, -158.000000)">
            <g id="Group-8" transform="translate(180.000000, 158.000000)">
                <path d="M35.8624,30.3456 L113.104,30.3456 L113.104,13.7936 L35.8624,13.7936 L35.8624,30.3456 Z M44.1376,44.1376 L77.2416,44.1376 L77.2416,38.6208 L44.1376,38.6208 L44.1376,44.1376 Z M33.104,55.1728 L77.2416,55.1728 L77.2416,49.656 L33.104,49.656 L33.104,55.1728 Z M71.7248,66.2064 L77.2416,66.2064 L77.2416,60.6896 L71.7248,60.6896 L71.7248,66.2064 Z M33.104,77.2416 L77.2416,77.2416 L77.2416,71.7248 L33.104,71.7248 L33.104,77.2416 Z M33.104,88.2752 L77.2416,88.2752 L77.2416,82.7584 L33.104,82.7584 L33.104,88.2752 Z M44.1376,99.3104 L77.2416,99.3104 L77.2416,93.7936 L44.1376,93.7936 L44.1376,99.3104 Z M33.104,99.3104 L38.6208,99.3104 L38.6208,93.7936 L33.104,93.7936 L33.104,99.3104 Z M33.104,66.2064 L66.208,66.2064 L66.208,60.6896 L33.104,60.6896 L33.104,66.2064 Z M33.104,44.1376 L38.6208,44.1376 L38.6208,38.6208 L33.104,38.6208 L33.104,44.1376 Z M82.7584,74.4832 C82.7584,52.5968 99.848,34.6736 121.3792,33.2448 L121.3792,0 L109.8736,0 C108.7344,3.2112 105.6672,5.5168 102.0688,5.5168 C98.472,5.5168 95.4048,3.2112 94.2656,0 L82.2864,0 C81.1472,3.2112 78.08,5.5168 74.4832,5.5168 C70.8848,5.5168 67.8176,3.2112 66.6784,0 L54.7008,0 C53.5616,3.2112 50.4944,5.5168 46.896,5.5168 C43.2992,5.5168 40.232,3.2112 39.0928,0 L27.5856,0 L27.5856,104.8272 L80,104.8272 C84.5632,104.8272 88.2752,108.5408 88.2752,113.104 L88.2752,121.3792 L113.104,121.3792 L113.104,114.3232 C95.6336,109.4752 82.7584,93.4752 82.7584,74.4832 L82.7584,74.4832 Z" id="Fill-1" fill="#3E4463"></path>
                <path d="M118.62048,115.45072 L118.62048,154.48272 C118.62048,157.52592 121.09568,159.99952 124.13728,159.99952 C127.18048,159.99952 129.65408,157.52592 129.65408,154.48272 L129.65408,115.45072 C127.84608,115.69392 126.01408,115.86192 124.13728,115.86192 C122.26208,115.86192 120.43008,115.69392 118.62048,115.45072" id="Fill-3" fill="#FA6400"></path>
                <path d="M5.5168,154.4816 L11.0336,154.4816 L11.0336,148.9648 L5.5168,148.9648 L5.5168,154.4816 Z M5.5168,143.448 L33.1024,143.448 L33.1024,137.9312 L5.5168,137.9312 L5.5168,143.448 Z M57.9312,140.6896 C60.9792,140.6896 63.448,143.1584 63.448,146.2064 C63.448,143.1584 65.9168,140.6896 68.9664,140.6896 C72.0128,140.6896 74.4832,143.1584 74.4832,146.2064 C74.4832,149.256 72.0128,151.7248 68.9664,151.7248 C65.9168,151.7248 63.448,149.256 63.448,146.2064 C63.448,149.256 60.9792,151.7248 57.9312,151.7248 C54.8832,151.7248 52.4128,149.256 52.4128,146.2064 C52.4128,143.1584 54.8832,140.6896 57.9312,140.6896 L57.9312,140.6896 Z M27.5872,154.4832 L33.104,154.4832 L33.104,148.9664 L27.5872,148.9664 L27.5872,154.4832 Z M16.552,154.4832 L22.0688,154.4832 L22.0688,148.9664 L16.552,148.9664 L16.552,154.4832 Z M0,157.2416 C0,158.7632 1.2368,160 2.7584,160 L80,160 C81.5232,160 82.7584,158.7632 82.7584,157.2416 L82.7584,126.8976 L0,126.8976 L0,157.2416 Z" id="Fill-4" fill="#27AE60"></path>
                <path d="M80.00016,110.34448 L2.75856,110.34448 C1.23536,110.34448 0.00016,111.57968 0.00016,113.10448 L0.00016,121.37968 L82.75856,121.37968 L82.75856,113.10448 C82.75856,111.57968 81.52336,110.34448 80.00016,110.34448" id="Fill-5" fill="#27AE60"></path>
                <path d="M124.1376,102.06864 C108.9024,102.06864 96.552,89.71824 96.552,74.48304 C96.552,59.24624 108.9024,46.89744 124.1376,46.89744 C139.3728,46.89744 151.7248,59.24624 151.7248,74.48304 C151.7248,89.71824 139.3728,102.06864 124.1376,102.06864 M124.1376,38.62064 C104.3648,38.62064 88.2752,54.70864 88.2752,74.48304 C88.2752,94.25584 104.3648,110.34384 124.1376,110.34384 C143.912,110.34384 160,94.25584 160,74.48304 C160,54.70864 143.912,38.62064 124.1376,38.62064" id="Fill-6" fill="#FA6400"></path>
                <path d="M126.89632,66.20688 C128.41952,66.20688 129.65472,67.44208 129.65472,68.96528 L135.17152,68.96528 C135.17152,64.40368 131.45952,60.69008 126.89632,60.69008 L126.89632,55.17328 L121.37952,55.17328 L121.37952,60.69008 L113.10272,60.69008 L113.10272,68.96528 C113.10272,73.52848 116.81632,77.24048 121.37952,77.24048 L126.89632,77.24048 C128.41952,77.24048 129.65472,78.47728 129.65472,80.00048 L129.65472,82.75888 L121.37952,82.75888 C119.85632,82.75888 118.62112,81.52208 118.62112,80.00048 L113.10272,80.00048 C113.10272,84.56208 116.81632,88.27568 121.37952,88.27568 L121.37952,93.79248 L126.89632,93.79248 L126.89632,88.27568 L135.17152,88.27568 L135.17152,80.00048 C135.17152,75.43728 131.45952,71.72368 126.89632,71.72368 L121.37952,71.72368 C119.85632,71.72368 118.62112,70.48848 118.62112,68.96528 L118.62112,66.20688 L126.89632,66.20688 Z" id="Fill-7" fill="#F7B500"></path>
            </g>
        </g>
    </g>
</svg>