<svg id="Layer_1" data-name="Layer 1" xmlns="http://www.w3.org/2000/svg" xmlns:xlink="http://www.w3.org/1999/xlink" viewBox="0 0 36 36"><defs><style>.cls-1{fill:#fff;fill-rule:evenodd;}.cls-2{fill:#45a3f8;}.cls-3{mask:url(#mask);}</style><mask id="mask" x="10" y="12" width="17.03" height="11.92" maskUnits="userSpaceOnUse"><g id="mask-2"><polygon id="path-1" class="cls-1" points="10 12 27.03 12 27.03 23.92 10 23.92 10 12"/></g></mask></defs><g id="Page-1"><g id="Launch---Onboarding-NDA-2---Select-Carriers"><g id="Group"><circle id="Oval" class="cls-2" cx="18" cy="18" r="18"/><g id="Group-3"><g class="cls-3"><path id="Fill-1" class="cls-1" d="M16,23.92a.8.8,0,0,1-.6-.25l-5.11-5.1a.86.86,0,0,1,0-1.21.83.83,0,0,1,.61-.26.81.81,0,0,1,.6.26l4.21,4.2a.4.4,0,0,0,.29.12.42.42,0,0,0,.3-.12l9.3-9.31a.88.88,0,0,1,.61-.25.86.86,0,0,1,.61,1.46L16.57,23.67a.82.82,0,0,1-.61.25"/></g></g></g></g></g></svg>