<?xml version="1.0" encoding="UTF-8"?>
<svg width="282px" height="204px" viewBox="0 0 282 204" version="1.1" xmlns="http://www.w3.org/2000/svg" xmlns:xlink="http://www.w3.org/1999/xlink">
    <!-- Generator: Sketch 57.1 (83088) - https://sketch.com -->
    <title>Group 90</title>
    <desc>Created with Sketch.</desc>
    <defs>
        <polygon id="path-1" points="0.03336 0.05428 48.18516 0.05428 48.18516 32.2 0.03336 32.2"></polygon>
        <polygon id="path-3" points="0.10346 0.14646 19.95606 0.14646 19.95606 13.4 0.10346 13.4"></polygon>
        <polygon id="path-5" points="0.08914 0.07088 48.81394 0.07088 48.81394 32.6 0.08914 32.6"></polygon>
        <polygon id="path-7" points="0.02342 0.16466 118.5702 0.16466 118.5702 20.22126 0.02342 20.22126"></polygon>
        <polygon id="path-9" points="0.04082 0.0726 26.1744272 0.0726 26.1744272 26.2061 0.04082 26.2061"></polygon>
    </defs>
    <g id="Page-1" stroke="none" stroke-width="1" fill="none" fill-rule="evenodd">
        <g id="Launch---Onboarding-NDA-6---Bot-Launch" transform="translate(-100.000000, -624.000000)">
            <g id="Group-90" transform="translate(100.000000, 624.000000)">
                <path d="M78.95742,161.39732 C61.36402,161.39732 47.10422,175.65732 47.10422,193.25112 C47.10422,196.99512 47.75162,200.58972 48.93842,203.92792 L108.97602,203.92792 C110.16302,200.58972 110.81042,196.99512 110.81042,193.25112 C110.81042,175.65732 96.55062,161.39732 78.95742,161.39732" id="Fill-1" fill="#D5D2E2"></path>
                <path d="M102.43358,171.72172 C98.81878,167.78092 94.22478,164.75572 89.03718,163.02632 C87.03858,162.49792 84.90818,162.13012 82.69798,161.95912 C71.14958,161.06492 61.78778,165.85072 61.78778,172.64972 C61.78778,179.44892 71.14958,185.68532 82.69798,186.57932 C94.24598,187.47352 103.60838,182.68772 103.60838,175.88852 C103.60838,174.45952 103.19378,173.05552 102.43358,171.72172" id="Fill-3" fill="#FEFFFF"></path>
                <g id="Group-7" transform="translate(78.000000, 171.728000)">
                    <mask id="mask-2" fill="white">
                        <use xlink:href="#path-1"></use>
                    </mask>
                    <g id="Clip-6"></g>
                    <path d="M24.10936,0.05428 C10.81156,0.05428 0.03336,10.83228 0.03336,24.12928 C0.03336,26.95988 0.52236,29.67668 1.41956,32.20008 L46.79896,32.20008 C47.69536,29.67668 48.18516,26.95988 48.18516,24.12928 C48.18516,10.83228 37.40636,0.05428 24.10936,0.05428" id="Fill-5" fill="#CCC9DC" mask="url(#mask-2)"></path>
                </g>
                <path d="M119.8533,179.5852 C117.1211,176.6068 113.6491,174.3202 109.7281,173.0126 C108.2167,172.6134 106.6071,172.3358 104.9367,172.206 C96.2077,171.5306 89.1317,175.1478 89.1317,180.2864 C89.1317,185.4256 96.2077,190.1394 104.9367,190.8146 C113.6653,191.491 120.7409,187.8736 120.7409,182.7344 C120.7409,181.655 120.4279,180.5938 119.8533,179.5852" id="Fill-8" fill="#FEFFFF"></path>
                <path d="M120.6787,178.93774 C110.3415,178.93774 101.9625,187.31694 101.9625,197.65434 C101.9625,199.85394 102.3425,201.96654 103.0405,203.92794 L138.3171,203.92794 C139.0143,201.96654 139.3953,199.85394 139.3953,197.65434 C139.3953,187.31694 131.0163,178.93774 120.6787,178.93774" id="Fill-10" fill="#D5D2E2"></path>
                <path d="M134.47322,185.00434 C132.34842,182.68854 129.65022,180.91074 126.60182,179.89494 C125.42662,179.58434 124.17522,179.36794 122.87702,179.26714 C116.09142,178.74194 110.59002,181.55474 110.59002,185.54914 C110.59002,189.54394 116.09142,193.20894 122.87702,193.73414 C129.66202,194.25974 135.16282,191.44754 135.16282,187.45234 C135.16282,186.61314 134.91902,185.78794 134.47322,185.00434" id="Fill-12" fill="#FEFFFF"></path>
                <path d="M134.62322,203.9272 C131.22522,195.248 129.39022,186.0436 129.39022,176.5064 C129.39022,150.1716 143.32722,126.3562 165.80082,109.2206 C153.58382,123.9314 146.49682,141.4326 146.49682,160.2144 C146.49682,175.9872 151.50042,190.8552 160.33762,203.9272 L134.62322,203.9272 Z" id="Fill-14" fill="#CCC9DC"></path>
                <g id="Group-18" transform="translate(142.600000, 190.528000)">
                    <mask id="mask-4" fill="white">
                        <use xlink:href="#path-3"></use>
                    </mask>
                    <g id="Clip-17"></g>
                    <path d="M10.03026,0.14646 C15.51226,0.14646 19.95606,4.59026 19.95606,10.07226 C19.95606,11.23926 19.75426,12.35926 19.38466,13.40006 L0.67486,13.40006 C0.30526,12.35926 0.10346,11.23926 0.10346,10.07226 C0.10346,4.59026 4.54706,0.14646 10.03026,0.14646" id="Fill-16" fill="#FEFFFF" mask="url(#mask-4)"></path>
                </g>
                <path d="M165.70916,109.3311 C153.54916,124.0201 146.49676,141.4793 146.49676,160.2143 C146.49676,172.3511 149.46056,183.9515 154.85136,194.6107 L145.35656,194.6107 C141.95876,185.9315 140.12396,176.7269 140.12396,167.1893 C140.12396,145.3897 149.67376,125.3177 165.70916,109.3311" id="Fill-19" fill="#FEFFFF"></path>
                <path d="M160.96132,133.71606 C153.05952,145.22426 149.46712,158.90326 151.54012,173.58166 C152.88352,183.08966 156.48892,192.17786 161.89272,200.52926 L154.45372,200.52926 C150.83072,193.72946 148.37452,186.51826 147.31912,179.04606 C144.90632,161.96686 150.16672,146.24106 160.96132,133.71606" id="Fill-21" fill="#FEFFFF"></path>
                <path d="M172.33416,179.92154 C182.26476,179.92154 190.31356,187.97054 190.31356,197.90094 C190.31356,200.01454 189.94816,202.04374 189.27876,203.92794 L155.38956,203.92794 C154.71996,202.04374 154.35456,200.01454 154.35456,197.90094 C154.35456,187.97054 162.40436,179.92154 172.33416,179.92154" id="Fill-23" fill="#D5D2E2"></path>
                <path d="M159.083,185.74926 C161.1236,183.52426 163.7164,181.81686 166.6448,180.84046 C167.7736,180.54286 168.9758,180.33466 170.2232,180.23786 C176.7416,179.73346 182.026,182.43526 182.026,186.27266 C182.026,190.11066 176.7416,193.63086 170.2232,194.13546 C163.705,194.63986 158.4204,191.93886 158.4204,188.10126 C158.4204,187.29446 158.6544,186.50186 159.083,185.74926" id="Fill-25" fill="#FEFFFF"></path>
                <g id="Group-29" transform="translate(171.400000, 171.328000)">
                    <mask id="mask-6" fill="white">
                        <use xlink:href="#path-5"></use>
                    </mask>
                    <g id="Clip-28"></g>
                    <path d="M24.45174,0.07088 C37.90674,0.07088 48.81394,10.97808 48.81394,24.43348 C48.81394,27.29708 48.31854,30.04688 47.41094,32.60008 L1.49174,32.60008 C0.58394,30.04688 0.08914,27.29708 0.08914,24.43348 C0.08914,10.97808 10.99554,0.07088 24.45174,0.07088" id="Fill-27" fill="#CCC9DC" mask="url(#mask-6)"></path>
                </g>
                <path d="M177.89608,179.29536 C180.66068,176.28176 184.17408,173.96736 188.14188,172.64476 C189.67068,172.24076 191.29988,171.95956 192.99048,171.82816 C201.82288,171.14476 208.98348,174.80496 208.98348,180.00536 C208.98348,185.20536 201.82288,189.97496 192.99048,190.65896 C184.15788,191.34256 176.99728,187.68236 176.99728,182.48276 C176.99728,181.38936 177.31448,180.31616 177.89608,179.29536" id="Fill-30" fill="#FEFFFF"></path>
                <path d="M227.5127,160.7315 C245.3809,160.7315 259.8641,175.2149 259.8641,193.0839 C259.8641,196.8859 259.2067,200.5373 258.0019,203.9279 L197.0235,203.9279 C195.8185,200.5373 195.1609,196.8859 195.1609,193.0839 C195.1609,175.2149 209.6441,160.7315 227.5127,160.7315" id="Fill-32" fill="#D5D2E2"></path>
                <path d="M203.66912,171.21724 C207.34052,167.21524 212.00612,164.14244 217.27432,162.38564 C219.30532,161.84904 221.46872,161.47644 223.71352,161.30204 C235.44212,160.39344 244.95072,165.25424 244.95072,172.15984 C244.95072,179.06524 235.44212,185.39964 223.71352,186.30744 C211.98432,187.21604 202.47552,182.35504 202.47552,175.44964 C202.47552,173.99864 202.89692,172.57224 203.66912,171.21724" id="Fill-34" fill="#FEFFFF"></path>
                <path d="M97.8375,196.20826 C93.5053,194.93086 51.6265,182.15686 51.6265,182.15686 C51.6265,182.15686 70.0377,195.44266 67.1501,194.67606 C64.2609,193.90846 0.0001,181.13426 0.0001,181.13426 L78.5215,201.19086 L72.5651,191.73786 L97.8375,196.20826 Z" id="Fill-36" fill="#FEFFFF"></path>
                <g id="Group-40" transform="translate(163.200000, 182.728000)">
                    <mask id="mask-8" fill="white">
                        <use xlink:href="#path-7"></use>
                    </mask>
                    <g id="Clip-39"></g>
                    <path d="M0.02342,15.23866 C5.27302,13.96126 56.01602,1.18686 56.01602,1.18686 C56.01602,1.18686 33.70702,14.47286 37.20662,13.70626 C40.70622,12.93886 118.57022,0.16466 118.57022,0.16466 L23.42702,20.22126 L30.64482,10.76826 L0.02342,15.23866 Z" id="Fill-38" fill="#FEFFFF" mask="url(#mask-8)"></path>
                </g>
                <path d="M225.66446,91.5891 L182.09846,123.7463 C182.09846,123.7463 205.50366,111.2933 225.66446,91.5891" id="Fill-41" fill="#327DC8"></path>
                <path d="M186.06406,90.9103 C187.09306,82.4507 190.85146,74.2573 197.34486,67.7637 C203.83886,61.2709 212.03106,57.5115 220.49166,56.4833 C219.46246,64.9431 215.70406,73.1363 209.21046,79.6301 C202.71766,86.1229 194.52446,89.8821 186.06406,90.9103" id="Fill-43" fill="#FECA56"></path>
                <path d="M197.82792,79.14702 C198.37172,74.67162 200.36032,70.33762 203.79472,66.90302 C207.23012,63.46742 211.56452,61.47882 216.03972,60.93522 C215.49532,65.41042 213.50752,69.74482 210.07232,73.17942 C206.63752,76.61462 202.30332,78.60262 197.82792,79.14702" id="Fill-45" fill="#FEFFFF"></path>
                <path d="M212.84394,30.81978 L218.42194,36.39778 C219.04594,37.02258 219.04654,38.04058 218.42274,38.66478 L205.87414,51.21318 C205.56214,51.52518 205.18074,51.68238 204.73994,51.68238 L193.58314,51.68238 C193.14174,51.68238 192.76254,51.52518 192.45034,51.21318 L186.87154,45.63438 C186.24754,45.01038 186.24754,43.99238 186.87154,43.36838 L199.42014,30.81898 C199.73214,30.50778 200.11154,30.34958 200.55314,30.3505753 L211.70974,30.3505753 C212.15214,30.35158 212.53174,30.50778 212.84394,30.81978" id="Fill-47" fill="#FF5363"></path>
                <path d="M246.15606,64.13198 L240.57806,58.55398 C239.95326,57.92918 238.93526,57.92918 238.31026,58.55318 L225.76266,71.10178 C225.45066,71.41318 225.29346,71.79438 225.29346,72.23598 L225.29346,83.39258 C225.29346,83.83378 225.45066,84.21338 225.76266,84.52538 L231.34046,90.10338 C231.96466,90.72738 232.98346,90.72818 233.60766,90.10418 L246.15606,77.55478 C246.46826,77.24378 246.62626,76.86338 246.625463,76.42198 L246.625463,65.26518 C246.62446,64.82358 246.46726,64.44398 246.15606,64.13198" id="Fill-49" fill="#E64859"></path>
                <path d="M246.15606,64.13198 L240.57706,58.55398 C239.95326,57.92918 238.93526,57.92918 238.31106,58.55318 L225.76266,71.10178 C225.45066,71.41378 225.29346,71.79438 225.29346,72.23598 L225.29346,75.44118 C226.25206,75.69838 227.27526,75.71678 228.28826,75.47398 C234.76146,73.92178 240.93166,71.43758 246.62546,68.12638 L246.62446,65.26518 C246.62446,64.82358 246.46826,64.44398 246.15606,64.13198" id="Fill-51" fill="#C02A3E"></path>
                <path d="M203.98416,58.71568 C205.77336,51.25788 209.59156,44.46348 215.01756,39.03748 C223.56696,30.48928 235.31376,26.11028 247.37196,26.96228 C248.79136,27.06308 249.91176,28.18348 250.01276,29.60308 C250.86476,41.66128 246.48576,53.40828 237.93756,61.95748 C232.51176,67.38328 225.71696,71.20168 218.25916,72.99068 C217.76296,73.10908 217.28036,72.97288 216.91936,72.61288 L204.36216,60.05588 C204.00216,59.69468 203.86576,59.21208 203.98416,58.71568" id="Fill-53" fill="#585973"></path>
                <path d="M205.2584,49.58814 C208.032,38.02714 213.9514,27.49354 222.3626,19.08194 C235.6146,5.82994 253.826,-0.95766 272.518,0.36294 C273.8084,0.45414 274.9396,1.08894 275.6864,2.04294 L215.9542,61.77414 L205.8444,51.66474 C205.2856,51.10574 205.0742,50.35654 205.2584,49.58814" id="Fill-55" fill="#DBE2E7"></path>
                <path d="M275.33204,1.64302 C276.06104,2.37182 276.53544,3.35702 276.61224,4.45702 C277.93304,23.14902 271.14484,41.36022 257.89304,54.61322 C249.48164,63.02362 238.94804,68.94322 227.38664,71.71642 C226.61844,71.90082 225.86924,71.68922 225.31044,71.13062 L215.57744,61.39762 L275.33204,1.64302 Z" id="Fill-57" fill="#A7A3B1"></path>
                <path d="M220.4004,56.57554 L275.1614,1.81394 C274.2184,17.44534 267.6308,32.24014 256.398,43.47334 C247.9876,51.88474 237.4548,57.80654 225.8936,60.57834 C225.1252,60.76254 224.3744,60.55054 223.8172,59.99334 L220.4004,56.57554 Z" id="Fill-59" fill="#BEBCC7"></path>
                <path d="M223.00528,68.82494 L215.57828,61.39754 L229.16768,47.80834 L229.88188,48.52274 C230.19568,48.83554 230.35068,49.21354 230.35128,49.65554 L230.352282,60.81254 C230.35288,61.25474 230.19488,61.63434 229.88288,61.94634 L223.00528,68.82494 Z" id="Fill-61" fill="#A7A3B1"></path>
                <g id="Group-65" transform="translate(250.600000, 0.128000)">
                    <mask id="mask-10" fill="white">
                        <use xlink:href="#path-9"></use>
                    </mask>
                    <g id="Clip-64"></g>
                    <path d="M0.04082,2.4281 C7.06642,0.4739 14.45362,-0.2929 21.91802,0.2349 C24.11902,0.3905 25.85642,2.1281 26.01222,4.3289 C26.53982,11.7933 25.77302,19.1807 23.81902,26.2061 L0.04082,2.4281 Z" id="Fill-63" fill="#E64859" mask="url(#mask-10)"></path>
                </g>
                <path d="M253.92812,23.04672 C258.60832,27.72672 258.60832,35.31372 253.92812,39.99372 C249.24812,44.67392 241.66112,44.67392 236.98112,39.99372 C232.30092,35.31372 232.30092,27.72672 236.98112,23.04672 C241.66112,18.36672 249.24812,18.36672 253.92812,23.04672" id="Fill-66" fill="#BEBCC7"></path>
                <path d="M208.39102,67.15396 L209.82182,68.58476 C210.42722,69.19016 211.41662,69.18916 212.02182,68.58476 L229.88282,50.72376 C230.48742,50.11816 230.48822,49.12816 229.88282,48.52356 L228.45222,47.09216 C227.84662,46.48756 226.85662,46.48756 226.25222,47.09296 L208.39102,64.95396 C207.78602,65.55836 207.78602,66.54876 208.39102,67.15396" id="Fill-68" fill="#FF5363"></path>
                <path d="M252.11192,26.97612 C255.78832,30.65252 255.78832,36.61252 252.11192,40.28972 C248.43552,43.96612 242.47452,43.96612 238.79832,40.28972 C235.12112,36.61252 235.12112,30.65252 238.79832,26.97612 C242.47452,23.29872 248.43552,23.29872 252.11192,26.97612" id="Fill-70" fill="#A7A3A8"></path>
                <path d="M252.11192,24.86304 C255.78832,28.54024 255.78832,34.50044 252.11192,38.17664 C248.43552,41.85404 242.47452,41.85404 238.79832,38.17664 C235.12112,34.50044 235.12112,28.54024 238.79832,24.86304 C242.47452,21.18664 248.43552,21.18664 252.11192,24.86304" id="Fill-72" fill="#FF5363"></path>
                <path d="M242.12872,25.75756 C245.31132,23.92016 249.38012,25.01096 251.21732,28.19276 C253.05492,31.37516 251.96492,35.44516 248.78232,37.28216 C245.59972,39.11956 241.53092,38.02956 239.69372,34.84696 C237.85532,31.66456 238.94632,27.59496 242.12872,25.75756" id="Fill-74" fill="#4999FF"></path>
                <path d="M242.7959,26.91342 C245.3401,25.44362 248.5927,26.31562 250.0625,28.86062 C251.5313,31.40502 247.3383,28.90382 244.7929,30.37262 C242.2489,31.84202 242.3179,36.72402 240.8487,34.18002 C239.3799,31.63502 240.2517,28.38222 242.7959,26.91342" id="Fill-76" fill="#FEFFFF"></path>
                <path d="M208.82558,43.66752 C212.04058,34.96952 217.11298,27.05032 223.72138,20.44192 C232.01518,12.14852 242.25058,6.38632 253.33138,3.55972 C242.84918,8.20772 232.92438,15.01152 224.30318,23.63192 C218.23658,29.69752 213.02058,36.46212 208.82558,43.66752" id="Fill-78" fill="#FEFFFF"></path>
                <path d="M175.1996,101.77436 C175.926,95.80416 178.012,89.96736 181.4584,84.76556 C180.1108,88.73456 179.4682,93.02296 179.5102,97.46476 C183.952,97.50616 188.2404,96.86336 192.2084,95.51576 C187.0076,98.96296 181.171,101.04896 175.1996,101.77436" id="Fill-80" fill="#FECA56"></path>
                <path d="M203.7619,26.4771 C204.4289,27.1435 200.4475,32.2047 194.8709,37.7821 C189.2939,43.3591 184.2327,47.3397 183.5655,46.6737 C182.8993,46.0063 186.8799,40.9451 192.4571,35.3681 C198.0343,29.7915 203.0955,25.8101 203.7619,26.4771" id="Fill-82" fill="#FF7C88"></path>
                <path d="M250.49882,73.21304 C251.16482,73.87944 247.18442,78.94064 241.60722,84.51804 C236.02982,90.09504 230.96862,94.07604 230.30222,93.40964 C229.63522,92.74224 233.61682,87.68104 239.19322,82.10484 C244.77022,76.52764 249.83162,72.54604 250.49882,73.21304" id="Fill-84" fill="#E64859"></path>
                <path d="M227.13086,49.84506 C227.79686,50.51226 223.81626,55.57366 218.23906,61.15006 C212.66186,66.72706 207.60066,70.70846 206.93426,70.04166 C206.26746,69.37526 210.24886,64.31386 215.82586,58.73686 C221.40226,53.15966 226.46346,49.17886 227.13086,49.84506" id="Fill-86" fill="#FF7C88"></path>
                <path d="M183.68554,52.2313 L152.26894,96.3333 C152.26894,96.3333 164.32434,72.7211 183.68554,52.2313" id="Fill-88" fill="#327DC8"></path>
            </g>
        </g>
    </g>
</svg>