<?xml version="1.0" encoding="UTF-8"?>
<svg width="180px" height="153px" viewBox="0 0 180 153" version="1.1" xmlns="http://www.w3.org/2000/svg" xmlns:xlink="http://www.w3.org/1999/xlink">
    <!-- Generator: Sketch 57.1 (83088) - https://sketch.com -->
    <title>coming-soon</title>
    <desc>Created with Sketch.</desc>
    <defs>
        <linearGradient x1="2.9301528%" y1="0.221706081%" x2="97.2794902%" y2="100%" id="linearGradient-1">
            <stop stop-color="#B7222C" offset="0%"></stop>
            <stop stop-color="#D81F26" offset="100%"></stop>
        </linearGradient>
        <linearGradient x1="0.221706081%" y1="36.6684377%" x2="100%" y2="63.3909394%" id="linearGradient-2">
            <stop stop-color="#B7222C" offset="0%"></stop>
            <stop stop-color="#D81F26" offset="100%"></stop>
        </linearGradient>
        <linearGradient x1="0%" y1="0%" x2="100%" y2="100%" id="linearGradient-3">
            <stop stop-color="#B7222C" offset="0%"></stop>
            <stop stop-color="#D81F26" offset="100%"></stop>
        </linearGradient>
        <linearGradient x1="0%" y1="49.8046875%" x2="100%" y2="50.1953125%" id="linearGradient-4">
            <stop stop-color="#B7222C" offset="0%"></stop>
            <stop stop-color="#D81F26" offset="100%"></stop>
        </linearGradient>
        <linearGradient x1="49.7777778%" y1="0%" x2="50.2222222%" y2="100%" id="linearGradient-5">
            <stop stop-color="#B7222C" offset="0%"></stop>
            <stop stop-color="#D81F26" offset="100%"></stop>
        </linearGradient>
        <linearGradient x1="0%" y1="49.8046875%" x2="100%" y2="50.1953125%" id="linearGradient-6">
            <stop stop-color="#B7222C" offset="0%"></stop>
            <stop stop-color="#D81F26" offset="100%"></stop>
        </linearGradient>
        <linearGradient x1="49.7777778%" y1="0%" x2="50.2222222%" y2="100%" id="linearGradient-7">
            <stop stop-color="#B7222C" offset="0%"></stop>
            <stop stop-color="#D81F26" offset="100%"></stop>
        </linearGradient>
    </defs>
    <g id="Page-2" stroke="none" stroke-width="1" fill="none" fill-rule="evenodd">
        <g id="RCS-BOT-Directory---Coming-Soon" transform="translate(-632.000000, -302.000000)">
            <g id="Group-4" transform="translate(420.000000, 225.000000)">
                <g id="coming-soon" transform="translate(209.000000, 80.000000)">
                    <path d="M118.401876,27.3882633 C121.630037,29.4292647 124.675558,31.7500965 127.499302,34.3227106 C130.306739,36.9161978 132.820647,39.8110409 135.09908,42.8722168 C139.591371,49.0441423 142.90759,56.0738232 144.705941,63.4870481 C145.675238,67.1789841 146.13249,70.9889838 146.345787,74.7989834 C146.585176,78.6168105 146.351006,82.4568153 145.811565,86.2309393 C144.710507,93.7837532 142.119629,101.105006 138.223528,107.670912 C134.335254,114.239427 129.15415,120.047377 123.069631,124.664254 C116.989678,129.287654 110.010223,132.710848 102.636787,134.664443 C95.2705271,136.626518 87.4920224,137.117689 79.9163785,136.160786 C72.3433437,135.207145 64.9744743,132.756508 58.3387738,128.983036 C51.6998118,125.218044 45.7992371,120.143915 41.072124,114.14615 C36.338488,108.152298 32.7867934,101.238724 30.6929569,93.9050783 C28.5906407,86.5786075 27.9461826,78.8183667 28.7556689,71.2185883 C29.5625461,63.6253326 31.874246,56.2094986 35.5237834,49.5033513 C39.1654934,42.7939425 44.1332999,36.8007432 50.0449635,31.9627416 C55.9520611,27.1188694 62.8004067,23.4380222 70.0942632,21.2039444 C73.7405393,20.085927 77.4950947,19.3168824 81.2946578,18.9307294 L84.151016,18.7096046 L85.0394289,18.676338 L85.2931679,18.6698152 L86.3087765,18.644376 L86.3850939,22.7309447 C91.3405069,19.1668567 97.2254268,16.3333284 103.842863,14.4912742 C98.9559403,9.68849594 92.9275176,5.40558927 86.0035069,2.14285714 L86.0785197,6.22877359 L84.8528752,6.26008329 L84.546301,6.26791072 L83.4745959,6.31030928 L80.0220487,6.57839862 C75.426045,7.04608733 70.8737444,7.97624647 66.4538578,9.33104348 C57.6095186,12.0399852 49.3157083,16.5009658 42.1738342,22.3578374 C35.0260896,28.2081862 29.023106,35.4498599 24.6123514,43.5747283 C20.1924647,51.6930737 17.3863325,60.697223 16.4098611,69.8853167 C15.4301282,79.0642784 16.2050434,88.4278369 18.7541752,97.3224021 C21.2928704,106.214358 25.5986071,114.590356 31.3224124,121.837249 C37.0403472,129.090663 44.1698279,135.2228 52.2085945,139.782275 C60.240186,144.350883 69.1856295,147.326609 78.3535024,148.480503 C87.5135478,149.637005 96.8849338,149.044077 105.829073,146.665192 C114.769298,144.296091 123.226832,140.145598 130.578742,134.554859 C137.937827,128.970643 144.198463,121.954008 148.90666,114.001995 C153.622684,106.055853 156.768005,97.1697673 158.09932,88.0227676 C158.754867,83.4495939 159.026218,78.8203236 158.749649,74.2119265 C158.499171,69.6093999 157.927117,64.9983936 156.764744,60.5198013 C154.58024,51.5339161 150.564118,43.0105013 145.126666,35.5477028 C142.375978,31.8401119 139.329152,28.3464707 135.935311,25.2109343 C132.525814,22.0949664 128.841053,19.2881818 124.929949,16.8251517 L118.401876,27.3882633 Z" id="Fill-1" fill="url(#linearGradient-1)"></path>
                    <path d="M61.7279033,67.4254778 C61.5878471,68.9088 61.040363,70.0658375 60.0854346,70.8966253 C59.1305062,71.727413 57.8604704,72.1428006 56.2752892,72.1428006 C55.1675723,72.1428006 54.1919684,71.8801993 53.3484482,71.3549886 C52.5049281,70.829778 51.853995,70.0833535 51.3956294,69.1156927 C50.9372637,68.1480319 50.6985352,67.0244163 50.6794367,65.7448122 L50.6794367,64.446116 C50.6794367,63.134681 50.9117991,61.9792349 51.3765309,60.9797432 C51.8412627,59.9802514 52.5081111,59.2099541 53.377096,58.668828 C54.2460808,58.1277019 55.2503322,57.8571429 56.3898801,57.8571429 C57.9241317,57.8571429 59.159154,58.274122 60.0949838,59.1080928 C61.0308137,59.9420637 61.5751147,61.119791 61.7279033,62.6413103 L59.3214957,62.6413103 C59.2069043,61.6418186 58.9156555,60.9208584 58.4477405,60.4784083 C57.9798256,60.0359581 57.293879,59.8147363 56.3898801,59.8147363 C55.3394588,59.8147363 54.5325564,60.1982935 53.9691486,60.9654193 C53.4057409,61.7325452 53.1176751,62.8577523 53.1049427,64.3410744 L53.1049427,65.5729259 C53.1049427,67.0753467 53.3739102,68.2212436 53.9118532,69.0106511 C54.4497962,69.8000586 55.2376003,70.1947564 56.2752892,70.1947564 C57.2238515,70.1947564 57.936854,69.9814922 58.4143182,69.5549576 C58.8917824,69.1284229 59.1941719,68.4186034 59.3214957,67.4254778 L61.7279033,67.4254778 Z M74.9822435,65.3628427 C74.9822435,66.7252073 74.746698,67.9204414 74.2756,68.948581 C73.804502,69.9767206 73.1312875,70.7661163 72.2559365,71.3167917 C71.3805854,71.8674671 70.3731511,72.1428006 69.2336031,72.1428006 C68.1067876,72.1428006 67.1025363,71.8674671 66.220819,71.3167917 C65.3391018,70.7661163 64.6579297,69.9814952 64.1772824,68.9629049 C63.6966351,67.9443146 63.453132,66.7697702 63.4467658,65.4392366 L63.4467658,64.6561992 C63.4467658,63.3002009 63.6870859,62.1033752 64.1677332,61.0656863 C64.6483805,60.0279974 65.3263695,59.2338272 66.2017206,58.6831518 C67.0770716,58.1324764 68.0813229,57.8571429 69.2145047,57.8571429 C70.3476864,57.8571429 71.3519377,58.1292934 72.2272888,58.6736026 C73.1026398,59.2179118 73.7790373,60.0009413 74.2565015,61.0227148 C74.7339657,62.0444882 74.9758773,63.2333562 74.9822435,64.5893546 L74.9822435,65.3628427 Z M72.5662867,64.6371008 C72.5662867,63.0964829 72.2750379,61.9155725 71.6925315,61.094334 C71.1100252,60.2730956 70.2840245,59.8624825 69.2145047,59.8624825 C68.1704496,59.8624825 67.353998,60.2715041 66.7651255,61.0895594 C66.176253,61.9076148 65.875455,63.0646523 65.8627227,64.5607069 L65.8627227,65.3628427 C65.8627227,66.8907282 66.1603376,68.0716386 66.7555763,68.9056095 C67.350815,69.7395803 68.1768157,70.1565594 69.2336031,70.1565594 C70.303123,70.1565594 71.1259406,69.7491294 71.7020808,68.9342572 C72.2782209,68.1193849 72.5662867,66.9289253 72.5662867,65.3628427 L72.5662867,64.6371008 Z M80.5208007,58.0481276 L84.53148,68.7050755 L88.5326101,58.0481276 L91.6552104,58.0481276 L91.6552104,71.9518159 L89.2488028,71.9518159 L89.2488028,67.3681824 L89.4875337,61.2375726 L85.381362,71.9518159 L83.6529502,71.9518159 L79.5563278,61.2471218 L79.7950587,67.3681824 L79.7950587,71.9518159 L77.3886511,71.9518159 L77.3886511,58.0481276 L80.5208007,58.0481276 Z M97.0600783,71.9518159 L94.6536707,71.9518159 L94.6536707,58.0481276 L97.0600783,58.0481276 L97.0600783,71.9518159 Z M111.059259,71.9518159 L108.643302,71.9518159 L102.445848,62.0874546 L102.445848,71.9518159 L100.029891,71.9518159 L100.029891,58.0481276 L102.445848,58.0481276 L108.662401,67.9506858 L108.662401,58.0481276 L111.059259,58.0481276 L111.059259,71.9518159 Z M124.571429,70.1470102 C124.0685,70.8027277 123.371412,71.2992831 122.480146,71.6366911 C121.588879,71.9740991 120.57667,72.1428006 119.443489,72.1428006 C118.278476,72.1428006 117.247169,71.8786077 116.349536,71.350214 C115.451903,70.8218203 114.759591,70.0658466 114.272577,69.0822703 C113.785564,68.0986941 113.532511,66.9512056 113.513413,65.6397706 L113.513413,64.5511576 C113.513413,62.4503151 114.016334,60.8094544 115.022192,59.6285262 C116.02805,58.4475981 117.431774,57.8571429 119.233405,57.8571429 C120.780389,57.8571429 122.009046,58.2391085 122.919411,59.0030512 C123.829776,59.766994 124.37726,60.8683282 124.561879,62.3070871 L122.193669,62.3070871 C121.926289,60.6327792 120.955459,59.7956379 119.281152,59.7956379 C118.198899,59.7956379 117.376082,60.1855611 116.812674,60.9654193 C116.249266,61.7452775 115.958017,62.8895829 115.938919,64.3983698 L115.938919,65.4678843 C115.938919,66.9703051 116.255632,68.1368918 116.889068,68.9676795 C117.522504,69.7984672 118.402622,70.2138549 119.529432,70.2138549 C120.764472,70.2138549 121.642993,69.9337467 122.165021,69.3735221 L122.165021,66.6519897 L119.30025,66.6519897 L119.30025,64.8185363 L124.571429,64.8185363 L124.571429,70.1470102 Z M61.9394556,90.7880522 C61.9394556,89.8948268 61.6254358,89.2063092 60.9973867,88.7224788 C60.3693376,88.2386484 59.2365401,87.7501732 57.5989603,87.2570383 C55.9613805,86.7639035 54.6587797,86.2149503 53.6911189,85.6101623 C51.8395372,84.4471085 50.9137602,82.930509 50.9137602,81.0603184 C50.9137602,79.4227386 51.5813431,78.0736164 52.9165289,77.0129112 C54.2517148,75.9522061 55.984639,75.4218615 58.1153536,75.4218615 C59.5296271,75.4218615 60.7903586,75.6823817 61.8975859,76.2034298 C63.0048131,76.7244779 63.8747643,77.4664952 64.5074656,78.4295038 C65.1401669,79.3925123 65.4565128,80.4601798 65.4565128,81.632538 L61.9394556,81.632538 C61.9394556,80.5718329 61.6068272,79.7414249 60.9415604,79.1412891 C60.2762936,78.5411534 59.3249298,78.24109 58.0874405,78.24109 C56.9336911,78.24109 56.038153,78.4876537 55.4007995,78.9807885 C54.763446,79.4739234 54.4447741,80.1624409 54.4447741,81.0463618 C54.4447741,81.7907163 54.7890328,82.4117777 55.4775607,82.9095648 C56.1660886,83.4073518 57.3012121,83.891175 58.8829653,84.3610487 C60.4647186,84.8309225 61.7347543,85.3659192 62.6931107,85.966055 C63.6514671,86.5661908 64.3539411,87.2547083 64.8005537,88.0316283 C65.2471664,88.8085483 65.4704694,89.7180428 65.4704694,90.760139 C65.4704694,92.4535454 64.8214951,93.8003416 63.523527,94.8005679 C62.2255589,95.8007942 60.4647218,96.3008998 58.2409628,96.3008998 C56.7708628,96.3008998 55.4194145,96.0287493 54.1865774,95.4844401 C52.9537403,94.9401309 51.9953983,94.1888094 51.3115227,93.230453 C50.627647,92.2720967 50.2857143,91.1555817 50.2857143,89.8808747 L53.8167281,89.8808747 C53.8167281,91.0346241 54.1982041,91.9278361 54.9611674,92.5605374 C55.7241307,93.1932387 56.8173849,93.5095846 58.2409628,93.5095846 C59.4691477,93.5095846 60.3925986,93.2606948 61.0113432,92.7629077 C61.6300879,92.2651207 61.9394556,91.6068421 61.9394556,90.7880522 Z M84.7863711,86.3917306 C84.7863711,88.3828788 84.4421124,90.1297595 83.7535845,91.632425 C83.0650566,93.1350906 82.0811278,94.2888227 80.8017686,95.093656 C79.5224094,95.8984892 78.0500053,96.3008998 76.3845122,96.3008998 C74.7376279,96.3008998 73.269876,95.8984892 71.9812123,95.093656 C70.6925486,94.2888227 69.6969895,93.1420688 68.994505,91.6533599 C68.2920204,90.164651 67.9361313,88.4480092 67.9268269,86.5033832 L67.9268269,85.3589439 C67.9268269,83.3771002 68.2780639,81.6278934 68.9805484,80.1112712 C69.6830329,78.594649 70.6739399,77.4339387 71.9532991,76.6291054 C73.2326584,75.8242721 74.7004103,75.4218615 76.356599,75.4218615 C78.0127877,75.4218615 79.4805396,75.81962 80.7598989,76.6151488 C82.0392581,77.4106777 83.027839,78.5551055 83.7256713,80.0484666 C84.4235037,81.5418278 84.7770667,83.2794041 84.7863711,85.2612479 L84.7863711,86.3917306 Z M81.2553573,85.3310308 C81.2553573,83.0793585 80.829686,81.3534125 79.9783306,80.1531409 C79.1269752,78.9528694 77.9197434,78.3527426 76.356599,78.3527426 C74.8306724,78.3527426 73.637397,78.9505433 72.7767372,80.1461626 C71.9160773,81.341782 71.4764495,83.0328369 71.4578407,85.2193782 L71.4578407,86.3917306 C71.4578407,88.624794 71.8928163,90.35074 72.7627806,91.5696204 C73.6327449,92.7885009 74.8399766,93.3979319 76.3845122,93.3979319 C77.9476565,93.3979319 79.1502362,92.8024573 79.9922872,91.6114902 C80.8343381,90.420523 81.2553573,88.6806206 81.2553573,86.3917306 L81.2553573,85.3310308 Z M104.52097,86.3917306 C104.52097,88.3828788 104.176711,90.1297595 103.488184,91.632425 C102.799656,93.1350906 101.815727,94.2888227 100.536368,95.093656 C99.2570084,95.8984892 97.7846043,96.3008998 96.1191112,96.3008998 C94.4722269,96.3008998 93.004475,95.8984892 91.7158113,95.093656 C90.4271477,94.2888227 89.4315885,93.1420688 88.729104,91.6533599 C88.0266195,90.164651 87.6707303,88.4480092 87.6614259,86.5033832 L87.6614259,85.3589439 C87.6614259,83.3771002 88.0126629,81.6278934 88.7151474,80.1112712 C89.4176319,78.594649 90.4085389,77.4339387 91.6878982,76.6291054 C92.9672574,75.8242721 94.4350094,75.4218615 96.091198,75.4218615 C97.7473867,75.4218615 99.2151387,75.81962 100.494498,76.6151488 C101.773857,77.4106777 102.762438,78.5551055 103.46027,80.0484666 C104.158103,81.5418278 104.511666,83.2794041 104.52097,85.2612479 L104.52097,86.3917306 Z M100.989956,85.3310308 C100.989956,83.0793585 100.564285,81.3534125 99.7129296,80.1531409 C98.8615742,78.9528694 97.6543424,78.3527426 96.091198,78.3527426 C94.5652714,78.3527426 93.371996,78.9505433 92.5113362,80.1461626 C91.6506763,81.341782 91.2110486,83.0328369 91.1924397,85.2193782 L91.1924397,86.3917306 C91.1924397,88.624794 91.6274153,90.35074 92.4973796,91.5696204 C93.3673439,92.7885009 94.5745757,93.3979319 96.1191112,93.3979319 C97.6822556,93.3979319 98.8848352,92.8024573 99.7268862,91.6114902 C100.568937,90.420523 100.989956,88.6806206 100.989956,86.3917306 L100.989956,85.3310308 Z M124.157873,96.0217683 L120.626859,96.0217683 L111.569041,81.6046249 L111.569041,96.0217683 L108.038027,96.0217683 L108.038027,75.7009931 L111.569041,75.7009931 L120.654772,90.1739628 L120.654772,75.7009931 L124.157873,75.7009931 L124.157873,96.0217683 Z" id="COMINGSOON" fill="url(#linearGradient-2)"></path>
                    <circle id="Oval" stroke="url(#linearGradient-3)" stroke-width="4" cx="21.7142857" cy="22.8571429" r="5"></circle>
                    <circle id="Oval-Copy" stroke="url(#linearGradient-3)" stroke-width="4" cx="173.857143" cy="62.1428571" r="7.14285714"></circle>
                    <g id="Group" transform="translate(153.142857, 25.000000)" stroke-linecap="round" stroke-width="4">
                        <path d="M0.357142857,5.35714286 L11.0714286,5.35714286" id="Line-3" stroke="url(#linearGradient-4)"></path>
                        <path d="M5.71428571,0 L5.71428571,10.7142857" id="Line-3" stroke="url(#linearGradient-5)"></path>
                    </g>
                    <g id="Group-Copy-2" transform="translate(39.571429, 2.857143)" stroke-linecap="round" stroke-width="3">
                        <path d="M0.223214286,3.34821429 L6.91964286,3.34821429" id="Line-3" stroke="url(#linearGradient-6)"></path>
                        <path d="M3.57142857,0 L3.57142857,6.69642857" id="Line-3" stroke="url(#linearGradient-7)"></path>
                    </g>
                    <g id="Group-Copy" transform="translate(8.958158, 114.945903) rotate(-315.000000) translate(-8.958158, -114.945903) translate(2.958158, 109.445903)" stroke-linecap="round" stroke-width="4">
                        <path d="M0.357142857,5.35714286 L11.0714286,5.35714286" id="Line-3" stroke="url(#linearGradient-4)"></path>
                        <path d="M5.71428571,0 L5.71428571,10.7142857" id="Line-3" stroke="url(#linearGradient-5)"></path>
                    </g>
                    <polygon id="Rectangle" stroke="url(#linearGradient-3)" stroke-width="4" transform="translate(146.714286, 4.285714) rotate(-315.000000) translate(-146.714286, -4.285714) " points="143.857143 1.42857143 149.571429 1.42857143 149.571429 7.14285714 143.857143 7.14285714"></polygon>
                </g>
            </g>
        </g>
    </g>
</svg>