<?xml version="1.0" encoding="UTF-8"?>
<svg width="112px" height="50px" viewBox="0 0 112 50" version="1.1" xmlns="http://www.w3.org/2000/svg" xmlns:xlink="http://www.w3.org/1999/xlink">
    <!-- Generator: Sketch 57.1 (83088) - https://sketch.com -->
    <title>dotgo-logo-white</title>
    <desc>Created with Sketch.</desc>
    <g id="Version-4---New-Theme" stroke="none" stroke-width="1" fill="none" fill-rule="evenodd">
        <g id="Signup---As-Aggregator" transform="translate(-100.000000, -15.000000)" fill="#FFFFFF">
            <path d="M193.011879,46.0663883 C193.857303,46.0526607 194.449414,46.6836734 194.520125,46.7626036 L194.527236,46.7706739 L193.244022,48.0185309 L193.088665,47.9617452 L192.617237,48.5053165 C192.793308,50.197102 192.630451,51.324959 192.630451,51.324959 C192.384379,53.6296015 191.750094,55.7731726 191.750094,55.7731726 C191.298665,57.3378153 190.784022,58.9663865 190.784022,58.9663865 C190.445292,59.9498784 190.162717,60.7716772 190.104105,60.9421573 L190.092951,60.9746004 C189.671765,62.2395365 188.975278,64.8079185 188.926066,64.9897609 L188.923308,64.999957 L187.090452,64.6756713 C187.090452,63.8585286 187.315809,62.1521003 187.315809,62.1521003 C187.512594,60.5028148 187.767237,58.9799579 187.767237,58.9799579 C188.122237,56.7699582 188.64897,54.522003 188.717624,54.2320978 L188.725094,54.2006729 C189.148666,52.4381731 189.72688,50.464602 189.72688,50.464602 C190.163665,48.9138879 191.136522,47.3349596 191.136522,47.3349596 C191.989022,45.9956741 193.011879,46.0663883 193.011879,46.0663883 Z M155.885313,36.2591755 C157.989661,36.2591755 159.85874,37.148295 161.092479,38.5505303 L161.256741,38.7448894 L161.256741,36.6020326 L165.113883,36.6020326 L165.113883,52.8881016 C165.113883,56.0131012 163.781741,58.7559579 161.221027,60.2345291 C159.946027,60.977029 158.360313,61.4023861 156.485313,61.4023861 C154.481742,61.4023861 152.824599,60.9702433 151.4746,60.2345291 C150.001267,59.4311959 148.885711,58.2638627 148.081474,56.8977503 L147.913886,56.6020297 L151.342457,54.5166728 C152.571028,56.7738153 153.885314,57.8595295 156.542456,57.8595295 C159.377977,57.8595295 161.185678,55.6953599 161.28132,53.2361764 L161.285312,53.0306016 L161.285312,51.0881019 C160.056741,52.6877445 158.085313,53.6595301 155.82817,53.6595301 C151.7996,53.6595301 147.5996,50.4595305 147.5996,44.9738171 C147.5996,39.4309607 151.656742,36.2591755 155.885313,36.2591755 Z M127.828675,36.2580683 C132.628674,36.2580683 136.485816,40.0862821 136.485816,44.9723528 C136.485816,49.7723521 132.628674,53.6580658 127.828675,53.6580658 C122.999747,53.6580658 119.171176,49.7723521 119.171176,44.9723528 C119.171176,40.0862821 122.999747,36.2580683 127.828675,36.2580683 Z M175.485096,36.2580683 C180.285453,36.2580683 184.142595,40.0862821 184.142595,44.9723528 C184.142595,49.7723521 180.285453,53.6580658 175.485096,53.6580658 C170.656525,53.6580658 166.827955,49.7723521 166.827955,44.9723528 C166.827955,40.0862821 170.656525,36.2580683 175.485096,36.2580683 Z M117.51464,32.1719261 L117.51464,53.3154944 L113.657498,53.3154944 L113.657498,51.143709 C112.428927,52.7154945 110.428927,53.6579944 108.228927,53.6579944 C104.199999,53.6579944 100,50.458352 100,44.9722813 C100,39.429425 104.057499,36.2579969 108.28607,36.2579969 C110.457498,36.2579969 112.400355,37.1147825 113.628927,38.5719251 L113.628927,32.1719261 L117.51464,32.1719261 Z M143.456994,31.4003905 L143.456994,36.6007469 L146.857493,36.6007469 L146.857493,40.0578892 L143.457137,40.0578892 L143.457137,46.3150312 C143.457137,49.2293164 143.885708,49.6868164 146.857493,49.6868164 L146.857493,53.3153873 L146.314279,53.3153873 C141.142851,53.3153873 139.571423,51.6582447 139.571423,46.3436026 L139.571423,40.0578892 L136.713923,40.0578892 L136.713923,36.6007469 L139.57128,36.6007469 L139.57128,34.0578901 L143.456994,31.4003905 Z M108.857499,39.7722821 C106.000356,39.7722821 103.799999,42.0294246 103.799999,44.9151385 C103.799999,47.8294238 106.000356,50.1154949 108.857499,50.1154949 C111.743213,50.1154949 113.857498,47.8008524 113.857498,44.9151385 C113.857498,42.0579961 111.743213,39.7722821 108.857499,39.7722821 Z M127.828675,39.8866392 C125.057246,39.8866392 122.971175,42.1437818 122.971175,44.9723528 C122.971175,47.7437809 125.057246,50.0294949 127.828675,50.0294949 C130.571531,50.0294949 132.685817,47.7437809 132.685817,44.9723528 C132.685817,42.1437818 130.571531,39.8866392 127.828675,39.8866392 Z M175.485096,39.8866392 C172.714025,39.8866392 170.627954,42.1437818 170.627954,44.9723528 C170.627954,47.7437809 172.714025,50.0294949 175.485096,50.0294949 C178.22831,50.0294949 180.342595,47.7437809 180.342595,44.9723528 C180.342595,42.1437818 178.22831,39.8866392 175.485096,39.8866392 Z M156.456742,40.202032 C153.860314,40.202032 151.828171,42.2698889 151.828171,44.9166742 C151.828171,47.5916738 153.860314,49.6881021 156.456742,49.6881021 C159.063884,49.6881021 161.02817,47.634531 161.02817,44.9166742 C161.02817,42.2270317 159.063884,40.202032 156.456742,40.202032 Z M202.598806,41.4414247 C205.643806,41.9353532 207.194163,42.6678531 207.194163,42.6678531 C209.300234,43.5096387 210.338805,44.5996385 210.338805,44.5996385 C211.467019,45.6003527 211.579162,46.9260668 211.579162,46.9260668 C211.727287,47.5923167 211.411389,48.3334884 211.3301,48.5083712 L211.311662,48.5467808 C210.643805,49.7596378 209.224877,49.5903521 209.224877,49.5903521 C207.687734,49.3789236 206.348806,48.6464237 206.348806,48.6464237 C204.487735,47.6449952 202.598806,46.2210669 202.598806,46.2210669 C201.198526,45.2151104 199.57475,43.7890624 199.460552,43.6884849 L199.454164,43.682853 L198.749878,44.0071386 L198.679164,42.9924959 L198.467736,42.8232102 L198.749878,42.4989246 L198.453807,41.4839247 C199.09495,41.3569009 199.663685,41.3140009 199.921418,41.3001537 L199.978036,41.297 L199.975593,41.2939247 C201.357378,41.2439247 202.598806,41.4414247 202.598806,41.4414247 Z M201.799036,43.239 L201.914422,43.325074 C202.460847,43.735916 202.598806,43.8735672 202.598806,43.8735672 C203.923806,44.9546385 206.442734,46.4796383 206.442734,46.4796383 C207.645591,47.2124953 208.604163,47.546781 208.604163,47.546781 C209.407734,47.8917809 209.619163,47.6521381 209.619163,47.6521381 C209.694877,47.4378524 209.694877,47.1564239 209.694877,47.1564239 C209.694877,46.376424 208.597377,45.593567 208.597377,45.593567 C207.619877,44.7853528 205.939877,44.2264243 205.939877,44.2264243 C204.347497,43.6677815 202.645256,43.3674641 201.85063,43.2470205 L201.799036,43.239 Z M200.067735,41.2939247 C200.067735,41.2939247 200.03815,41.2945962 199.983818,41.2970562 L199.978036,41.297 L201.392735,43.1832102 C201.392735,43.1832102 201.52208,43.1985324 201.747993,43.231704 L201.799036,43.239 L201.780949,43.225353 L202.081307,42.5221388 L200.067735,41.2939247 Z M207.511627,15 L209.252698,15.6699999 C208.928413,17.4457139 208.449127,19.3210708 208.449127,19.3210708 C208.132341,20.7660706 207.462699,22.5635703 207.462699,22.5635703 C206.722342,24.6153557 205.657342,25.9753555 205.657342,25.9753555 C204.97436,26.9667483 204.176954,27.0669223 204.09892,27.0744613 L204.092699,27.0749982 L203.500556,25.4117842 C204.036271,25.1582128 204.452342,24.3892843 204.452342,24.3892843 C204.988413,23.4449988 205.241985,22.9089274 205.241985,22.9089274 C205.624978,22.0565466 206.116167,20.6094137 206.162078,20.4735243 L206.165556,20.4632135 L204.966628,22.3099989 C204.332699,23.3603559 203.021628,25.5878556 203.021628,25.5878556 C202.260199,26.8921411 201.329842,29.0496408 201.329842,29.0496408 C200.638771,30.585712 200.469485,32.2639261 200.469485,32.2639261 C200.429822,33.0864469 201.064008,33.1724776 201.138756,33.1797527 L201.145914,33.1803545 L200.723057,35.0410685 C199.4127,34.5757114 199.003771,33.7860687 199.003771,33.7860687 C198.722414,33.4078307 198.632054,32.563099 198.61296,32.3445615 L198.608771,32.2921403 C198.594843,31.4742833 198.834843,30.5574977 198.834843,30.5574977 C199.398414,28.4992837 200.088771,27.2028554 200.088771,27.2028554 C200.920914,25.4403556 201.978057,23.6639273 201.978057,23.6639273 C202.950556,21.9864276 204.022342,20.3364278 204.022342,20.3364278 C204.882342,18.891428 206.179127,17.0371426 206.179127,17.0371426 C206.73627,16.170357 207.511627,15 207.511627,15 Z M175.04981,20.4539992 C177.305882,22.1168561 179.27981,23.2404274 179.27981,23.2404274 C180.206501,23.8338295 181.100027,24.3980687 181.27787,24.5102808 L181.30981,24.5304272 C183.128381,25.7782841 184.299095,26.8639983 184.299095,26.8639983 C185.624095,27.9489981 186.625166,29.6414979 186.625166,29.6414979 C187.87838,31.6787476 187.808021,33.4723743 187.801937,33.5896858 L187.801594,33.595783 L185.934095,33.6686401 C185.86465,31.6845134 184.811716,30.2643931 184.656107,30.0648918 L184.636952,30.0407835 C183.584452,28.5182837 181.159095,26.7700697 181.159095,26.7700697 C179.39231,25.4539992 176.966953,24.1007844 176.966953,24.1007844 C178.106523,28.2705971 180.197061,29.1376013 180.291497,29.1748567 L180.29481,29.1761408 L179.626953,30.9150691 C176.093382,29.2511408 175.106953,24.3543558 175.106953,24.3543558 C174.654811,22.3897132 175.04981,20.4539992 175.04981,20.4539992 Z M192.278506,17.535681 L192.360036,17.603 L192.945486,17.258214 L195.229772,20.7828563 C195.229772,20.7828563 196.329415,22.4560703 196.310486,24.2317844 C196.310486,24.2317844 196.470129,26.083927 195.426915,27.597141 C195.426915,27.597141 194.759772,28.6682123 193.988701,29.3360693 C193.988701,29.3360693 193.159772,30.1349978 192.158701,30.1349978 C192.158701,30.1349978 191.221201,30.2053549 190.38013,29.2042836 C190.38013,29.2042836 189.618344,28.4057123 189.162987,26.6239269 C189.162987,26.6239269 188.866916,25.1721414 188.845487,23.8260701 C188.845487,23.8260701 188.791201,22.5492846 188.85763,21.1210705 C188.85763,21.1210705 188.902273,20.0189278 189.289773,18.9971423 C189.289773,18.9971423 189.564416,18.2142852 190.043344,17.678571 L190.074899,17.6479291 C190.188712,17.5417905 190.59991,17.1950467 191.136915,17.1717341 C191.136915,17.1717341 191.775004,17.1590232 192.278506,17.535681 Z M191.241915,19.1728565 C191.111558,19.2021422 191.029772,19.659285 190.988344,19.8289279 C190.910487,20.1464278 190.919772,20.059285 190.840487,20.4771421 C190.762987,20.8860706 190.706915,21.3442848 190.685487,21.914999 L190.685814,22.0165098 C190.687775,22.4071345 190.701507,23.8308661 190.79763,24.6224986 C190.79763,24.6224986 190.981201,27.1389268 192.144772,28.1892838 C192.144772,28.1892838 192.405487,28.3367838 192.750844,27.8717838 C192.750844,27.8717838 194.026915,26.8285697 194.365486,25.2853556 C194.365486,25.2853556 194.520129,24.75607 194.400843,23.9171416 C194.400843,23.9171416 194.196201,22.6271417 193.257986,21.1332134 L192.652272,21.4360705 L192.045487,20.2374992 C192.045487,20.2374992 191.658701,19.5821422 191.425844,19.2299994 C191.425844,19.2299994 191.369415,19.1453565 191.241915,19.1728565 Z M192.360036,17.603 L192.243344,17.6721425 L192.017987,20.1814278 L192.045487,20.2374992 L192.384058,17.6224996 L192.360036,17.603 Z" id="dotgo-logo-white"></path>
        </g>
    </g>
</svg>