<?xml version="1.0" encoding="UTF-8"?>
<svg width="45px" height="30px" viewBox="0 0 45 30" version="1.1" xmlns="http://www.w3.org/2000/svg" xmlns:xlink="http://www.w3.org/1999/xlink">
    <!-- Generator: Sketch 57.1 (83088) - https://sketch.com -->
    <title>Group 31</title>
    <desc>Created with Sketch.</desc>
    <g id="Page-1" stroke="none" stroke-width="1" fill="none" fill-rule="evenodd">
        <g id="Profile---Developer" transform="translate(-605.000000, -945.000000)">
            <g id="Group-31" transform="translate(605.000000, 945.000000)">
                <path d="M22.0956696,29.0834788 C21.5427643,29.27702 20.9700835,29.4246883 20.3771409,29.5326434 C19.7605324,29.6443267 19.1257693,29.6923067 18.499111,29.696197 C16.1158317,29.7140274 13.7309314,29.7182419 11.3476521,29.7000873 C8.51342519,29.6801496 6.03840025,28.7101746 3.93489651,26.8141521 C2.23030798,25.2791147 1.11671696,23.3811471 0.571916459,21.1536409 C0.368163342,20.3154489 0.274472569,19.4631546 0.27809383,18.6008105 C0.282415212,17.4252993 0.28030798,16.249788 0.28030798,15.0760599 L0.286467581,15.0760599 C0.286467581,13.7468828 0.2704202,12.4194888 0.292302993,11.0903117 C0.316455112,9.67117207 0.653612219,8.31395262 1.23845012,7.0205985 C2.17859975,4.93687032 3.6256197,3.29241895 5.56362469,2.0807606 C6.80300125,1.30448878 8.14822569,0.787406484 9.59735287,0.573927681 C10.2079638,0.48201995 10.8307319,0.428204489 11.4494476,0.42415212 C13.6970536,0.406159601 15.9461185,0.417992519 18.1937244,0.416209476 C19.3812307,0.416209476 20.5487993,0.555773067 21.6884875,0.909139651 C21.8262681,0.9509601 21.9619414,0.996995012 22.0956696,1.04286783 C19.4071658,2.54986284 17.1937618,4.80719451 15.7405823,7.53168329 L8.19620574,7.53168329 C8.11029551,7.53168329 8.02633042,7.52763092 7.94074439,7.53168329 C7.45170449,7.56361596 7.04452244,7.76509975 6.71725312,8.13224439 C6.38204115,8.50765586 6.3060187,8.95860349 6.3060187,9.43775561 L6.3060187,19.4970324 C6.3060187,19.5968828 6.32806359,19.6967332 6.3400586,19.8103616 L7.59921072,19.8103616 L7.59921072,9.46758105 C7.59921072,9.38183292 7.59532045,9.29786783 7.60148005,9.2122818 C7.61736534,9.0046384 7.74509601,8.86491272 7.95257731,8.8407606 C8.07058229,8.82698254 8.19020823,8.83087282 8.30788903,8.83087282 C10.5772157,8.82892768 12.8505948,8.82892768 15.1220287,8.82892768 C14.3096097,10.7450499 13.8625524,12.8527681 13.8625524,15.0621197 C13.8625524,16.596995 14.0781384,18.0821072 14.4832132,19.4890898 C13.5991484,19.4890898 12.7128142,19.4890898 11.8287494,19.4869825 C11.609111,19.4869825 11.4413429,19.5529551 11.2719539,19.6849002 C9.7790611,20.8563591 8.28195387,22.0198753 6.78500873,23.1874439 C6.70720324,23.2495262 6.63539526,23.319389 6.54559476,23.4010848 C6.81305112,23.7403491 7.04857481,24.0757232 7.32186658,24.3869451 C7.41588155,24.3212968 7.48169202,24.2793142 7.54150499,24.2334414 C8.93649252,23.1456234 10.3337494,22.0597506 11.7250087,20.9660973 C11.8746222,20.8484165 12.0222905,20.7942768 12.2119414,20.7942768 C13.1141608,20.796384 14.0183254,20.796384 14.9203828,20.796384 C16.2735499,24.3232419 18.8343229,27.2553741 22.0956696,29.0834788" id="Fill-11" fill="#D3D3D3"></path>
                <path d="M15.7407282,7.5315212 C15.5150923,7.95280549 15.3074489,8.38592269 15.1220125,8.82876559 C12.8505786,8.82876559 10.5773616,8.82876559 8.30803491,8.83087282 C8.19019202,8.83087282 8.07056608,8.82682045 7.95272319,8.84092269 C7.7450798,8.86491272 7.61751122,9.0046384 7.60130175,9.2122818 C7.59546633,9.29786783 7.59935661,9.38183292 7.59935661,9.46774314 L7.59935661,19.8103616 L6.34004239,19.8103616 C6.32804738,19.6965711 6.30600249,19.5968828 6.30600249,19.4968703 L6.30600249,9.43759352 C6.30600249,8.95860349 6.38186284,8.50765586 6.71723691,8.13240648 C7.04466833,7.76509975 7.45152618,7.56361596 7.94056608,7.5315212 C8.02647631,7.52779302 8.1104414,7.5315212 8.19618953,7.5315212 L15.7407282,7.5315212 Z" id="Fill-13" fill="#FFFFFF"></path>
                <path d="M14.9204314,20.796384 C14.0183741,20.796384 13.1138853,20.796384 12.2118279,20.7944389 C12.0223392,20.7944389 11.8746708,20.8482544 11.7247332,20.9659352 C10.3336359,22.0595885 8.93670324,23.1456234 7.54155362,24.2334414 C7.48157855,24.2793142 7.41576808,24.3212968 7.32191521,24.3869451 C7.04846135,24.0755611 6.81309975,23.7403491 6.5454813,23.4010848 C6.63544389,23.3192269 6.70725187,23.2495262 6.78505736,23.187606 C8.28200249,22.0198753 9.77878554,20.856197 11.2718404,19.6849002 C11.4415536,19.5531172 11.6091596,19.4869825 11.828798,19.4869825 C12.7128628,19.4890898 13.599197,19.4890898 14.4834239,19.4890898 C14.6090474,19.9340399 14.7567157,20.3692643 14.9204314,20.796384" id="Fill-15" fill="#FFFFFF"></path>
                <path d="M44.7870237,15.0622007 C44.7870237,23.2593329 38.1187693,29.9275873 29.9237444,29.9275873 C27.6302656,29.9275873 25.4567369,29.4048317 23.5148416,28.4747319 C18.5171359,26.0755673 15.0601409,20.9660162 15.0601409,15.0622007 C15.0601409,9.16211347 18.5150287,4.05483167 23.508682,1.65355985 C25.4528466,0.721514963 27.6283204,0.198597257 29.9237444,0.198597257 C38.1187693,0.198597257 44.7870237,6.86701372 44.7870237,15.0622007" id="Fill-17" fill="#B7B7B7"></path>
                <path d="M28.4026309,8.5313217 C30.9251496,8.5313217 33.4476683,8.53067332 35.9703491,8.53148379 C37.5723317,8.53213217 38.7621072,9.72109726 38.7627556,11.3222693 C38.7633446,13.8235536 38.7637282,16.3248379 38.7625935,18.8259601 C38.761783,20.387419 37.5621197,21.593404 36.0064963,21.5942145 C32.3032793,21.5958354 28.6000623,21.5958354 24.8968454,21.5942145 C23.3397631,21.5937282 22.1277805,20.4007107 22.1195137,18.8397382 C22.109788,16.9638155 22.1164339,15.0877307 22.1253491,13.2119701 C22.1264838,12.9675312 22.063591,12.7662095 21.9314838,12.5634289 C21.3150374,11.6171197 20.7084788,10.6641646 20.1009476,9.71169576 C20.0309227,9.60195761 19.9607357,9.4876808 19.9177805,9.36594763 C19.7676808,8.93720698 20.0195761,8.56325436 20.4713342,8.53407731 C20.5718329,8.52743142 20.6731421,8.5313217 20.7739651,8.5313217 C23.3169077,8.5311596 25.8596883,8.5313217 28.4026309,8.5313217" id="Fill-19" fill="#FFFFFF"></path>
                <path d="M28.4026309,9.37860723 C30.9251496,9.37860723 33.4476683,9.37795885 35.9703491,9.37876933 C37.5723317,9.37941771 38.7621072,10.5683828 38.7627556,12.1695549 C38.7633446,14.6708392 38.7637282,17.1721234 38.7625935,19.6732456 C38.761783,21.2347045 37.5621197,22.4408516 36.0064963,22.4415 C32.3032793,22.4431209 28.6000623,22.4431209 24.8968454,22.4415 C23.3397631,22.4410137 22.1277805,21.2481584 22.1195137,19.6870237 C22.109788,17.8112631 22.1164339,15.9350162 22.1253491,14.0592556 C22.1264838,13.8148167 22.063591,13.613495 21.9314838,13.4107145 C21.3150374,12.4644052 20.7084788,11.511288 20.1009476,10.5589813 C20.0309227,10.4492431 19.9607357,10.3348042 19.9177805,10.2132332 C19.7676808,9.78433042 20.0195761,9.4105399 20.4713342,9.38136284 C20.5718329,9.37471696 20.6731421,9.37860723 20.7739651,9.37860723 C23.3169077,9.37844514 25.8596883,9.37860723 28.4026309,9.37860723" id="Fill-21" fill="#5E5E5E"></path>
                <path d="M28.4026309,8.5313217 C30.9251496,8.5313217 33.4476683,8.53067332 35.9703491,8.53148379 C37.5723317,8.53213217 38.7621072,9.72109726 38.7627556,11.3222693 C38.7633446,13.8235536 38.7637282,16.3248379 38.7625935,18.8259601 C38.761783,20.387419 37.5621197,21.593404 36.0064963,21.5942145 C32.3032793,21.5958354 28.6000623,21.5958354 24.8968454,21.5942145 C23.3397631,21.5937282 22.1277805,20.4007107 22.1195137,18.8397382 C22.109788,16.9638155 22.1164339,15.0877307 22.1253491,13.2119701 C22.1264838,12.9675312 22.063591,12.7662095 21.9314838,12.5634289 C21.3150374,11.6171197 20.7084788,10.6641646 20.1009476,9.71169576 C20.0309227,9.60195761 19.9607357,9.4876808 19.9177805,9.36594763 C19.7676808,8.93720698 20.0195761,8.56325436 20.4713342,8.53407731 C20.5718329,8.52743142 20.6731421,8.5313217 20.7739651,8.5313217 C23.3169077,8.5311596 25.8596883,8.5313217 28.4026309,8.5313217" id="Fill-23" fill="#FFFFFF"></path>
                <path d="M30.3491945,15.8437893 C28.7658529,15.8437893 27.1826733,15.8437893 25.5994938,15.8436272 C25.4884589,15.8436272 25.3772618,15.8458965 25.2668753,15.8403853 C24.8117132,15.8178541 24.5011397,15.5069564 24.4967151,15.0727045 C24.4922244,14.6272681 24.8097681,14.3090761 25.2813017,14.2888142 C25.3819626,14.2844377 25.4829476,14.2860586 25.5839327,14.2860586 C28.7605037,14.2858965 31.9370748,14.2858965 35.113808,14.2860586 C35.2245187,14.2860586 35.3357157,14.2836272 35.4462643,14.2899489 C35.895591,14.3155599 36.2060025,14.6384526 36.2016716,15.0722182 C36.1970873,15.5066322 35.8865137,15.8178541 35.4315137,15.8403853 C35.3209651,15.8458965 35.2097681,15.8436272 35.0990574,15.8436272 C33.5155536,15.8437893 31.9325362,15.8437893 30.3491945,15.8437893" id="Fill-25" fill="#D3D3D3"></path>
                <path d="M30.3490486,12.8246122 C28.6841733,12.8246122 27.0189738,12.8210461 25.3542606,12.82754 C24.9817668,12.8288267 24.7044227,12.7046621 24.55951,12.3495125 C24.3666172,11.8761958 24.66552,11.3553853 25.1727145,11.2803354 C25.2620287,11.2672042 25.3542606,11.2699613 25.4448716,11.2699613 C28.7141608,11.2694751 31.9834501,11.271096 35.2530636,11.2672042 C35.5500212,11.2668815 35.813101,11.3187519 36.0134501,11.5580037 C36.2144476,11.7980661 36.256106,12.0634152 36.1377768,12.3491883 C36.020096,12.6330162 35.8153703,12.8116446 35.4952332,12.819101 C35.1825524,12.8263953 34.8697095,12.8247743 34.5570287,12.8249364 C33.1542606,12.8254227 31.7514925,12.8252606 30.3490486,12.8252606 L30.3490486,12.8246122 Z" id="Fill-27" fill="#D3D3D3"></path>
                <path d="M29.0708017,17.3047818 C30.2902406,17.3049439 31.5100037,17.3007294 32.7294426,17.3096446 C32.9043429,17.3112656 33.0975599,17.342712 33.2487943,17.423111 C33.5486696,17.582288 33.6710511,17.914096 33.592111,18.2556297 C33.5160885,18.5843579 33.2970985,18.7738466 32.9724227,18.8427369 C32.8944551,18.8592706 32.8119489,18.8591085 32.731712,18.8591085 C30.2824601,18.859919 27.8330461,18.8587843 25.3839564,18.8613792 C25.1302781,18.861702 24.9069115,18.8051309 24.7260137,18.6159663 C24.4925973,18.3720137 24.4324601,18.0927244 24.5597045,17.7816646 C24.6809514,17.4853554 24.8983204,17.3098067 25.2306147,17.3083479 C25.9260012,17.3055923 26.6215499,17.3052681 27.3169364,17.3046197 C27.9016122,17.3041334 28.4861259,17.3046197 29.0708017,17.3047818" id="Fill-29" fill="#D3D3D3"></path>
            </g>
        </g>
    </g>
</svg>