<svg id="Layer_1" data-name="Layer 1" xmlns="http://www.w3.org/2000/svg" xmlns:xlink="http://www.w3.org/1999/xlink" width="58" height="58" viewBox="0 0 58 58"><defs><style>.cls-1,.cls-2,.cls-5{fill:#fff;}.cls-1,.cls-2{fill-rule:evenodd;}.cls-2{stroke:#a9a9a9;stroke-width:0.8px;stroke-dasharray:1.92 1.92;}.cls-3{mask:url(#mask);}.cls-4{fill:#ff8a00;}.cls-6{mask:url(#mask-2-2);}.cls-7{fill:#0073f0;}.cls-8{fill:#005ac3;}.cls-9{fill:#80b4fe;}</style><mask id="mask" x="7.17" y="14.47" width="21.42" height="28.77" maskUnits="userSpaceOnUse"><g id="mask-2"><polygon id="path-1" class="cls-1" points="7.17 14.47 28.59 14.47 28.59 43.24 7.17 43.24 7.17 14.47"/></g></mask><mask id="mask-2-2" x="21.85" y="14.43" width="28.96" height="29.19" maskUnits="userSpaceOnUse"><g id="mask-4"><polygon id="path-3" class="cls-1" points="21.85 14.43 50.8 14.43 50.8 43.61 21.85 43.61 21.85 14.43"/></g></mask></defs><g id="Page-1"><g id="Profile---Developer"><path id="Stroke-3" class="cls-2" d="M46,57H12A11,11,0,0,1,1,46V12A11,11,0,0,1,12,1H46A11,11,0,0,1,57,12V46A11,11,0,0,1,46,57Z"/></g></g><g id="Page-1-2" data-name="Page-1"><g id="Profile---Developer-2" data-name="Profile---Developer"><g id="rcs-icon-copy"><g id="Group-3"><g id="Fill-1-Clipped"><g class="cls-3"><path id="Fill-1" class="cls-4" d="M28.59,42.62a10.59,10.59,0,0,1-3.53.6c-2.34,0-4.68,0-7,0a10.68,10.68,0,0,1-7.28-2.83,10.85,10.85,0,0,1-3.3-5.56,10.63,10.63,0,0,1-.29-2.51c0-1.15,0-2.31,0-3.46h0c0-1.3,0-2.61,0-3.91a9.89,9.89,0,0,1,.93-4,10.91,10.91,0,0,1,4.24-4.85,10.29,10.29,0,0,1,4-1.48,13.82,13.82,0,0,1,1.82-.15h6.62a11.33,11.33,0,0,1,3.43.48l.4.13a15.94,15.94,0,0,0-6.24,6.37H14.7a1.69,1.69,0,0,0-1.2.59,1.81,1.81,0,0,0-.41,1.28v9.88c0,.1,0,.2,0,.31h1.24V23.11a.37.37,0,0,1,.35-.36,2,2,0,0,1,.35,0h6.69a15.73,15.73,0,0,0-.63,10.46H18.51a.82.82,0,0,0-.54.2l-4.41,3.43-.23.21c.26.34.49.67.76,1a1.45,1.45,0,0,0,.21-.15c1.37-1.07,2.75-2.13,4.11-3.21a.76.76,0,0,1,.48-.17h2.66a15.85,15.85,0,0,0,7,8.13"/></g></g></g><path id="Fill-4" class="cls-5" d="M23,21.72q-.35.63-.63,1.29H15a.38.38,0,0,0-.36.37,2.09,2.09,0,0,0,0,.25V33.88h-1.3c0-.11,0-.21,0-.31v-10a1.76,1.76,0,0,1,.43-1.29,1.88,1.88,0,0,1,1.26-.6h8Z"/><path id="Fill-6" class="cls-5" d="M21.77,34H19a.73.73,0,0,0-.49.17l-4.25,3.24a1.85,1.85,0,0,1-.23.15c-.27-.31-.51-.64-.79-1l.25-.21,4.56-3.48a.87.87,0,0,1,.57-.19h2.69c.13.44.28.87.45,1.3"/><g id="Group-10"><g id="Fill-8-Clipped"><g class="cls-6"><path id="Fill-8" class="cls-7" d="M50.8,29A14.48,14.48,0,1,1,30.08,15.85a14.37,14.37,0,0,1,6.25-1.42A14.54,14.54,0,0,1,50.8,29"/></g></g></g><path id="Fill-11" class="cls-5" d="M34.87,22.94h7.31a2.59,2.59,0,0,1,2.7,2.6v7a2.59,2.59,0,0,1-2.67,2.58H31.48a2.59,2.59,0,0,1-2.68-2.56c0-1.75,0-3.5,0-5.24a1,1,0,0,0-.19-.61c-.6-.88-1.18-1.76-1.77-2.65a2,2,0,0,1-.18-.32.57.57,0,0,1,.54-.78h7.66"/><path id="Fill-13" class="cls-8" d="M34.87,24.16h7.31a2.58,2.58,0,0,1,2.7,2.59v7a2.59,2.59,0,0,1-2.67,2.58H31.48a2.59,2.59,0,0,1-2.68-2.57c0-1.74,0-3.49,0-5.24a1,1,0,0,0-.19-.6c-.6-.88-1.18-1.77-1.77-2.66a1.65,1.65,0,0,1-.18-.32.56.56,0,0,1,.54-.77,2.81,2.81,0,0,1,.29,0h7.37"/><path id="Fill-15" class="cls-5" d="M34.87,22.94h7.31a2.59,2.59,0,0,1,2.7,2.6v7a2.59,2.59,0,0,1-2.67,2.58H31.48a2.59,2.59,0,0,1-2.68-2.56c0-1.75,0-3.5,0-5.24a1,1,0,0,0-.19-.61c-.6-.88-1.18-1.76-1.77-2.65a2,2,0,0,1-.18-.32.57.57,0,0,1,.54-.78h7.66"/><path id="Fill-17" class="cls-9" d="M37,29H32.22c-.43,0-.72-.26-.72-.6s.29-.6.73-.61h9.51c.42,0,.71.27.7.61s-.29.58-.72.6H37"/><path id="Fill-19" class="cls-9" d="M37,26.58H32.3a.75.75,0,0,1-.75-.38c-.18-.36.1-.77.58-.83h9.42a1,1,0,0,1,.72.23.49.49,0,0,1,.11.61.63.63,0,0,1-.6.37H37Z"/><path id="Fill-21" class="cls-9" d="M35.77,31.45h3.41a1.13,1.13,0,0,1,.49.09.53.53,0,0,1,.32.65.66.66,0,0,1-.58.45.82.82,0,0,1-.22,0H32.33a.94.94,0,0,1-.62-.19.51.51,0,0,1-.15-.65.62.62,0,0,1,.62-.37h3.59"/></g></g></g></svg>