<svg id="Layer_1" data-name="Layer 1" xmlns="http://www.w3.org/2000/svg" xmlns:xlink="http://www.w3.org/1999/xlink" width="20" height="20" viewBox="0 0 20 20"><defs><style>.cls-1{fill:#424242;}.cls-1,.cls-2,.cls-3,.cls-4,.cls-5{fill-rule:evenodd;}.cls-2{fill:url(#linear-gradient);}.cls-3{fill:url(#linear-gradient-2);}.cls-4{fill:url(#linear-gradient-3);}.cls-5{fill:url(#linear-gradient-4);}</style><linearGradient id="linear-gradient" x1="-637.16" y1="580.64" x2="-636.48" y2="581.5" gradientTransform="translate(5108.92 -5215.47) scale(8 9)" gradientUnits="userSpaceOnUse"><stop offset="0" stop-color="#0091ff"/><stop offset="1" stop-color="#44d7b6"/></linearGradient><linearGradient id="linear-gradient-2" x1="-637.16" y1="580.64" x2="-636.48" y2="581.5" gradientTransform="translate(5108.92 -5215.47) scale(8 9)" gradientUnits="userSpaceOnUse"><stop offset="0" stop-color="#b7222c"/><stop offset="1" stop-color="#d81f26"/></linearGradient><linearGradient id="linear-gradient-3" x1="-682.91" y1="545.16" x2="-682.05" y2="546.02" gradientTransform="translate(10928.84 -8720.78) scale(16)" xlink:href="#linear-gradient"/><linearGradient id="linear-gradient-4" x1="-682.91" y1="545.16" x2="-682.05" y2="546.02" gradientTransform="translate(10928.84 -8720.78) scale(16)" xlink:href="#linear-gradient-2"/></defs><g id="Page-1"><g id="Set-Password---Successful"><g id="Group-6"><g id="Group-4"><g id="Fill-1"><polygon id="path-3" class="cls-1" points="13.18 17.81 14.39 15.6 16.65 18.17 16.65 18.17 17.69 17.22 15.42 14.64 17.74 13.68 10.86 10.43 13.18 17.81"/><polygon id="path-3-2" class="cls-2" points="13.18 17.81 14.39 15.6 16.65 18.17 16.65 18.17 17.69 17.22 15.42 14.64 17.74 13.68 10.86 10.43 13.18 17.81"/><polygon id="path-3-3" class="cls-3" points="13.18 17.81 14.39 15.6 16.65 18.17 16.65 18.17 17.69 17.22 15.42 14.64 17.74 13.68 10.86 10.43 13.18 17.81"/></g><g id="Fill-2"><path id="path-6" class="cls-1" d="M7.13,13.86H6.94l-.2-.1H5l-.13-.16h0c.6-.12,1.22-.22,1.83-.28A10.57,10.57,0,0,0,7.14,15c.07.19.14.38.22.55h0M4,10.7a5.52,5.52,0,0,1,0-4,20.39,20.39,0,0,0,2.32.38c0,.52-.08,1.06-.08,1.6a10.59,10.59,0,0,0,.08,1.6A18.19,18.19,0,0,0,4,10.7M7.15,3.57c-.08.17-.15.35-.22.54a10.57,10.57,0,0,0-.44,1.65c-.61-.06-1.22-.16-1.82-.28A5.63,5.63,0,0,1,7.15,3.57m1,1a4,4,0,0,1,.59-1.11.55.55,0,0,1,.35-.25.55.55,0,0,1,.35.25A4,4,0,0,1,10,4.57a11.14,11.14,0,0,1,.35,1.29H7.8a11.34,11.34,0,0,1,.4-1.29m5.41.91c-.6.12-1.21.22-1.82.28a10.57,10.57,0,0,0-.44-1.65c-.07-.19-.14-.37-.22-.54a5.63,5.63,0,0,1,2.48,1.91m-3.53,7.37A3.92,3.92,0,0,1,9.49,14a.55.55,0,0,1-.35.25A.55.55,0,0,1,8.79,14a4,4,0,0,1-.59-1.11,11.14,11.14,0,0,1-.35-1.29h2.29L9.8,10.41l-.07-.23H7.66c0-.5-.07-1-.07-1.5s0-1,.07-1.5h3c0,.42.06.86.07,1.3l.83.38.52.25V8.68A10.59,10.59,0,0,0,12,7.08a20.39,20.39,0,0,0,2.32-.38,5.29,5.29,0,0,1,.37,2,5.36,5.36,0,0,1-.22,1.54l1.24.58a4.91,4.91,0,0,0,.15-.51A7.14,7.14,0,0,0,16,8.71a7,7,0,0,0-.46-2.48.24.24,0,0,0,0-.12l-.22-.44a7,7,0,0,0-.92-1.41h0V4.2h0L14.19,4h-.06L14,3.79h0l-.15-.15h0A6.82,6.82,0,0,0,9.4,1.89H9a7,7,0,0,0-2.55.54,7.14,7.14,0,0,0-1.9,1.21h0l-.15.15h0A1.21,1.21,0,0,1,4.16,4H4.1L4,4.12H4v.06H4A7.4,7.4,0,0,0,3,5.66l-.22.45a.24.24,0,0,0,0,.12,7,7,0,0,0-.46,2.48,7.3,7.3,0,0,0,.19,1.61,6.28,6.28,0,0,0,.27.87.24.24,0,0,0,0,.12L3,11.8a7,7,0,0,0,2.49,2.74,6.75,6.75,0,0,0,1.87.81l.47.11h.24a6.56,6.56,0,0,0,1.08.09,6.85,6.85,0,0,0,2.2-.36l-1-3.2c-.07.28-.15.55-.24.82"/><path id="path-6-2" class="cls-4" d="M7.13,13.86H6.94l-.2-.1H5l-.13-.16h0c.6-.12,1.22-.22,1.83-.28A10.57,10.57,0,0,0,7.14,15c.07.19.14.38.22.55h0M4,10.7a5.52,5.52,0,0,1,0-4,20.39,20.39,0,0,0,2.32.38c0,.52-.08,1.06-.08,1.6a10.59,10.59,0,0,0,.08,1.6A18.19,18.19,0,0,0,4,10.7M7.15,3.57c-.08.17-.15.35-.22.54a10.57,10.57,0,0,0-.44,1.65c-.61-.06-1.22-.16-1.82-.28A5.63,5.63,0,0,1,7.15,3.57m1,1a4,4,0,0,1,.59-1.11.55.55,0,0,1,.35-.25.55.55,0,0,1,.35.25A4,4,0,0,1,10,4.57a11.14,11.14,0,0,1,.35,1.29H7.8a11.34,11.34,0,0,1,.4-1.29m5.41.91c-.6.12-1.21.22-1.82.28a10.57,10.57,0,0,0-.44-1.65c-.07-.19-.14-.37-.22-.54a5.63,5.63,0,0,1,2.48,1.91m-3.53,7.37A3.92,3.92,0,0,1,9.49,14a.55.55,0,0,1-.35.25A.55.55,0,0,1,8.79,14a4,4,0,0,1-.59-1.11,11.14,11.14,0,0,1-.35-1.29h2.29L9.8,10.41l-.07-.23H7.66c0-.5-.07-1-.07-1.5s0-1,.07-1.5h3c0,.42.06.86.07,1.3l.83.38.52.25V8.68A10.59,10.59,0,0,0,12,7.08a20.39,20.39,0,0,0,2.32-.38,5.29,5.29,0,0,1,.37,2,5.36,5.36,0,0,1-.22,1.54l1.24.58a4.91,4.91,0,0,0,.15-.51A7.14,7.14,0,0,0,16,8.71a7,7,0,0,0-.46-2.48.24.24,0,0,0,0-.12l-.22-.44a7,7,0,0,0-.92-1.41h0V4.2h0L14.19,4h-.06L14,3.79h0l-.15-.15h0A6.82,6.82,0,0,0,9.4,1.89H9a7,7,0,0,0-2.55.54,7.14,7.14,0,0,0-1.9,1.21h0l-.15.15h0A1.21,1.21,0,0,1,4.16,4H4.1L4,4.12H4v.06H4A7.4,7.4,0,0,0,3,5.66l-.22.45a.24.24,0,0,0,0,.12,7,7,0,0,0-.46,2.48,7.3,7.3,0,0,0,.19,1.61,6.28,6.28,0,0,0,.27.87.24.24,0,0,0,0,.12L3,11.8a7,7,0,0,0,2.49,2.74,6.75,6.75,0,0,0,1.87.81l.47.11h.24a6.56,6.56,0,0,0,1.08.09,6.85,6.85,0,0,0,2.2-.36l-1-3.2c-.07.28-.15.55-.24.82"/><path id="path-6-3" class="cls-5" d="M7.13,13.86H6.94l-.2-.1H5l-.13-.16h0c.6-.12,1.22-.22,1.83-.28A10.57,10.57,0,0,0,7.14,15c.07.19.14.38.22.55h0M4,10.7a5.52,5.52,0,0,1,0-4,20.39,20.39,0,0,0,2.32.38c0,.52-.08,1.06-.08,1.6a10.59,10.59,0,0,0,.08,1.6A18.19,18.19,0,0,0,4,10.7M7.15,3.57c-.08.17-.15.35-.22.54a10.57,10.57,0,0,0-.44,1.65c-.61-.06-1.22-.16-1.82-.28A5.63,5.63,0,0,1,7.15,3.57m1,1a4,4,0,0,1,.59-1.11.55.55,0,0,1,.35-.25.55.55,0,0,1,.35.25A4,4,0,0,1,10,4.57a11.14,11.14,0,0,1,.35,1.29H7.8a11.34,11.34,0,0,1,.4-1.29m5.41.91c-.6.12-1.21.22-1.82.28a10.57,10.57,0,0,0-.44-1.65c-.07-.19-.14-.37-.22-.54a5.63,5.63,0,0,1,2.48,1.91m-3.53,7.37A3.92,3.92,0,0,1,9.49,14a.55.55,0,0,1-.35.25A.55.55,0,0,1,8.79,14a4,4,0,0,1-.59-1.11,11.14,11.14,0,0,1-.35-1.29h2.29L9.8,10.41l-.07-.23H7.66c0-.5-.07-1-.07-1.5s0-1,.07-1.5h3c0,.42.06.86.07,1.3l.83.38.52.25V8.68A10.59,10.59,0,0,0,12,7.08a20.39,20.39,0,0,0,2.32-.38,5.29,5.29,0,0,1,.37,2,5.36,5.36,0,0,1-.22,1.54l1.24.58a4.91,4.91,0,0,0,.15-.51A7.14,7.14,0,0,0,16,8.71a7,7,0,0,0-.46-2.48.24.24,0,0,0,0-.12l-.22-.44a7,7,0,0,0-.92-1.41h0V4.2h0L14.19,4h-.06L14,3.79h0l-.15-.15h0A6.82,6.82,0,0,0,9.4,1.89H9a7,7,0,0,0-2.55.54,7.14,7.14,0,0,0-1.9,1.21h0l-.15.15h0A1.21,1.21,0,0,1,4.16,4H4.1L4,4.12H4v.06H4A7.4,7.4,0,0,0,3,5.66l-.22.45a.24.24,0,0,0,0,.12,7,7,0,0,0-.46,2.48,7.3,7.3,0,0,0,.19,1.61,6.28,6.28,0,0,0,.27.87.24.24,0,0,0,0,.12L3,11.8a7,7,0,0,0,2.49,2.74,6.75,6.75,0,0,0,1.87.81l.47.11h.24a6.56,6.56,0,0,0,1.08.09,6.85,6.85,0,0,0,2.2-.36l-1-3.2c-.07.28-.15.55-.24.82"/></g></g></g></g></g></svg>