<?xml version="1.0" encoding="UTF-8"?>
<svg width="17px" height="12px" viewBox="0 0 17 12" version="1.1" xmlns="http://www.w3.org/2000/svg" xmlns:xlink="http://www.w3.org/1999/xlink">
    <!-- Generator: Sketch 57.1 (83088) - https://sketch.com -->
    <title>Group 5</title>
    <desc>Created with Sketch.</desc>
    <g id="Page-1" stroke="none" stroke-width="1" fill="none" fill-rule="evenodd">
        <g id="Launch---Onboarding-NDA-3---Company-Details" transform="translate(-879.000000, -450.000000)">
            <g id="Group-5" transform="translate(879.000000, 450.000000)">
                <path d="M7.67547183,0.00101841596 C9.94573866,0.00101841596 12.2160055,0.000434874813 14.4864182,0.00116430125 C15.9282025,0.00174784239 16.9990005,1.07181642 16.999584,2.51287128 C17.0001141,4.76402714 17.0004594,7.015183 16.9994382,9.26619298 C16.9987087,10.6715059 15.9190117,11.7568925 14.5189506,11.7576219 C11.1860554,11.7590808 7.85316011,11.7590808 4.52026485,11.7576219 C3.11889078,11.7571843 2.02810649,10.6834685 2.02066634,9.27859323 C2.01191323,7.5902628 2.01789452,5.9017865 2.02591821,4.21360196 C2.02693941,3.99360694 1.97033592,3.81241742 1.85143941,3.62991492 C1.29663767,2.77823662 0.750734922,1.92057702 0.203956867,1.06335507 C0.140934423,0.964590735 0.0777660943,0.861741608 0.0391064933,0.752181758 C-0.0959832823,0.366315174 0.130722453,0.0297578175 0.537304748,0.00349846584 C0.627753625,-0.00248283092 0.71893193,0.00101841596 0.809672578,0.00101841596 C3.09832096,0.000872530673 5.38682345,0.00101841596 7.67547183,0.00101841596" id="Fill-23" fill="#D81F26"></path>
                <path d="M9.42737906,6.58223924 C8.00237158,6.58223924 6.57750998,6.58223924 5.15264839,6.58209335 C5.05271697,6.58209335 4.95263966,6.58413575 4.85329178,6.57917565 C4.44364589,6.55889759 4.16412969,6.27908961 4.16014756,5.88826293 C4.15610599,5.48737016 4.44189527,5.20099734 4.86627557,5.18276168 C4.95687033,5.17882278 5.04775687,5.18028163 5.1386434,5.18028163 C7.99755737,5.18013575 10.8564713,5.18013575 13.7155312,5.18028163 C13.8151708,5.18028163 13.9152481,5.17809335 14.0147419,5.18378288 C14.4191359,5.20683276 14.6985062,5.49743625 14.6946085,5.88782527 C14.6904826,6.27879784 14.4109663,6.55889759 14.0014663,6.57917565 C13.9019726,6.58413575 13.8018953,6.58209335 13.7022556,6.58209335 C12.2771023,6.58223924 10.8523865,6.58223924 9.42737906,6.58223924" id="Fill-25" fill="#FFFFFF"></path>
                <path d="M9.42724777,3.86497989 C7.92885998,3.86497989 6.43018043,3.86177041 4.93193854,3.86761486 C4.59669415,3.8687729 4.34708442,3.75702478 4.21666298,3.43739011 C4.04305949,3.01140507 4.31207195,2.54267565 4.76854702,2.47513076 C4.84892981,2.4633127 4.93193854,2.4657941 5.01348841,2.4657941 C7.95584876,2.46535645 10.8982091,2.4668153 13.8408612,2.4633127 C14.1081231,2.46302228 14.3448949,2.50970557 14.5252091,2.72503226 C14.7061069,2.94108837 14.7435994,3.17990258 14.6371031,3.43709834 C14.5311904,3.69254348 14.3469373,3.85330906 14.0588138,3.86001979 C13.7774011,3.86658463 13.4958425,3.86512577 13.2144298,3.86527166 C11.9519385,3.86570931 10.6894473,3.86556343 9.42724777,3.86556343 L9.42724777,3.86497989 Z" id="Fill-27" fill="#FFFFFF"></path>
                <path d="M8.27682557,7.89713251 C9.37432058,7.89727839 10.4721074,7.89348537 11.5696024,7.90150906 C11.7270126,7.90296792 11.9009079,7.93126966 12.0370188,8.00362877 C12.3069066,8.14688812 12.41705,8.4455153 12.3460039,8.7528956 C12.2775837,9.04875096 12.0804927,9.21929086 11.7882844,9.28129211 C11.7181136,9.29617241 11.643858,9.29602652 11.5716448,9.29602652 C9.36731809,9.29675595 7.16284552,9.29573475 4.95866472,9.29807016 C4.73035425,9.29836069 4.52932432,9.24744672 4.36651634,9.07719859 C4.15644153,8.85764123 4.10231809,8.60628088 4.21683804,8.32632702 C4.32596023,8.05964872 4.5215924,7.90165495 4.82065724,7.90034198 C5.44650512,7.89786193 6.07249889,7.89757016 6.69834677,7.89698662 C7.224555,7.89654896 7.75061734,7.89698662 8.27682557,7.89713251" id="Fill-29" fill="#FFFFFF"></path>
            </g>
        </g>
    </g>
</svg>