<svg xmlns="http://www.w3.org/2000/svg" width="56.8" height="56.8" viewBox="0 0 56.8 56.8"><defs><style>.cls-1,.cls-3{fill:#fff;}.cls-1{stroke:#a9a9a9;stroke-width:0.8px;stroke-dasharray:1.92 1.92;}.cls-1,.cls-2,.cls-3,.cls-4,.cls-5{fill-rule:evenodd;}.cls-2{fill:#d3d3d3;}.cls-4{fill:#b7b7b7;}.cls-5{fill:#5e5e5e;}</style></defs><g id="Layer_1" data-name="Layer 1"><g id="Page-1"><g id="Profile---Developer"><path id="Stroke-3" class="cls-1" d="M46,57H12A11,11,0,0,1,1,46V12A11,11,0,0,1,12,1H46A11,11,0,0,1,57,12V46A11,11,0,0,1,46,57Z" transform="translate(-0.6 -0.6)"/></g></g></g><g id="Layer_2" data-name="Layer 2"><g id="Page-1-2" data-name="Page-1"><g id="Profile---Developer-2" data-name="Profile---Developer"><g id="Group-31"><path id="Fill-11" class="cls-2" d="M28.52,43a12.41,12.41,0,0,1-1.72.45,11.83,11.83,0,0,1-1.88.16c-2.38,0-4.77,0-7.15,0a10.85,10.85,0,0,1-7.41-2.88A11,11,0,0,1,7,35.08a10.47,10.47,0,0,1-.29-2.56V29h0c0-1.33,0-2.66,0-4a10.28,10.28,0,0,1,1-4.07A11.19,11.19,0,0,1,12,16a10.46,10.46,0,0,1,4-1.5,11.45,11.45,0,0,1,1.85-.15c2.25,0,4.5,0,6.74,0a11.84,11.84,0,0,1,3.5.49l.41.14a16.12,16.12,0,0,0-6.36,6.48h-7.8a1.77,1.77,0,0,0-1.22.6,1.84,1.84,0,0,0-.41,1.31V33.42c0,.1,0,.2,0,.31H14V23.13a.4.4,0,0,1,.35-.37h7.17A16,16,0,0,0,20.28,29a16.18,16.18,0,0,0,.62,4.43H18.25a.87.87,0,0,0-.56.2l-4.48,3.5-.24.21c.26.34.5.68.77,1l.22-.15,4.19-3.27a.69.69,0,0,1,.48-.17h2.71A16.12,16.12,0,0,0,28.52,43" transform="translate(-0.6 -0.6)"/><path id="Fill-13" class="cls-3" d="M22.16,21.45c-.22.43-.43.86-.62,1.3H14.37a.4.4,0,0,0-.35.37v10.6H12.76c0-.11,0-.21,0-.31V23.36a1.8,1.8,0,0,1,.41-1.3,1.74,1.74,0,0,1,1.22-.61h7.8Z" transform="translate(-0.6 -0.6)"/><path id="Fill-15" class="cls-3" d="M21.34,34.72H18.63a.73.73,0,0,0-.49.17L14,38.16l-.22.15c-.27-.31-.51-.65-.77-1l.24-.21,4.48-3.5a.87.87,0,0,1,.56-.2H20.9c.13.45.28.88.44,1.31" transform="translate(-0.6 -0.6)"/><path id="Fill-17" class="cls-4" d="M51.21,29a14.87,14.87,0,1,1-21.28-13.4,14.67,14.67,0,0,1,6.41-1.46A14.88,14.88,0,0,1,51.21,29" transform="translate(-0.6 -0.6)"/><path id="Fill-19" class="cls-3" d="M34.82,22.45h7.57a2.72,2.72,0,0,1,2.79,2.79v7.51a2.72,2.72,0,0,1-2.75,2.77H31.32a2.74,2.74,0,0,1-2.78-2.76c0-1.87,0-3.75,0-5.63a1.13,1.13,0,0,0-.2-.64l-1.83-2.86a1.59,1.59,0,0,1-.18-.34.59.59,0,0,1,.55-.83h7.93" transform="translate(-0.6 -0.6)"/><path id="Fill-21" class="cls-5" d="M34.82,23.3h7.57a2.72,2.72,0,0,1,2.79,2.79V33.6a2.71,2.71,0,0,1-2.75,2.76H31.32a2.73,2.73,0,0,1-2.78-2.75c0-1.88,0-3.75,0-5.63a1.18,1.18,0,0,0-.2-.65c-.61-.94-1.22-1.9-1.83-2.85a1.59,1.59,0,0,1-.18-.34.6.6,0,0,1,.55-.84h7.93" transform="translate(-0.6 -0.6)"/><path id="Fill-23" class="cls-3" d="M34.82,22.45h7.57a2.72,2.72,0,0,1,2.79,2.79v7.51a2.72,2.72,0,0,1-2.75,2.77H31.32a2.74,2.74,0,0,1-2.78-2.76c0-1.87,0-3.75,0-5.63a1.13,1.13,0,0,0-.2-.64l-1.83-2.86a1.59,1.59,0,0,1-.18-.34.59.59,0,0,1,.55-.83h7.93" transform="translate(-0.6 -0.6)"/><path id="Fill-25" class="cls-2" d="M36.77,29.77H31.69a.75.75,0,0,1-.77-.76.76.76,0,0,1,.78-.79H41.87a.78.78,0,0,1,0,1.55H36.77" transform="translate(-0.6 -0.6)"/><path id="Fill-27" class="cls-2" d="M36.77,26.75c-1.67,0-3.33,0-5,0a.75.75,0,0,1-.79-.48.79.79,0,0,1,.61-1.07H41.67a.9.9,0,0,1,.76.29.72.72,0,0,1,.13.79.68.68,0,0,1-.64.47H36.77Z" transform="translate(-0.6 -0.6)"/><path id="Fill-29" class="cls-2" d="M35.49,31.23c1.22,0,2.44,0,3.66,0a1.17,1.17,0,0,1,.52.12.71.71,0,0,1,.34.83.73.73,0,0,1-.62.59H31.8a.83.83,0,0,1-.65-.24A.72.72,0,0,1,31,31.7a.69.69,0,0,1,.67-.47h3.84" transform="translate(-0.6 -0.6)"/></g></g></g></g></svg>