<svg id="Layer_1" data-name="Layer 1" xmlns="http://www.w3.org/2000/svg" xmlns:xlink="http://www.w3.org/1999/xlink" width="20" height="20" viewBox="0 0 20 20"><defs><style>.cls-1{fill:#fff;}.cls-1,.cls-2,.cls-3,.cls-5{fill-rule:evenodd;}.cls-2{fill:url(#linear-gradient);}.cls-3{fill:url(#linear-gradient-2);}.cls-4{mask:url(#mask);}.cls-5{fill:#d81f26;}</style><linearGradient id="linear-gradient" x1="-177.17" y1="405.03" x2="-176.89" y2="404.03" gradientTransform="matrix(1.41, 0, 0, -2.67, 256.39, 1082.21)" gradientUnits="userSpaceOnUse"><stop offset="0" stop-color="#b7222c"/><stop offset="1" stop-color="#d81f26"/></linearGradient><linearGradient id="linear-gradient-2" x1="-177.17" y1="405.03" x2="-176.89" y2="404.03" gradientTransform="matrix(1.41, 0, 0, -2.67, 262.61, 1082.21)" xlink:href="#linear-gradient"/><mask id="mask" x="2.5" y="3.34" width="14.07" height="14.07" maskUnits="userSpaceOnUse"><g id="mask-5"><polygon id="path-4" class="cls-1" points="2.5 3.34 16.57 3.34 16.57 17.41 2.5 17.41 2.5 3.34"/></g></mask></defs><g id="Page-1"><g id="RCS-BOT-Directory---Submit-a-Bot---BOT-RCS-Details"><g id="Group-22"><g id="Fill-1"><path id="path-2" class="cls-1" d="M6.42,4.67A.71.71,0,0,0,7.13,4V2.71A.71.71,0,0,0,6.42,2a.7.7,0,0,0-.7.71V4a.7.7,0,0,0,.7.71"/><path id="path-2-2" data-name="path-2" class="cls-2" d="M6.42,4.67A.71.71,0,0,0,7.13,4V2.71A.71.71,0,0,0,6.42,2a.7.7,0,0,0-.7.71V4a.7.7,0,0,0,.7.71"/></g><g id="Fill-3"><path id="path-3" class="cls-1" d="M12.65,4.67a.7.7,0,0,0,.7-.71V2.71a.7.7,0,0,0-.7-.71.71.71,0,0,0-.71.71V4a.71.71,0,0,0,.71.71"/><path id="path-3-2" data-name="path-3" class="cls-3" d="M12.65,4.67a.7.7,0,0,0,.7-.71V2.71a.7.7,0,0,0-.7-.71.71.71,0,0,0-.71.71V4a.71.71,0,0,0,.71.71"/></g><g id="Group-7"><g class="cls-4"><g id="Fill-5"><path id="path-6" class="cls-1" d="M15.52,14h-1a1.49,1.49,0,0,0-1.49,1.49v.91H4a.44.44,0,0,1-.44-.44V7h12ZM15.08,3.34H13.77V4a1.13,1.13,0,1,1-2.25,0V3.34h-4V4A1.13,1.13,0,1,1,5.3,4V3.34H4A1.49,1.49,0,0,0,2.5,4.83V15.92A1.49,1.49,0,0,0,4,17.41h9.47a.76.76,0,0,0,.54-.23l2.35-2.34a.79.79,0,0,0,.22-.54V4.83a1.49,1.49,0,0,0-1.49-1.49Z"/><path id="path-6-2" data-name="path-6" class="cls-5" d="M15.52,14h-1a1.49,1.49,0,0,0-1.49,1.49v.91H4a.44.44,0,0,1-.44-.44V7h12ZM15.08,3.34H13.77V4a1.13,1.13,0,1,1-2.25,0V3.34h-4V4A1.13,1.13,0,1,1,5.3,4V3.34H4A1.49,1.49,0,0,0,2.5,4.83V15.92A1.49,1.49,0,0,0,4,17.41h9.47a.76.76,0,0,0,.54-.23l2.35-2.34a.79.79,0,0,0,.22-.54V4.83a1.49,1.49,0,0,0-1.49-1.49Z"/></g></g></g><g id="Fill-8"><path id="path-7" class="cls-1" d="M11.92,12.68h2.4a.14.14,0,0,0,.14-.14V10.87a.14.14,0,0,0-.14-.14h-2.4a.13.13,0,0,0-.13.14v1.67a.13.13,0,0,0,.13.14"/><path id="path-7-2" data-name="path-7" class="cls-5" d="M11.92,12.68h2.4a.14.14,0,0,0,.14-.14V10.87a.14.14,0,0,0-.14-.14h-2.4a.13.13,0,0,0-.13.14v1.67a.13.13,0,0,0,.13.14"/></g><g id="Fill-10"><path id="path-8" class="cls-1" d="M8.33,12.68h2.4a.14.14,0,0,0,.14-.14V10.87a.14.14,0,0,0-.14-.14H8.33a.13.13,0,0,0-.13.14v1.67a.13.13,0,0,0,.13.14"/><path id="path-8-2" data-name="path-8" class="cls-5" d="M8.33,12.68h2.4a.14.14,0,0,0,.14-.14V10.87a.14.14,0,0,0-.14-.14H8.33a.13.13,0,0,0-.13.14v1.67a.13.13,0,0,0,.13.14"/></g><g id="Fill-12"><path id="path-9" class="cls-1" d="M4.75,12.68H7.14a.14.14,0,0,0,.14-.14V10.87a.14.14,0,0,0-.14-.14H4.75a.14.14,0,0,0-.14.14v1.67a.14.14,0,0,0,.14.14"/><path id="path-9-2" data-name="path-9" class="cls-5" d="M4.75,12.68H7.14a.14.14,0,0,0,.14-.14V10.87a.14.14,0,0,0-.14-.14H4.75a.14.14,0,0,0-.14.14v1.67a.14.14,0,0,0,.14.14"/></g><g id="Fill-14"><path id="path-10" class="cls-1" d="M8.33,15.29h2.4a.13.13,0,0,0,.14-.13V13.48a.13.13,0,0,0-.14-.13H8.33a.13.13,0,0,0-.13.13v1.68a.13.13,0,0,0,.13.13"/><path id="path-10-2" data-name="path-10" class="cls-5" d="M8.33,15.29h2.4a.13.13,0,0,0,.14-.13V13.48a.13.13,0,0,0-.14-.13H8.33a.13.13,0,0,0-.13.13v1.68a.13.13,0,0,0,.13.13"/></g><g id="Fill-16"><path id="path-11" class="cls-1" d="M4.75,15.29H7.14a.13.13,0,0,0,.14-.13V13.48a.13.13,0,0,0-.14-.13H4.75a.13.13,0,0,0-.14.13v1.68a.13.13,0,0,0,.14.13"/><path id="path-11-2" data-name="path-11" class="cls-5" d="M4.75,15.29H7.14a.13.13,0,0,0,.14-.13V13.48a.13.13,0,0,0-.14-.13H4.75a.13.13,0,0,0-.14.13v1.68a.13.13,0,0,0,.14.13"/></g><g id="Fill-18"><path id="path-12" class="cls-1" d="M11.92,10.06h2.4a.13.13,0,0,0,.14-.13V8.26a.14.14,0,0,0-.14-.14h-2.4a.13.13,0,0,0-.13.14V9.93a.13.13,0,0,0,.13.13"/><path id="path-12-2" data-name="path-12" class="cls-5" d="M11.92,10.06h2.4a.13.13,0,0,0,.14-.13V8.26a.14.14,0,0,0-.14-.14h-2.4a.13.13,0,0,0-.13.14V9.93a.13.13,0,0,0,.13.13"/></g><g id="Fill-20"><path id="path-13" class="cls-1" d="M8.33,10.06h2.4a.13.13,0,0,0,.14-.13V8.26a.14.14,0,0,0-.14-.14H8.33a.13.13,0,0,0-.13.14V9.93a.13.13,0,0,0,.13.13"/><path id="path-13-2" data-name="path-13" class="cls-5" d="M8.33,10.06h2.4a.13.13,0,0,0,.14-.13V8.26a.14.14,0,0,0-.14-.14H8.33a.13.13,0,0,0-.13.14V9.93a.13.13,0,0,0,.13.13"/></g></g></g></g></svg>