<svg id="Layer_1" data-name="Layer 1" xmlns="http://www.w3.org/2000/svg" xmlns:xlink="http://www.w3.org/1999/xlink" width="20" height="20" viewBox="0 0 20 20"><defs><style>.cls-1{fill:#fff;}.cls-1,.cls-2,.cls-4{fill-rule:evenodd;}.cls-2{fill:url(#linear-gradient);}.cls-3{mask:url(#mask);}.cls-4{fill:url(#linear-gradient-2);}</style><linearGradient id="linear-gradient" x1="-550.95" y1="577.64" x2="-550.1" y2="576.64" gradientTransform="matrix(9.73, 0, 0, -10.53, 5366.66, 6086.49)" gradientUnits="userSpaceOnUse"><stop offset="0" stop-color="#b7222c"/><stop offset="1" stop-color="#d81f26"/></linearGradient><mask id="mask" x="8" y="2.48" width="9.74" height="10.52" maskUnits="userSpaceOnUse"><g id="mask-5"><polygon id="path-4" class="cls-1" points="8 2.48 17.74 2.48 17.74 12.99 8 12.99 8 2.48"/></g></mask><linearGradient id="linear-gradient-2" x1="-551.07" y1="577.54" x2="-550.21" y2="576.55" gradientTransform="matrix(9.74, 0, 0, -10.52, 5378.03, 6075.84)" xlink:href="#linear-gradient"/></defs><g id="Page-1"><g id="RCS-BOT-Directory---Submit-a-Bot---BOT-RCS-Details"><g id="Group-6"><g id="Fill-1"><path id="path-3" class="cls-1" d="M8.77,13.29,7.11,14.94a1.3,1.3,0,1,1-1.86-1.83L8.89,9.47a1.35,1.35,0,0,1,1.17-.36,1.33,1.33,0,0,1,.68.36h0a.72.72,0,0,0,1,0L12.27,9a.71.71,0,0,0,0-1l0,0a3.48,3.48,0,0,0-.57-.46A3.37,3.37,0,0,0,10.53,7,3.42,3.42,0,0,0,7.38,8L3.77,11.57a3.44,3.44,0,1,0,4.84,4.9l2.89-2.89a4,4,0,0,1-2.73-.29"/><path id="path-3-2" data-name="path-3" class="cls-2" d="M8.77,13.29,7.11,14.94a1.3,1.3,0,1,1-1.86-1.83L8.89,9.47a1.35,1.35,0,0,1,1.17-.36,1.33,1.33,0,0,1,.68.36h0a.72.72,0,0,0,1,0L12.27,9a.71.71,0,0,0,0-1l0,0a3.48,3.48,0,0,0-.57-.46A3.37,3.37,0,0,0,10.53,7,3.42,3.42,0,0,0,7.38,8L3.77,11.57a3.44,3.44,0,1,0,4.84,4.9l2.89-2.89a4,4,0,0,1-2.73-.29"/></g><g id="Group-5"><g class="cls-3"><g id="Fill-3"><path id="path-7" class="cls-1" d="M16.71,3.45a3.47,3.47,0,0,0-4.88.06L9,6.37a4,4,0,0,1,2.74.29L13.36,5A1.32,1.32,0,0,1,15.2,5a1.3,1.3,0,0,1,0,1.86l-3.64,3.65a1.32,1.32,0,0,1-1.17.35,1.28,1.28,0,0,1-.68-.35h0a.72.72,0,0,0-1,0l-.5.51a.7.7,0,0,0,0,1l0,0a3.17,3.17,0,0,0,.58.46,3.24,3.24,0,0,0,1.14.47,3.35,3.35,0,0,0,1.41,0A3.41,3.41,0,0,0,13.09,12l3.64-3.64a3.44,3.44,0,0,0,0-4.9"/><path id="path-7-2" data-name="path-7" class="cls-4" d="M16.71,3.45a3.47,3.47,0,0,0-4.88.06L9,6.37a4,4,0,0,1,2.74.29L13.36,5A1.32,1.32,0,0,1,15.2,5a1.3,1.3,0,0,1,0,1.86l-3.64,3.65a1.32,1.32,0,0,1-1.17.35,1.28,1.28,0,0,1-.68-.35h0a.72.72,0,0,0-1,0l-.5.51a.7.7,0,0,0,0,1l0,0a3.17,3.17,0,0,0,.58.46,3.24,3.24,0,0,0,1.14.47,3.35,3.35,0,0,0,1.41,0A3.41,3.41,0,0,0,13.09,12l3.64-3.64a3.44,3.44,0,0,0,0-4.9"/></g></g></g></g></g></g></svg>