<svg id="Layer_1" data-name="Layer 1" xmlns="http://www.w3.org/2000/svg" width="20" height="20" viewBox="0 0 20 20"><defs><style>.cls-1{fill:#d81f26;fill-rule:evenodd;}</style></defs><g id="Page-1"><g id="RCS-BOT-Directory---Submit-a-Bot---BOT-Basic-Details"><path id="bot" class="cls-1" d="M13.27,10.75a1.88,1.88,0,1,0,1.82,1.94v-.07a1.85,1.85,0,0,0-1.82-1.87m-6.54,0a1.88,1.88,0,1,0,1.82,1.94v-.07a1.84,1.84,0,0,0-1.81-1.87h0M10,2.5A1.49,1.49,0,0,1,11.45,4a1.53,1.53,0,0,1-.72,1.3v1h.72a5.16,5.16,0,0,1,5.1,5.24h.72a.74.74,0,0,1,.73.75h0v2.2a.74.74,0,0,1-.73.75h-.72V16a1.48,1.48,0,0,1-1.46,1.5H4.91A1.48,1.48,0,0,1,3.45,16h0v-.75H2.73A.74.74,0,0,1,2,14.5H2V12.25a.74.74,0,0,1,.73-.75h.72A5.17,5.17,0,0,1,8.54,6.25h.73v-1A1.48,1.48,0,0,1,10,2.5"/></g></g></svg>