<?xml version="1.0" encoding="UTF-8"?>
<svg width="34px" height="34px" viewBox="0 0 34 34" version="1.1" xmlns="http://www.w3.org/2000/svg" xmlns:xlink="http://www.w3.org/1999/xlink">
    <!-- Generator: Sketch 57.1 (83088) - https://sketch.com -->
    <title>Group 19</title>
    <desc>Created with Sketch.</desc>
    <g id="Page-1" stroke="none" stroke-width="1" fill="none" fill-rule="evenodd">
        <g id="Profile---Developer" transform="translate(-689.000000, -801.000000)">
            <g id="Group-19" transform="translate(689.000000, 801.000000)">
                <path d="M29.05336,5.00032 C25.93864,1.88352 21.7972,0.16608 17.38456,0.16416 C8.29176,0.16416 0.89208,7.56144 0.8884,16.65376 C0.88728,19.56032 1.6468,22.39728 3.09032,24.89824 L0.75,33.44336 L9.4948,31.15024 C11.90392,32.46416 14.61688,33.15664 17.37736,33.15776 L17.38456,33.15776 C26.47592,33.15776 33.87672,25.7592 33.8805611,16.66704 C33.88216,12.26064 32.16776,8.11712 29.05336,5.00032 M17.38456,30.37264 L17.37928,30.37264 C14.91864,30.3712 12.50552,29.71056 10.40072,28.46176 L9.89992,28.16464 L4.71048,29.52528 L6.09608,24.46768 L5.76968,23.94912 C4.39704,21.76672 3.67256,19.24464 3.67351905,16.65504 C3.67656,9.0976 9.8268,2.94944 17.38984,2.94944 C21.05208,2.95088 24.49432,4.3784 27.08312,6.96912 C29.67176,9.55968 31.0964,13.00352 31.0951209,16.66592 C31.09208,24.22352 24.94152,30.37264 17.38456,30.37264" id="Fill-11" fill="#E0E0E0"></path>
                <path d="M1.639072,16.472896 C1.638272,19.246176 2.362912,21.953696 3.740672,24.340416 L1.507232,32.495136 L9.852512,30.306816 C12.151552,31.559936 14.740032,32.221376 17.374752,32.222176 L17.381632,32.222176 C26.057312,32.222176 33.119392,25.162336 33.1230734,16.485216 C33.124832,12.280416 31.488992,8.326656 28.516672,5.352256 C25.544832,2.377536 21.592352,0.738976 17.381152,0.736896 C8.704352,0.736896 1.642752,7.796096 1.639072,16.472896" id="Fill-13" fill="#B7B7B7"></path>
                <path d="M13.308208,9.653216 C13.003088,8.974656 12.681648,8.961056 12.391408,8.949216 C12.153968,8.939136 11.881968,8.93961237 11.610768,8.93961237 C11.338928,8.93961237 10.897488,9.041696 10.524368,9.449376 C10.150608,9.857216 9.097968,10.842816 9.097968,12.847296 C9.097968,14.852096 10.558288,16.789216 10.761488,17.061376 C10.965328,17.332896 13.580528,21.578176 17.721648,23.211296 C21.163568,24.568576 21.864048,24.298496 22.610928,24.230656 C23.358128,24.162816 25.021648,23.245216 25.361328,22.293696 C25.700848,21.342496 25.700848,20.527136 25.598928,20.356576 C25.497008,20.186816 25.225328,20.085056 24.817808,19.881216 C24.410448,19.677536 22.407408,18.691616 22.033648,18.555936 C21.660208,18.420096 21.388528,18.352096 21.116848,18.759936 C20.845328,19.167456 20.064688,20.085056 19.827088,20.356576 C19.589328,20.629056 19.351568,20.662976 18.944208,20.459136 C18.536688,20.254816 17.224368,19.825056 15.667728,18.436896 C14.456368,17.357216 13.638608,16.023296 13.401168,15.615456 C13.163248,15.207936 13.375408,14.987296 13.579888,14.784096 C13.762768,14.601696 13.987408,14.308576 14.191408,14.070496 C14.394448,13.832736 14.462448,13.662816 14.598288,13.391296 C14.733968,13.119296 14.666128,12.881216 14.564368,12.677376 C14.462448,12.473696 13.670608,10.458816 13.308208,9.653216" id="Fill-15" fill="#FFFFFF"></path>
                <path d="M28.918672,4.947984 C25.839632,1.866864 21.745712,0.169104 17.383792,0.167344 C8.395312,0.167344 1.080752,7.479664 1.077072,16.467504 C1.075952,19.340784 1.826832,22.145264 3.253392,24.617424 L0.940272,33.064304 L9.584752,30.797744 C11.966192,32.096624 14.647952,32.780944 17.376752,32.781904 L17.383792,32.781904 C26.370832,32.781904 33.686512,25.468304 33.6903529,16.480944 C33.691792,12.124784 31.997072,8.029104 28.918672,4.947984 M17.383792,30.028944 L17.378672,30.028944 C14.946032,30.027664 12.560752,29.374544 10.480112,28.139984 L9.985072,27.846544 L4.855312,29.191504 L6.224752,24.191824 L5.902352,23.679344 C4.545552,21.521744 3.829232,19.028624 3.83019104,16.468624 C3.833072,8.998224 9.912912,2.920624 17.388912,2.920624 C21.009232,2.922064 24.411792,4.333264 26.970992,6.894224 C29.529872,9.454864 30.938192,12.859184 30.9369129,16.479824 C30.933872,23.950544 24.853872,30.028944 17.383792,30.028944" id="Fill-17" fill="#D3D3D3"></path>
            </g>
        </g>
    </g>
</svg>