<?xml version="1.0" encoding="UTF-8"?>
<svg width="44px" height="30px" viewBox="0 0 44 30" version="1.1" xmlns="http://www.w3.org/2000/svg" xmlns:xlink="http://www.w3.org/1999/xlink">
    <!-- Generator: Sketch 57.1 (83088) - https://sketch.com -->
    <title>rcs-icon copy</title>
    <desc>Created with Sketch.</desc>
    <defs>
        <polygon id="path-1" points="0 0.0493699746 21.4212324 0.0493699746 21.4212324 28.81507 0 28.81507"></polygon>
        <polygon id="path-3" points="0.0804054054 1.62162162e-05 29.035843 1.62162162e-05 29.035843 29.1891892 0.0804054054 29.1891892"></polygon>
    </defs>
    <g id="Page-1" stroke="none" stroke-width="1" fill="none" fill-rule="evenodd">
        <g id="Profile---Developer" transform="translate(-604.000000, -804.000000)">
            <g id="rcs-icon-copy" transform="translate(604.000000, 804.000000)">
                <g id="Group-3">
                    <g id="Fill-1-Clipped">
                        <mask id="mask-2" fill="white">
                            <use xlink:href="#path-1"></use>
                        </mask>
                        <g id="path-1"></g>
                        <path d="M21.4212324,28.1981676 C20.8783135,28.3882216 20.3159352,28.5331946 19.7339351,28.6390865 C19.1284216,28.7488703 18.5052324,28.7958973 17.889827,28.7997892 C15.5499892,28.8173027 13.2083676,28.8213568 10.8683676,28.8035189 C8.08566487,28.7840594 5.65566487,27.8316811 3.59020541,25.9700595 C1.91669189,24.4629243 0.823232433,22.5993567 0.288259459,20.4122757 C0.0883135135,19.5893027 -0.00379459459,18.752546 -0.000132238823,17.9058974 C0.00398918918,16.7516271 0.00204324324,15.5975189 0.00204324324,14.4451946 L0.00804324324,14.4451946 C0.00804324324,13.1401135 -0.00768648649,11.8368162 0.0138810811,10.5317351 C0.0373945946,9.13843783 0.36852973,7.80578919 0.942745947,6.5358973 C1.86577297,4.49005946 3.28647567,2.87541081 5.18928648,1.68578919 C6.40631351,0.923627028 7.72712432,0.415897298 9.14977297,0.206383784 C9.74944865,0.116059459 10.3608,0.0631945946 10.9684216,0.0593027027 C13.1749622,0.041627027 15.3834486,0.0533027027 17.5901513,0.0515189189 C18.7560973,0.0515189189 19.9024216,0.188545946 21.0215027,0.535410811 C21.156746,0.5766 21.2898811,0.621681082 21.4212324,0.666762163 C18.7815567,2.14632972 16.6082594,4.36276216 15.1815568,7.03762703 L7.77415135,7.03762703 C7.68982703,7.03762703 7.60744865,7.03373513 7.52328648,7.03762703 C7.04312432,7.06908648 6.6433946,7.26692433 6.32198918,7.62741081 C5.9928,7.9960054 5.91820541,8.43870811 5.91820541,8.90914054 L5.91820541,18.7857891 C5.91820541,18.8838973 5.93993514,18.9818433 5.95161082,19.0934108 L7.1880973,19.0934108 L7.1880973,8.93849189 C7.1880973,8.85432974 7.1842054,8.77195135 7.1902054,8.68778918 C7.20577297,8.48395135 7.33112433,8.34676217 7.53496216,8.32308649 C7.65074595,8.30946486 7.76831351,8.31335676 7.88393514,8.31335676 C10.1120432,8.31141082 12.3440432,8.31141082 14.5740973,8.31141082 C13.7765838,10.1928162 13.3376108,12.2621676 13.3376108,14.4314108 C13.3376108,15.9383837 13.5492324,17.396546 13.9470162,18.7780054 C13.0789622,18.7780054 12.2088,18.7780054 11.3407459,18.7758973 C11.1250703,18.7758973 10.9604757,18.8407621 10.7939351,18.9701676 C9.32815135,20.1203838 7.85831351,21.2628163 6.38863784,22.4093027 C6.31225946,22.4701135 6.24171891,22.5387081 6.1535027,22.6189784 C6.41604325,22.9520594 6.64728648,23.2814108 6.91582702,23.5869243 C7.00793513,23.5223838 7.07263784,23.4811946 7.13134054,23.4361135 C8.50112432,22.3681135 9.87285405,21.3020595 11.2387459,20.2282217 C11.385827,20.1126001 11.5308,20.0595729 11.7169622,20.0595729 C12.6026919,20.061519 13.4905297,20.061519 14.3762595,20.061519 C15.704854,23.5243297 18.2190162,26.4031946 21.4212324,28.1981676" id="Fill-1" fill="#FF8A00" fill-rule="nonzero" mask="url(#mask-2)"></path>
                    </g>
                </g>
                <path d="M15.8108108,7.29896933 C15.578145,7.71623223 15.3640445,8.14510848 15.1727679,8.58379883 C12.8302678,8.58379883 10.4858942,8.58379883 8.14560833,8.58576166 C8.02416556,8.58576166 7.90067885,8.58183602 7.77923608,8.59573932 C7.56513569,8.61945675 7.43347332,8.75783559 7.41695166,8.96344101 C7.41081991,9.048333 7.41490774,9.13142572 7.41490774,9.21648128 L7.41490774,19.4594595 L6.11616834,19.4594595 C6.10373451,19.3467609 6.08108108,19.2479655 6.08108108,19.1490067 L6.08108108,9.18671184 C6.08108108,8.71236358 6.15926093,8.26565836 6.50519402,7.89403104 C6.8427811,7.530255 7.26246554,7.33070159 7.76680225,7.29896933 C7.85537202,7.29520725 7.94189786,7.29896933 8.03029731,7.29896933 L15.8108108,7.29896933 Z" id="Fill-4" fill="#FFFFFF" fill-rule="nonzero"></path>
                <path d="M14.5945946,19.5432517 C13.6775455,19.5432517 12.7583136,19.5432517 11.8412645,19.541284 C11.6485197,19.541284 11.4984204,19.5947404 11.3461386,19.7116559 C9.93194873,20.7975105 8.51188251,21.8756582 7.09349527,22.9556097 C7.03271683,23.0011953 6.96572625,23.0428454 6.8703612,23.1081081 C6.59232506,22.7990118 6.35307295,22.4661388 6.08108108,22.1293304 C6.17241662,22.0479979 6.24545147,21.9787996 6.3245306,21.9173084 C7.84634191,20.7579921 9.36798533,19.6026112 10.8857671,18.4396875 C11.0581965,18.3088339 11.2286112,18.2432432 11.4517453,18.2432432 C12.3504937,18.2453749 13.2514249,18.2453749 14.1503412,18.2453749 C14.2781102,18.6871286 14.4282094,19.1192076 14.5945946,19.5432517" id="Fill-6" fill="#FFFFFF" fill-rule="nonzero"></path>
                <g id="Group-10" transform="translate(14.594595, 0.000000)">
                    <g id="Fill-8-Clipped">
                        <mask id="mask-4" fill="white">
                            <use xlink:href="#path-3"></use>
                        </mask>
                        <g id="path-3"></g>
                        <path d="M29.035843,14.5936378 C29.035843,22.6419081 22.5406693,29.1892054 14.5582047,29.1892054 C12.3242922,29.1892054 10.207175,28.6758 8.31560489,27.7626649 C3.44752252,25.4070973 0.0804054054,20.3902865 0.0804054054,14.5936378 C0.0804054054,8.80071892 3.44559203,3.78617837 8.30981338,1.4285027 C10.203314,0.513421622 12.3223616,1.62162162e-05 14.5582047,1.62162162e-05 C22.5406693,1.62162162e-05 29.035843,6.54731351 29.035843,14.5936378" id="Fill-8" fill="#0073F0" fill-rule="nonzero" mask="url(#mask-4)"></path>
                    </g>
                </g>
                <path d="M27.6960987,8.51461133 C30.1323684,8.51461133 32.5687976,8.51399634 35.0050673,8.51476508 C36.552361,8.51538005 37.7015057,9.62219277 37.7021438,11.1126001 C37.7027027,13.4410733 37.7031009,15.7693928 37.7019843,18.0977123 C37.7011867,19.5512207 36.5424711,20.6738691 35.0401606,20.6746379 C31.4635194,20.6760216 27.8868784,20.6760216 24.3102373,20.6746379 C22.8063316,20.6741767 21.635812,19.5635203 21.6278362,18.1104731 C21.6184249,16.3642335 21.6248054,14.6178402 21.6335787,12.8717543 C21.6346954,12.6442112 21.5737608,12.4567956 21.4463084,12.2679963 C20.8509991,11.3870355 20.2651012,10.4999249 19.6784057,9.61342929 C19.6106119,9.51118863 19.5428181,9.40479686 19.5015038,9.29148654 C19.3563453,8.89236364 19.599765,8.54428418 20.0360379,8.51707126 C20.1331824,8.51092144 20.230965,8.51461133 20.3284286,8.51461133 C22.7843186,8.51445759 25.2402086,8.51461133 27.6960987,8.51461133" id="Fill-11" fill="#FFFFFF" fill-rule="nonzero"></path>
                <path d="M27.6960987,9.73082755 C30.1323684,9.73082755 32.5687976,9.73021256 35.0050673,9.73098129 C36.552361,9.73159627 37.7015057,10.838409 37.7021438,12.3288163 C37.7027027,14.6572895 37.7031009,16.985609 37.7019843,19.3139284 C37.7011867,20.7674369 36.5424711,21.8902391 35.0401606,21.8908541 C31.4635194,21.8922378 27.8868784,21.8922378 24.3102373,21.8908541 C22.8063316,21.8903928 21.635812,20.7798903 21.6278362,19.3266893 C21.6184249,17.5806035 21.6248054,15.8340564 21.6335787,14.0879705 C21.6346954,13.8604274 21.5737608,13.6730118 21.4463084,13.4842126 C20.8509991,12.6032518 20.2651012,11.7161411 19.6784057,10.8296455 C19.6106119,10.7274048 19.5428181,10.6210131 19.5015038,10.5077028 C19.3563453,10.1085799 19.599765,9.76050039 20.0360379,9.73328748 C20.1331824,9.72713766 20.230965,9.73082755 20.3284286,9.73082755 C22.7843186,9.73067381 25.2402086,9.73082755 27.6960987,9.73082755" id="Fill-13" fill="#005AC3" fill-rule="nonzero"></path>
                <path d="M27.6960987,8.51461133 C30.1323684,8.51461133 32.5687976,8.51399634 35.0050673,8.51476508 C36.552361,8.51538005 37.7015057,9.62219277 37.7021438,11.1126001 C37.7027027,13.4410733 37.7031009,15.7693928 37.7019843,18.0977123 C37.7011867,19.5512207 36.5424711,20.6738691 35.0401606,20.6746379 C31.4635194,20.6760216 27.8868784,20.6760216 24.3102373,20.6746379 C22.8063316,20.6741767 21.635812,19.5635203 21.6278362,18.1104731 C21.6184249,16.3642335 21.6248054,14.6178402 21.6335787,12.8717543 C21.6346954,12.6442112 21.5737608,12.4567956 21.4463084,12.2679963 C20.8509991,11.3870355 20.2651012,10.4999249 19.6784057,9.61342929 C19.6106119,9.51118863 19.5428181,9.40479686 19.5015038,9.29148654 C19.3563453,8.89236364 19.599765,8.54428418 20.0360379,8.51707126 C20.1331824,8.51092144 20.230965,8.51461133 20.3284286,8.51461133 C22.7843186,8.51445759 25.2402086,8.51461133 27.6960987,8.51461133" id="Fill-15" fill="#FFFFFF" fill-rule="nonzero"></path>
                <path d="M29.7972995,14.5943555 C28.3167543,14.5943555 26.8362092,14.5943555 25.3556639,14.5942266 C25.2518745,14.5942266 25.1479305,14.5960309 25.0446044,14.5916488 C24.6189437,14.5741203 24.3285803,14.331557 24.3243243,13.9925869 C24.32024,13.6449815 24.6172448,13.3967472 25.0581958,13.3808942 C25.1524095,13.3775432 25.2467777,13.3787031 25.3411458,13.3787031 C28.3116575,13.3785743 31.2821692,13.3785743 34.2528353,13.3787031 C34.3564704,13.3787031 34.4604143,13.3768987 34.563895,13.3817964 C34.9839954,13.4017737 35.2742045,13.6537458 35.2702703,13.9922003 C35.2658643,14.3312992 34.9755007,14.5741203 34.5499946,14.5916488 C34.4466684,14.5960309 34.3427244,14.5942266 34.2390893,14.5942266 C32.7583897,14.5943555 31.2778446,14.5943555 29.7972995,14.5943555" id="Fill-17" fill="#80B4FE" fill-rule="nonzero"></path>
                <path d="M29.7945409,12.159829 C28.2372562,12.159829 26.6799715,12.156997 25.1228413,12.1621622 C24.7744953,12.1631759 24.515128,12.0663744 24.3796516,11.7896147 C24.1990677,11.4206877 24.4788259,11.0146877 24.9532253,10.9562464 C25.036643,10.9459459 25.1228413,10.9481367 25.2076493,10.9481367 C28.2655255,10.9477505 31.3232471,10.9490378 34.3812778,10.9459459 C34.6590279,10.9456909 34.9051101,10.9862394 35.0926452,11.1726338 C35.2804896,11.3596718 35.3195724,11.5665336 35.2088122,11.7893573 C35.0988244,12.0105075 34.9072727,12.1497884 34.6078959,12.1555811 C34.3154705,12.161245 34.0227362,12.1599577 33.730311,12.1600865 C32.4183361,12.1604726 31.1063612,12.1603439 29.7945409,12.1603439 L29.7945409,12.159829 Z" id="Fill-19" fill="#80B4FE" fill-rule="nonzero"></path>
                <path d="M28.5959196,17.0277078 C29.7342223,17.0278367 30.8726794,17.0244836 32.010828,17.0315769 C32.1740814,17.0327376 32.3544463,17.0573707 32.4956549,17.1201786 C32.7754518,17.2443758 32.8896828,17.5034746 32.8159953,17.7701826 C32.7450827,18.026831 32.5406692,18.1748875 32.2375944,18.2286675 C32.1648319,18.2415644 32.087907,18.2414355 32.0129862,18.2414355 C29.7268228,18.2420804 27.4406593,18.2411776 25.1546499,18.2432432 C24.9180174,18.243499 24.7094415,18.1992626 24.5406386,18.051593 C24.3226592,17.8611057 24.2665456,17.6430191 24.3854015,17.4001704 C24.4985534,17.168671 24.7014254,17.0317059 25.0115913,17.0305451 C25.6605966,17.0283527 26.309756,17.0280947 26.9589155,17.0275788 C27.5046348,17.0271919 28.0502001,17.0275788 28.5959196,17.0277078" id="Fill-21" fill="#80B4FE" fill-rule="nonzero"></path>
            </g>
        </g>
    </g>
</svg>