<?xml version="1.0" encoding="UTF-8"?>
<svg width="32px" height="32px" viewBox="0 0 32 32" version="1.1" xmlns="http://www.w3.org/2000/svg" xmlns:xlink="http://www.w3.org/1999/xlink">
    <!-- Generator: Sketch 57.1 (83088) - https://sketch.com -->
    <title>Group 6</title>
    <desc>Created with Sketch.</desc>
    <defs>
        <polygon id="path-1" points="0.0001 0.000125 17.0275 0.000125 17.0275 11.92405 0.0001 11.92405"></polygon>
    </defs>
    <g id="Page-1" stroke="none" stroke-width="1" fill="none" fill-rule="evenodd">
        <g id="RCS-BOT-Directory---Submit-a-Bot---BOT-Basic-Details" transform="translate(-1287.000000, -1014.000000)">
            <g id="Group-6" transform="translate(1287.000000, 1014.000000)">
                <circle id="Oval-Copy" stroke="#00A4FF" cx="16" cy="16" r="15.5"></circle>
                <g id="Group-3" transform="translate(7.000000, 10.000000)">
                    <mask id="mask-2" fill="white">
                        <use xlink:href="#path-1"></use>
                    </mask>
                    <g id="Clip-2"></g>
                    <path d="M5.96135,11.924125 C5.73235,11.924125 5.5171,11.835125 5.3551,11.672875 L0.2506,6.568125 C-0.0834,6.233875 -0.0834,5.689875 0.2506,5.355875 C0.4126,5.193875 0.62785,5.104875 0.85685,5.104875 C1.0856,5.104875 1.30085,5.193875 1.46285,5.355875 L5.6651,9.558125 C5.7471,9.639875 5.8541,9.680875 5.96135,9.680875 C6.0686,9.680875 6.1756,9.639875 6.2576,9.558125 L15.5646,0.251125 C15.7266,0.089125 15.94185,0.000125 16.17085,0.000125 C16.3996,0.000125 16.6151,0.089125 16.7771,0.251125 C17.1111,0.585375 17.1111,1.129375 16.7771,1.463625 L6.5676,11.672875 C6.4056,11.835125 6.19035,11.924125 5.96135,11.924125" id="Fill-1" fill="#00A4FF" mask="url(#mask-2)"></path>
                </g>
            </g>
        </g>
    </g>
</svg>