<svg xmlns="http://www.w3.org/2000/svg" xmlns:xlink="http://www.w3.org/1999/xlink" width="56.8" height="56.8" viewBox="0 0 56.8 56.8"><defs><style>.cls-1,.cls-2,.cls-7{fill:#fff;}.cls-1,.cls-2{fill-rule:evenodd;}.cls-2{stroke:#a9a9a9;stroke-width:0.8px;stroke-dasharray:1.92 1.92;}.cls-3{mask:url(#mask);}.cls-4{fill:#e0e0e0;}.cls-5{mask:url(#mask-2-2);}.cls-6{fill:url(#linear-gradient);}</style><mask id="mask" x="8.2" y="7.88" width="39.82" height="40" maskUnits="userSpaceOnUse"><g transform="translate(-0.6 -0.6)"><g id="mask-2"><polygon id="path-1" class="cls-1" points="8.8 8.48 48.62 8.48 48.62 48.48 8.8 48.48 8.8 8.48"/></g></g></mask><mask id="mask-2-2" x="8.31" y="7.97" width="40" height="38.17" maskUnits="userSpaceOnUse"><g transform="translate(-0.6 -0.6)"><g id="mask-4"><path id="path-3" class="cls-1" d="M9.06,27.48a18.88,18.88,0,0,0,2.53,9.46h0l-2.68,9.8,10-2.63a19,19,0,0,0,9,2.3h0A19,19,0,0,0,46.91,27.49h0a18.83,18.83,0,0,0-5.54-13.38h0A18.8,18.8,0,0,0,28,8.57h0A19,19,0,0,0,9.06,27.48"/></g></g></mask><linearGradient id="linear-gradient" x1="-92.74" y1="152.26" x2="-92.74" y2="153.26" gradientTransform="matrix(38, 0, 0, -38.17, 3554.19, 5858.92)" gradientUnits="userSpaceOnUse"><stop offset="0" stop-color="#1faf38"/><stop offset="1" stop-color="#60d669"/></linearGradient></defs><g id="Layer_1" data-name="Layer 1"><g id="Page-1"><g id="Profile---Developer"><path id="Stroke-3" class="cls-2" d="M46,57H12A11,11,0,0,1,1,46V12A11,11,0,0,1,12,1H46A11,11,0,0,1,57,12V46A11,11,0,0,1,46,57Z" transform="translate(-0.6 -0.6)"/></g></g></g><g id="Layer_4" data-name="Layer 4"><g id="Page-1-2" data-name="Page-1"><g id="Profile---Developer-2" data-name="Profile---Developer"><g id="whatsapp-icon-copy"><g id="Group-3"><g id="Fill-1-Clipped"><g class="cls-3"><path id="Fill-1" class="cls-4" d="M28.79,44.79h0a16.55,16.55,0,0,1-8.38-2.3l-.61-.36-6.23,1.64,1.66-6.08-.39-.62a16.48,16.48,0,1,1,14,7.72m14-30.5A19.83,19.83,0,0,0,11.61,38.21L8.8,48.48l10.51-2.76a19.75,19.75,0,0,0,9.47,2.41h0a19.83,19.83,0,0,0,14-33.84" transform="translate(-0.6 -0.6)"/></g></g></g><g id="Group-6"><g id="Fill-4-Clipped"><g class="cls-5"><path id="Fill-4" class="cls-6" d="M11.06,27.48a18.88,18.88,0,0,0,2.53,9.46h0l-2.68,9.8,10-2.63a19,19,0,0,0,9,2.3h0A19,19,0,0,0,48.91,27.49h0a18.83,18.83,0,0,0-5.54-13.38h0A18.8,18.8,0,0,0,30,8.57h0A19,19,0,0,0,11.06,27.48" transform="translate(-0.6 -0.6)"/></g></g></g><g id="Group-11"><path id="Fill-7" class="cls-7" d="M23.69,19.88c-.37-.81-.75-.83-1.1-.84s-.61,0-.94,0a1.82,1.82,0,0,0-1.31.62,5.51,5.51,0,0,0-1.71,4.08,9.6,9.6,0,0,0,2,5.07c.24.32,3.39,5.43,8.37,7.39,4.13,1.63,5,1.31,5.87,1.22s2.9-1.18,3.31-2.32a4,4,0,0,0,.28-2.33c-.12-.21-.45-.33-.94-.57s-2.89-1.43-3.34-1.6-.78-.24-1.1.25-1.27,1.59-1.55,1.92-.58.37-1.07.12a13.33,13.33,0,0,1-3.93-2.43,14.88,14.88,0,0,1-2.73-3.39.71.71,0,0,1,.22-1c.22-.22.49-.57.73-.86a3.08,3.08,0,0,0,.49-.81.92.92,0,0,0,0-.86c-.12-.25-1.07-2.67-1.51-3.64" transform="translate(-0.6 -0.6)"/><path id="Fill-9" class="cls-7" d="M28.59,44.37h0a16.2,16.2,0,0,1-8.29-2.27l-.59-.35-6.17,1.62,1.65-6-.39-.62a16.29,16.29,0,1,1,13.8,7.63M42.45,14.23A19.6,19.6,0,0,0,11.61,37.87L8.82,48l10.4-2.72a19.55,19.55,0,0,0,9.36,2.38h0A19.59,19.59,0,0,0,42.45,14.23" transform="translate(-0.6 -0.6)"/></g></g></g></g></g></svg>