<svg id="Layer_1" data-name="Layer 1" xmlns="http://www.w3.org/2000/svg" xmlns:xlink="http://www.w3.org/1999/xlink" width="20" height="20" viewBox="0 0 20 20"><defs><style>.cls-1{fill-rule:evenodd;fill:url(#linear-gradient);}</style><linearGradient id="linear-gradient" x1="-106.13" y1="129.72" x2="-105.47" y2="128.72" gradientTransform="matrix(13, 0, 0, -16, 1386, 2077)" gradientUnits="userSpaceOnUse"><stop offset="0" stop-color="#b7222c"/><stop offset="1" stop-color="#d81f26"/></linearGradient></defs><g id="Page-2"><g id="RCS-BOT-Directory---Sign-up---Explorer"><g id="Group-8"><path id="password" class="cls-1" d="M10,5.64a2.18,2.18,0,0,0-.72,4.24v4.48h1.44V12.91h1.45V11.45H10.72V9.88A2.18,2.18,0,0,0,10,5.64m6.5,3.63A9,9,0,0,1,10,18,9,9,0,0,1,3.5,9.27V4.91L10,2l6.5,2.91V9.27M10,7.09a.73.73,0,1,1-.72.73A.73.73,0,0,1,10,7.09"/></g></g></g></svg>