<?xml version="1.0" encoding="UTF-8"?>
<svg width="27px" height="15px" viewBox="0 0 27 15" version="1.1" xmlns="http://www.w3.org/2000/svg" xmlns:xlink="http://www.w3.org/1999/xlink">
    <!-- Generator: Sketch 57.1 (83088) - https://sketch.com -->
    <title>Group 3</title>
    <desc>Created with Sketch.</desc>
    <defs>
        <path d="M23.5783066,0.56907142 L14.9120089,8.95158376 C14.1350304,9.71034566 12.8724405,9.71034566 12.0805202,8.95158376 L12.0805202,8.95158376 L3.41422247,0.56907142 C2.63724405,-0.189690473 1.36718318,-0.189690473 0.582733813,0.56907142 L0.582733813,0.56907142 C-0.194244604,1.32783331 -0.194244604,2.54907865 0.582733813,3.31506684 L0.582733813,3.31506684 L12.0805202,14.4363483 C12.8724405,15.1878839 14.1350304,15.1878839 14.9120089,14.4363483 L14.9120089,14.4363483 L26.4172662,3.31506684 C26.8057554,2.93207274 27,2.43345779 27,1.94206913 L27,1.94206913 C27,1.44345417 26.8057554,0.952065518 26.4172662,0.56907142 L26.4172662,0.56907142 C26.021306,0.193303625 25.5132817,0.00541972781 24.9977864,0.00541972781 L24.9977864,0.00541972781 C24.489762,0.00541972781 23.9742667,0.193303625 23.5783066,0.56907142" id="path-1"></path>
        <linearGradient x1="50.0003569%" y1="0.0337034807%" x2="50.0003569%" y2="100%" id="linearGradient-3">
            <stop stop-color="#00BDFF" offset="0%"></stop>
            <stop stop-color="#00BDFF" offset="100%"></stop>
        </linearGradient>
    </defs>
    <g id="Page-1" stroke="none" stroke-width="1" fill="none" fill-rule="evenodd">
        <g id="Profile---Developer" transform="translate(-706.000000, -553.000000)">
            <g id="Group-3" transform="translate(706.000000, 553.000000)">
                <mask id="mask-2" fill="white">
                    <use xlink:href="#path-1"></use>
                </mask>
                <g id="Clip-2"></g>
                <path d="M23.5783066,0.56907142 L14.9120089,8.95158376 C14.1350304,9.71034566 12.8724405,9.71034566 12.0805202,8.95158376 L12.0805202,8.95158376 L3.41422247,0.56907142 C2.63724405,-0.189690473 1.36718318,-0.189690473 0.582733813,0.56907142 L0.582733813,0.56907142 C-0.194244604,1.32783331 -0.194244604,2.54907865 0.582733813,3.31506684 L0.582733813,3.31506684 L12.0805202,14.4363483 C12.8724405,15.1878839 14.1350304,15.1878839 14.9120089,14.4363483 L14.9120089,14.4363483 L26.4172662,3.31506684 C26.8057554,2.93207274 27,2.43345779 27,1.94206913 L27,1.94206913 C27,1.44345417 26.8057554,0.952065518 26.4172662,0.56907142 L26.4172662,0.56907142 C26.021306,0.193303625 25.5132817,0.00541972781 24.9977864,0.00541972781 L24.9977864,0.00541972781 C24.489762,0.00541972781 23.9742667,0.193303625 23.5783066,0.56907142" id="Fill-1" fill="url(#linearGradient-3)" mask="url(#mask-2)"></path>
            </g>
        </g>
    </g>
</svg>