<svg id="Layer_2" data-name="Layer 2" xmlns="http://www.w3.org/2000/svg" width="20" height="20" viewBox="0 0 20 20"><defs><style>.cls-1{fill:#d81f26;fill-rule:evenodd;}</style></defs><g id="Page-1"><g id="Set-Password---Successful"><g id="Group-6"><g id="Group"><path id="Fill-1" class="cls-1" d="M11.54,5.52v.77H8.46V5.52a.29.29,0,0,1,.29-.31h2.49a.29.29,0,0,1,.3.29v0m4.88.77H13.33V5.21a1.7,1.7,0,0,0-1.67-1.74H8.34A1.7,1.7,0,0,0,6.68,5.2h0V6.29H3.58A1.79,1.79,0,0,0,1.83,8.12v1l.23.06.23.06,6.25,1.63V10.7a.53.53,0,0,1,.53-.55h1.86a.53.53,0,0,1,.53.54h0v.11l6.25-1.62.23-.07.23-.06v-1a1.8,1.8,0,0,0-1.75-1.83"/><path id="Fill-4" class="cls-1" d="M17.71,9.3l-6.25,1.56V11a.53.53,0,0,1-.53.53H9.07A.53.53,0,0,1,8.54,11v-.14L2.29,9.3l-.23-.07-.23-.05v5.58a1.75,1.75,0,0,0,1.75,1.76H16.42a1.75,1.75,0,0,0,1.75-1.76V9.18l-.23.06Z"/></g></g></g></g></svg>