<svg id="Layer_1" data-name="Layer 1" xmlns="http://www.w3.org/2000/svg" width="20" height="20" viewBox="0 0 20 20"><defs><style>.cls-1{fill:#d81f26;fill-rule:evenodd;}</style></defs><g id="Page-1"><g id="RCS-BOT-Directory---Submit-a-Bot---BOT-RCS-Details"><path id="description" class="cls-1" d="M15.44,3.6H12.19a2.3,2.3,0,0,0-4.38,0H4.56A1.58,1.58,0,0,0,3,5.2V16.4A1.58,1.58,0,0,0,4.56,18H15.44A1.58,1.58,0,0,0,17,16.4V5.2a1.58,1.58,0,0,0-1.56-1.6M10,3.6a.8.8,0,1,1-.78.8A.79.79,0,0,1,10,3.6m1.56,11.2H6.11V13.2h5.45m2.33-1.6H6.11V10h7.78m0-1.6H6.11V6.8h7.78"/></g></g></svg>