<svg id="Layer_2" data-name="Layer 2" xmlns="http://www.w3.org/2000/svg" xmlns:xlink="http://www.w3.org/1999/xlink" width="20" height="20" viewBox="0 0 20 20"><defs><style>.cls-1,.cls-2,.cls-3{fill-rule:evenodd;}.cls-1{fill:url(#linear-gradient);}.cls-2{fill:url(#linear-gradient-2);}.cls-3{fill:url(#linear-gradient-3);}</style><linearGradient id="linear-gradient" x1="-106.67" y1="-109.7" x2="-106.67" y2="-108.77" gradientTransform="translate(1610 1757) scale(15 16)" gradientUnits="userSpaceOnUse"><stop offset="0" stop-color="#19abe4"/><stop offset="1" stop-color="#4d4d4d"/></linearGradient><linearGradient id="linear-gradient-2" x1="-107.12" y1="-109.66" x2="-106.31" y2="-108.74" gradientTransform="translate(1610 1757) scale(15 16)" gradientUnits="userSpaceOnUse"><stop offset="0" stop-color="#0091ff"/><stop offset="1" stop-color="#44d7b6"/></linearGradient><linearGradient id="linear-gradient-3" x1="-107.12" y1="-109.66" x2="-106.31" y2="-108.74" gradientTransform="translate(1610 1757) scale(15 16)" gradientUnits="userSpaceOnUse"><stop offset="0" stop-color="#b7222c"/><stop offset="1" stop-color="#d81f26"/></linearGradient></defs><g id="Page-1"><g id="Set-Password---Successful"><g id="Group-6"><g id="Fill-2"><g id="Fill-1"><path id="path-4" class="cls-1" d="M16,7.05a.19.19,0,0,1-.18.19H15a.18.18,0,0,1-.17-.18h0V6.22A.17.17,0,0,1,15,6h.86a.18.18,0,0,1,.18.18h0Zm0,2a.18.18,0,0,1-.18.18H15A.18.18,0,0,1,14.84,9h0V8.18A.18.18,0,0,1,15,8h.86a.19.19,0,0,1,.18.19h0Zm0,1.94a.17.17,0,0,1-.17.19H15a.19.19,0,0,1-.17-.2h0v-.82A.16.16,0,0,1,15,9.94h.86a.18.18,0,0,1,.18.18h0Zm0,2a.18.18,0,0,1-.18.18H15a.18.18,0,0,1-.17-.18h0v-.82a.18.18,0,0,1,.17-.2h.85a.18.18,0,0,1,.18.19h0Zm0,1.94a.18.18,0,0,1-.18.18H15a.17.17,0,0,1-.17-.17h0V14a.16.16,0,0,1,.16-.18h.86A.18.18,0,0,1,16,14h0Zm-3.53-11a.2.2,0,0,1-.19.19h-.85a.18.18,0,0,1-.17-.18h0V3.06a.17.17,0,0,1,.16-.18h.86a.19.19,0,0,1,.19.18Zm0,2a.19.19,0,0,1-.19.18h-.85a.18.18,0,0,1-.17-.17h0V5a.18.18,0,0,1,.16-.19h.86a.2.2,0,0,1,.19.19Zm0,1.94a.2.2,0,0,1-.19.19h-.85a.18.18,0,0,1-.17-.18h0V7a.19.19,0,0,1,.17-.16h.85a.2.2,0,0,1,.19.2Zm0,2a.2.2,0,0,1-.19.19h-.85a.18.18,0,0,1-.17-.19h0V8.91a.18.18,0,0,1,.16-.19h.86a.19.19,0,0,1,.19.19Zm0,1.95a.19.19,0,0,1-.19.18h-.85a.18.18,0,0,1-.17-.17h0v-.83a.16.16,0,0,1,.16-.18h.86a.19.19,0,0,1,.19.18Zm0,1.94a.2.2,0,0,1-.19.19h-.85a.18.18,0,0,1-.17-.18h0V12.8a.17.17,0,0,1,.16-.18h.86a.19.19,0,0,1,.19.18Zm-1.9-9.74a.19.19,0,0,1-.19.19H9.58a.19.19,0,0,1-.19-.19V3.06a.18.18,0,0,1,.19-.18h.84a.18.18,0,0,1,.19.18Zm0,2a.18.18,0,0,1-.19.18H9.58a.18.18,0,0,1-.19-.18V5a.19.19,0,0,1,.19-.19h.84a.19.19,0,0,1,.19.19Zm0,1.94a.19.19,0,0,1-.19.19H9.58a.19.19,0,0,1-.19-.19V7a.21.21,0,0,1,.19-.16h.84a.2.2,0,0,1,.19.2Zm0,2a.2.2,0,0,1-.19.19H9.58a.2.2,0,0,1-.19-.19V8.91a.18.18,0,0,1,.19-.19h.84a.18.18,0,0,1,.19.19Zm0,1.95a.18.18,0,0,1-.19.18H9.58a.18.18,0,0,1-.19-.18v-.83a.18.18,0,0,1,.19-.18h.84a.18.18,0,0,1,.19.18Zm0,1.94a.19.19,0,0,1-.19.19H9.58a.19.19,0,0,1-.19-.19V12.8a.18.18,0,0,1,.19-.18h.84a.18.18,0,0,1,.19.18ZM8.7,3.88A.17.17,0,0,1,8.53,4H7.68a.19.19,0,0,1-.19-.18v-.8a.19.19,0,0,1,.19-.18h.85a.18.18,0,0,1,.17.17h0Zm0,2a.18.18,0,0,1-.17.19H7.68a.2.2,0,0,1-.19-.19V5.05a.19.19,0,0,1,.19-.18h.85A.18.18,0,0,1,8.7,5h0Zm0,2A.17.17,0,0,1,8.53,8H7.68a.19.19,0,0,1-.19-.18V7a.21.21,0,0,1,.19-.16h.85A.19.19,0,0,1,8.7,7h0Zm0,1.94a.17.17,0,0,1-.17.19H7.68a.19.19,0,0,1-.19-.19V8.91a.19.19,0,0,1,.19-.19h.85a.18.18,0,0,1,.17.18h0Zm0,2a.18.18,0,0,1-.17.19H7.68a.19.19,0,0,1-.19-.19V10.9a.19.19,0,0,1,.19-.19h.85a.18.18,0,0,1,.17.18h0Zm0,1.95a.17.17,0,0,1-.17.18H7.68a.19.19,0,0,1-.19-.18v-.82a.2.2,0,0,1,.19-.19h.85a.18.18,0,0,1,.17.18h0ZM5.16,7.05A.18.18,0,0,1,5,7.24H4.14A.2.2,0,0,1,4,7.05V6.22A.19.19,0,0,1,4.14,6H5a.18.18,0,0,1,.17.17h0Zm0,2A.17.17,0,0,1,5,9.18H4.14A.19.19,0,0,1,4,9V8.18A.2.2,0,0,1,4.14,8H5a.18.18,0,0,1,.17.18h0Zm0,1.94a.19.19,0,0,1-.17.2H4.14A.2.2,0,0,1,4,11H4v-.82a.19.19,0,0,1,.19-.18H5a.18.18,0,0,1,.17.17h0Zm0,2a.18.18,0,0,1-.16.18H4.14A.19.19,0,0,1,4,12.9v-.82a.2.2,0,0,1,.18-.2H5a.18.18,0,0,1,.17.19h0Zm0,1.94A.16.16,0,0,1,5,15H4.14A.19.19,0,0,1,4,14.84V14a.19.19,0,0,1,.19-.18H5a.16.16,0,0,1,.17.17h0ZM16.16,5H14v9.22a1.35,1.35,0,0,1-.59,1.14V2.6a.75.75,0,0,0-.75-.77H7.38a.75.75,0,0,0-.75.77h0V15.36A1.36,1.36,0,0,1,6,14.18V5H3.84a.76.76,0,0,0-.75.78h0V15.8a.77.77,0,0,0,.75.77H16.16a.77.77,0,0,0,.75-.77v-10a.78.78,0,0,0-.74-.8Z"/><path id="path-4-2" class="cls-2" d="M16,7.05a.19.19,0,0,1-.18.19H15a.18.18,0,0,1-.17-.18h0V6.22A.17.17,0,0,1,15,6h.86a.18.18,0,0,1,.18.18h0Zm0,2a.18.18,0,0,1-.18.18H15A.18.18,0,0,1,14.84,9h0V8.18A.18.18,0,0,1,15,8h.86a.19.19,0,0,1,.18.19h0Zm0,1.94a.17.17,0,0,1-.17.19H15a.19.19,0,0,1-.17-.2h0v-.82A.16.16,0,0,1,15,9.94h.86a.18.18,0,0,1,.18.18h0Zm0,2a.18.18,0,0,1-.18.18H15a.18.18,0,0,1-.17-.18h0v-.82a.18.18,0,0,1,.17-.2h.85a.18.18,0,0,1,.18.19h0Zm0,1.94a.18.18,0,0,1-.18.18H15a.17.17,0,0,1-.17-.17h0V14a.16.16,0,0,1,.16-.18h.86A.18.18,0,0,1,16,14h0Zm-3.53-11a.2.2,0,0,1-.19.19h-.85a.18.18,0,0,1-.17-.18h0V3.06a.17.17,0,0,1,.16-.18h.86a.19.19,0,0,1,.19.18Zm0,2a.19.19,0,0,1-.19.18h-.85a.18.18,0,0,1-.17-.17h0V5a.18.18,0,0,1,.16-.19h.86a.2.2,0,0,1,.19.19Zm0,1.94a.2.2,0,0,1-.19.19h-.85a.18.18,0,0,1-.17-.18h0V7a.19.19,0,0,1,.17-.16h.85a.2.2,0,0,1,.19.2Zm0,2a.2.2,0,0,1-.19.19h-.85a.18.18,0,0,1-.17-.19h0V8.91a.18.18,0,0,1,.16-.19h.86a.19.19,0,0,1,.19.19Zm0,1.95a.19.19,0,0,1-.19.18h-.85a.18.18,0,0,1-.17-.17h0v-.83a.16.16,0,0,1,.16-.18h.86a.19.19,0,0,1,.19.18Zm0,1.94a.2.2,0,0,1-.19.19h-.85a.18.18,0,0,1-.17-.18h0V12.8a.17.17,0,0,1,.16-.18h.86a.19.19,0,0,1,.19.18Zm-1.9-9.74a.19.19,0,0,1-.19.19H9.58a.19.19,0,0,1-.19-.19V3.06a.18.18,0,0,1,.19-.18h.84a.18.18,0,0,1,.19.18Zm0,2a.18.18,0,0,1-.19.18H9.58a.18.18,0,0,1-.19-.18V5a.19.19,0,0,1,.19-.19h.84a.19.19,0,0,1,.19.19Zm0,1.94a.19.19,0,0,1-.19.19H9.58a.19.19,0,0,1-.19-.19V7a.21.21,0,0,1,.19-.16h.84a.2.2,0,0,1,.19.2Zm0,2a.2.2,0,0,1-.19.19H9.58a.2.2,0,0,1-.19-.19V8.91a.18.18,0,0,1,.19-.19h.84a.18.18,0,0,1,.19.19Zm0,1.95a.18.18,0,0,1-.19.18H9.58a.18.18,0,0,1-.19-.18v-.83a.18.18,0,0,1,.19-.18h.84a.18.18,0,0,1,.19.18Zm0,1.94a.19.19,0,0,1-.19.19H9.58a.19.19,0,0,1-.19-.19V12.8a.18.18,0,0,1,.19-.18h.84a.18.18,0,0,1,.19.18ZM8.7,3.88A.17.17,0,0,1,8.53,4H7.68a.19.19,0,0,1-.19-.18v-.8a.19.19,0,0,1,.19-.18h.85a.18.18,0,0,1,.17.17h0Zm0,2a.18.18,0,0,1-.17.19H7.68a.2.2,0,0,1-.19-.19V5.05a.19.19,0,0,1,.19-.18h.85A.18.18,0,0,1,8.7,5h0Zm0,2A.17.17,0,0,1,8.53,8H7.68a.19.19,0,0,1-.19-.18V7a.21.21,0,0,1,.19-.16h.85A.19.19,0,0,1,8.7,7h0Zm0,1.94a.17.17,0,0,1-.17.19H7.68a.19.19,0,0,1-.19-.19V8.91a.19.19,0,0,1,.19-.19h.85a.18.18,0,0,1,.17.18h0Zm0,2a.18.18,0,0,1-.17.19H7.68a.19.19,0,0,1-.19-.19V10.9a.19.19,0,0,1,.19-.19h.85a.18.18,0,0,1,.17.18h0Zm0,1.95a.17.17,0,0,1-.17.18H7.68a.19.19,0,0,1-.19-.18v-.82a.2.2,0,0,1,.19-.19h.85a.18.18,0,0,1,.17.18h0ZM5.16,7.05A.18.18,0,0,1,5,7.24H4.14A.2.2,0,0,1,4,7.05V6.22A.19.19,0,0,1,4.14,6H5a.18.18,0,0,1,.17.17h0Zm0,2A.17.17,0,0,1,5,9.18H4.14A.19.19,0,0,1,4,9V8.18A.2.2,0,0,1,4.14,8H5a.18.18,0,0,1,.17.18h0Zm0,1.94a.19.19,0,0,1-.17.2H4.14A.2.2,0,0,1,4,11H4v-.82a.19.19,0,0,1,.19-.18H5a.18.18,0,0,1,.17.17h0Zm0,2a.18.18,0,0,1-.16.18H4.14A.19.19,0,0,1,4,12.9v-.82a.2.2,0,0,1,.18-.2H5a.18.18,0,0,1,.17.19h0Zm0,1.94A.16.16,0,0,1,5,15H4.14A.19.19,0,0,1,4,14.84V14a.19.19,0,0,1,.19-.18H5a.16.16,0,0,1,.17.17h0ZM16.16,5H14v9.22a1.35,1.35,0,0,1-.59,1.14V2.6a.75.75,0,0,0-.75-.77H7.38a.75.75,0,0,0-.75.77h0V15.36A1.36,1.36,0,0,1,6,14.18V5H3.84a.76.76,0,0,0-.75.78h0V15.8a.77.77,0,0,0,.75.77H16.16a.77.77,0,0,0,.75-.77v-10a.78.78,0,0,0-.74-.8Z"/><path id="path-4-3" class="cls-3" d="M16,7.05a.19.19,0,0,1-.18.19H15a.18.18,0,0,1-.17-.18h0V6.22A.17.17,0,0,1,15,6h.86a.18.18,0,0,1,.18.18h0Zm0,2a.18.18,0,0,1-.18.18H15A.18.18,0,0,1,14.84,9h0V8.18A.18.18,0,0,1,15,8h.86a.19.19,0,0,1,.18.19h0Zm0,1.94a.17.17,0,0,1-.17.19H15a.19.19,0,0,1-.17-.2h0v-.82A.16.16,0,0,1,15,9.94h.86a.18.18,0,0,1,.18.18h0Zm0,2a.18.18,0,0,1-.18.18H15a.18.18,0,0,1-.17-.18h0v-.82a.18.18,0,0,1,.17-.2h.85a.18.18,0,0,1,.18.19h0Zm0,1.94a.18.18,0,0,1-.18.18H15a.17.17,0,0,1-.17-.17h0V14a.16.16,0,0,1,.16-.18h.86A.18.18,0,0,1,16,14h0Zm-3.53-11a.2.2,0,0,1-.19.19h-.85a.18.18,0,0,1-.17-.18h0V3.06a.17.17,0,0,1,.16-.18h.86a.19.19,0,0,1,.19.18Zm0,2a.19.19,0,0,1-.19.18h-.85a.18.18,0,0,1-.17-.17h0V5a.18.18,0,0,1,.16-.19h.86a.2.2,0,0,1,.19.19Zm0,1.94a.2.2,0,0,1-.19.19h-.85a.18.18,0,0,1-.17-.18h0V7a.19.19,0,0,1,.17-.16h.85a.2.2,0,0,1,.19.2Zm0,2a.2.2,0,0,1-.19.19h-.85a.18.18,0,0,1-.17-.19h0V8.91a.18.18,0,0,1,.16-.19h.86a.19.19,0,0,1,.19.19Zm0,1.95a.19.19,0,0,1-.19.18h-.85a.18.18,0,0,1-.17-.17h0v-.83a.16.16,0,0,1,.16-.18h.86a.19.19,0,0,1,.19.18Zm0,1.94a.2.2,0,0,1-.19.19h-.85a.18.18,0,0,1-.17-.18h0V12.8a.17.17,0,0,1,.16-.18h.86a.19.19,0,0,1,.19.18Zm-1.9-9.74a.19.19,0,0,1-.19.19H9.58a.19.19,0,0,1-.19-.19V3.06a.18.18,0,0,1,.19-.18h.84a.18.18,0,0,1,.19.18Zm0,2a.18.18,0,0,1-.19.18H9.58a.18.18,0,0,1-.19-.18V5a.19.19,0,0,1,.19-.19h.84a.19.19,0,0,1,.19.19Zm0,1.94a.19.19,0,0,1-.19.19H9.58a.19.19,0,0,1-.19-.19V7a.21.21,0,0,1,.19-.16h.84a.2.2,0,0,1,.19.2Zm0,2a.2.2,0,0,1-.19.19H9.58a.2.2,0,0,1-.19-.19V8.91a.18.18,0,0,1,.19-.19h.84a.18.18,0,0,1,.19.19Zm0,1.95a.18.18,0,0,1-.19.18H9.58a.18.18,0,0,1-.19-.18v-.83a.18.18,0,0,1,.19-.18h.84a.18.18,0,0,1,.19.18Zm0,1.94a.19.19,0,0,1-.19.19H9.58a.19.19,0,0,1-.19-.19V12.8a.18.18,0,0,1,.19-.18h.84a.18.18,0,0,1,.19.18ZM8.7,3.88A.17.17,0,0,1,8.53,4H7.68a.19.19,0,0,1-.19-.18v-.8a.19.19,0,0,1,.19-.18h.85a.18.18,0,0,1,.17.17h0Zm0,2a.18.18,0,0,1-.17.19H7.68a.2.2,0,0,1-.19-.19V5.05a.19.19,0,0,1,.19-.18h.85A.18.18,0,0,1,8.7,5h0Zm0,2A.17.17,0,0,1,8.53,8H7.68a.19.19,0,0,1-.19-.18V7a.21.21,0,0,1,.19-.16h.85A.19.19,0,0,1,8.7,7h0Zm0,1.94a.17.17,0,0,1-.17.19H7.68a.19.19,0,0,1-.19-.19V8.91a.19.19,0,0,1,.19-.19h.85a.18.18,0,0,1,.17.18h0Zm0,2a.18.18,0,0,1-.17.19H7.68a.19.19,0,0,1-.19-.19V10.9a.19.19,0,0,1,.19-.19h.85a.18.18,0,0,1,.17.18h0Zm0,1.95a.17.17,0,0,1-.17.18H7.68a.19.19,0,0,1-.19-.18v-.82a.2.2,0,0,1,.19-.19h.85a.18.18,0,0,1,.17.18h0ZM5.16,7.05A.18.18,0,0,1,5,7.24H4.14A.2.2,0,0,1,4,7.05V6.22A.19.19,0,0,1,4.14,6H5a.18.18,0,0,1,.17.17h0Zm0,2A.17.17,0,0,1,5,9.18H4.14A.19.19,0,0,1,4,9V8.18A.2.2,0,0,1,4.14,8H5a.18.18,0,0,1,.17.18h0Zm0,1.94a.19.19,0,0,1-.17.2H4.14A.2.2,0,0,1,4,11H4v-.82a.19.19,0,0,1,.19-.18H5a.18.18,0,0,1,.17.17h0Zm0,2a.18.18,0,0,1-.16.18H4.14A.19.19,0,0,1,4,12.9v-.82a.2.2,0,0,1,.18-.2H5a.18.18,0,0,1,.17.19h0Zm0,1.94A.16.16,0,0,1,5,15H4.14A.19.19,0,0,1,4,14.84V14a.19.19,0,0,1,.19-.18H5a.16.16,0,0,1,.17.17h0ZM16.16,5H14v9.22a1.35,1.35,0,0,1-.59,1.14V2.6a.75.75,0,0,0-.75-.77H7.38a.75.75,0,0,0-.75.77h0V15.36A1.36,1.36,0,0,1,6,14.18V5H3.84a.76.76,0,0,0-.75.78h0V15.8a.77.77,0,0,0,.75.77H16.16a.77.77,0,0,0,.75-.77v-10a.78.78,0,0,0-.74-.8Z"/></g></g></g></g></g></svg>