<svg id="Layer_1" data-name="Layer 1" xmlns="http://www.w3.org/2000/svg" width="20" height="20" viewBox="0 0 20 20"><defs><style>.cls-1{fill:#fff;}.cls-1,.cls-2{fill-rule:evenodd;}.cls-2{fill:#d81f26;}</style></defs><g id="Page-1"><g id="RCS-BOT-Directory---Submit-a-Bot---BOT-RCS-Details"><g id="Group-7"><g id="Group-3"><g id="Fill-1"><path id="path-3" class="cls-1" d="M17.67,2.33a.36.36,0,0,0-.3-.08,21.94,21.94,0,0,0-3,.54L17.25,5.6a21.94,21.94,0,0,0,.54-3,.36.36,0,0,0-.08-.3"/><path id="path-3-2" class="cls-2" d="M17.67,2.33a.36.36,0,0,0-.3-.08,21.94,21.94,0,0,0-3,.54L17.25,5.6a21.94,21.94,0,0,0,.54-3,.36.36,0,0,0-.08-.3"/></g></g><g id="Group-6"><g id="Fill-4"><path id="path-6" class="cls-1" d="M13.76,7.87a1.15,1.15,0,1,1-1.62-1.63,1.14,1.14,0,0,1,1.62,0,1.15,1.15,0,0,1,0,1.63h0m.15-4.93A14.31,14.31,0,0,0,7.25,8.7L6,8.8,5,8.86A.28.28,0,0,0,4.83,9L2.32,11.74a.28.28,0,0,0,0,.38l.54.54a.26.26,0,0,0,.33,0l2-1.22.23.09L5.17,12a.29.29,0,0,0,0,.33L7.6,14.73a.29.29,0,0,0,.33,0l.43-.24.09.22-1.22,2a.3.3,0,0,0,0,.34l.54.54a.3.3,0,0,0,.38,0l2.9-2.34a.3.3,0,0,0,.1-.2v-1a9.42,9.42,0,0,1,.1-1.24A14.25,14.25,0,0,0,17,6.11.21.21,0,0,0,17,6L14,3h-.12"/><path id="path-6-2" class="cls-2" d="M13.76,7.87a1.15,1.15,0,1,1-1.62-1.63,1.14,1.14,0,0,1,1.62,0,1.15,1.15,0,0,1,0,1.63h0m.15-4.93A14.31,14.31,0,0,0,7.25,8.7L6,8.8,5,8.86A.28.28,0,0,0,4.83,9L2.32,11.74a.28.28,0,0,0,0,.38l.54.54a.26.26,0,0,0,.33,0l2-1.22.23.09L5.17,12a.29.29,0,0,0,0,.33L7.6,14.73a.29.29,0,0,0,.33,0l.43-.24.09.22-1.22,2a.3.3,0,0,0,0,.34l.54.54a.3.3,0,0,0,.38,0l2.9-2.34a.3.3,0,0,0,.1-.2v-1a9.42,9.42,0,0,1,.1-1.24A14.25,14.25,0,0,0,17,6.11.21.21,0,0,0,17,6L14,3h-.12"/></g></g></g></g></g></svg>