<?xml version="1.0" encoding="UTF-8"?>
<svg width="124px" height="124px" viewBox="0 0 124 124" version="1.1" xmlns="http://www.w3.org/2000/svg" xmlns:xlink="http://www.w3.org/1999/xlink">
    <!-- Generator: sketchtool 57.1 (101010) - https://sketch.com -->
    <title>21909A9D-4884-48F3-9627-65F0E32178B7</title>
    <desc>Created with sketchtool.</desc>
    <g id="Page-1" stroke="none" stroke-width="1" fill="none" fill-rule="evenodd" opacity="0.200000003" stroke-linecap="round" stroke-linejoin="round">
        <g id="Profile-Page---Manage-Child-Users" transform="translate(-658.000000, -846.000000)" stroke="#000000" stroke-width="6">
            <g id="Group-2" transform="translate(100.000000, 663.000000)">
                <g id="Group-9" transform="translate(560.000000, 185.000000)">
                    <path d="M85.0054426,85.2306885 C78.6808525,78.1664262 69.5687213,74.112 60.0001967,74.112 C50.4336393,74.112 41.3215082,78.164459 34.9949508,85.2306885" id="Stroke-1"></path>
                    <path d="M60.0003934,0.983409836 C27.4567869,0.983409836 0.984,27.4581639 0.984,59.9998033 C0.984,92.5414426 27.4567869,119.016197 60.0003934,119.016197 C92.544,119.016197 119.016787,92.5414426 119.016787,59.9998033 C119.016787,27.4581639 92.544,0.983409836 60.0003934,0.983409836 Z" id="Stroke-3"></path>
                    <path d="M67.6982951,44.604 C67.6982951,51.6780984 73.4523934,57.4341639 80.5264918,57.4341639 C87.6025574,57.4341639 93.3566557,51.6780984 93.3566557,44.604" id="Stroke-5"></path>
                    <path d="M26.6431475,44.604 C26.6431475,51.6780984 32.3972459,57.4341639 39.4713443,57.4341639 C46.5474098,57.4341639 52.3015082,51.6780984 52.3015082,44.604" id="Stroke-7"></path>
                </g>
            </g>
        </g>
    </g>
</svg>