<?xml version="1.0" encoding="UTF-8"?>
<svg width="277px" height="297px" viewBox="0 0 277 297" version="1.1" xmlns="http://www.w3.org/2000/svg" xmlns:xlink="http://www.w3.org/1999/xlink">
    <!-- Generator: Sketch 57.1 (83088) - https://sketch.com -->
    <title>brand-verification</title>
    <desc>Created with Sketch.</desc>
    <g id="brand-verification" stroke="none" stroke-width="1" fill="none" fill-rule="evenodd">
        <g id="Group-36" transform="translate(5.000000, 4.000000)">
            <path d="M191.724093,16.6976601 C168.464144,7.52865606 143.986139,2.92077817 118.96691,2.99899566 C93.94768,3.08143153 69.5000594,7.84624051 46.3001299,17.1644333 L12.4202881,30.7715794 C4.8920829,33.7946618 -0.0260890174,41.0724526 -0.000103289403,49.1474058 L0.320408685,147.890262 C0.411710455,175.996263 19.491685,204.362376 57.0288363,232.198735 C71.0273435,242.579711 84.5042332,250.549696 93.3450884,255.408455 C112.658556,266.022148 116.1385,266.010982 119.820057,266.000707 C123.315718,265.987904 127.666172,265.973908 147.162992,254.893293 C155.85971,249.951452 169.183482,241.78642 183.274189,230.954602 C220.041861,202.68765 238.639882,174.484126 239,147.125409 L238.679695,48.3827017 C238.204627,40.3077486 233.239158,33.0615226 225.691644,30.0868299 L191.724093,16.6976601 Z" id="Fill-1" fill="#000000" opacity="0.0589192708"></path>
            <path d="M96.1293682,253.408449 C87.3089442,248.549688 73.8631996,240.579847 59.8970429,230.198716 C22.4466398,202.362342 3.41060966,173.996213 3.31966822,145.890197 L2.99989695,47.1472861 C2.97397127,39.0724774 7.88077732,31.7945337 15.3914355,28.7714497 L49.1931305,15.1644449 C72.3392957,5.84624698 96.7305673,1.08128648 121.691978,0.998992011 C146.653388,0.920633033 171.074824,5.52851346 194.28087,14.6975225 L228.170072,28.0868486 C235.700143,31.061543 240.653838,38.3076241 240.679971,46.3825817 L241.000313,145.125493 C241.088237,172.484076 222.533196,200.687764 185.850344,228.954582 C171.7925,239.786407 158.499519,247.951443 149.822899,252.893286 C130.370987,263.974057 126.030586,263.988052 122.543154,264.000707 C118.869956,264.010982 115.398053,264.022148 96.1293682,253.408449 Z" id="Fill-3" fill="#FFFFFF"></path>
            <path d="M23.3205526,146.356791 L23,47.3937994 L56.9060751,33.7563384 C98.8282117,16.8944735 145.655102,16.7439079 187.685688,33.3358288 L221.67939,46.7551263 L222.000412,145.717969 C222.161118,195.466573 127.906675,244.984181 122.98095,245 C119.957121,245.009698 23.4880188,197.999927 23.3205526,146.356791 Z" id="Fill-5" fill="#7CD845"></path>
            <path d="M109.317496,163 C106.78848,163.008149 104.256334,162.050437 102.319558,160.125173 L70.9183305,128.909714 C67.0449272,125.060826 67.0246593,118.799394 70.8733238,114.925456 C74.7218393,111.049879 80.9768692,111.029749 84.8502724,114.880277 L109.240448,139.124706 L158.104553,89.9199872 C161.953218,86.0444094 168.208098,86.0241309 172.081651,89.8748079 C175.955054,93.7238448 175.975322,99.9851277 172.126806,103.859065 L116.296656,160.079994 C114.372249,162.017932 111.846512,162.991747 109.317496,163" id="Fill-7" fill="#FFFFFF"></path>
            <g id="Group-12" transform="translate(146.000000, 128.000000)">
                <path d="M28.951447,97.1245714 L28.951447,150.584479 C28.951447,153.299318 31.9538433,154.929548 34.2366083,153.462267 L61.9298802,135.620424 L86.5374378,153.037567 C88.8069309,154.648627 91.9449954,153.024295 91.9449954,150.241622 L91.9449954,97.1245714 L28.951447,97.1245714 Z" id="Fill-1" fill="#00A4FF"></path>
                <path d="M60.4477051,5.90119816 C90.5837419,5.90119816 115.014341,30.3317972 115.014341,60.4678341 C115.014341,90.6046083 90.5837419,115.03447 60.4477051,115.03447 C30.3109309,115.03447 5.88106912,90.6046083 5.88106912,60.4678341 C5.88106912,30.3317972 30.3109309,5.90119816 60.4477051,5.90119816" id="Fill-3" fill="#FFFFFF"></path>
                <path d="M86.7048848,51.4074101 L72.32553,49.3178249 C71.2505069,49.1615115 70.32,48.4861198 69.8392627,47.5121106 L63.4082949,34.4828018 C62.198341,32.0282396 58.6975115,32.0282396 57.4846083,34.4828018 L51.0536406,47.5121106 C50.5729032,48.4861198 49.6423963,49.1615115 48.5673733,49.3178249 L34.1880184,51.4074101 C31.4798157,51.8011429 30.398894,55.1294378 32.3579724,57.0413272 L42.7631336,67.1832627 C43.5417512,67.9419724 43.8971429,69.0354286 43.7128111,70.1060276 L41.2560369,84.4263963 C40.7929954,87.1235392 43.6243318,89.1821567 46.0471889,87.9080553 L58.9076498,81.146765 C59.8691244,80.6409585 61.0193548,80.6409585 61.9815668,81.146765 L74.8412903,87.9080553 C77.2641475,89.1821567 80.0954839,87.1235392 79.6339171,84.4263963 L77.1771429,70.1060276 C76.9928111,69.0354286 77.3489401,67.9419724 78.1268203,67.1832627 L88.5327189,57.0413272 C90.4954839,55.1316498 89.4138249,51.8011429 86.7048848,51.4074101" id="Fill-5" fill="#F9D335"></path>
                <path d="M60.4477051,41.8077051 L64.5494562,50.1210691 C67.2008848,55.4865991 71.8541567,55.2093641 80.6497327,56.4864147 C69.6185806,67.2425438 70.2792258,64.7607005 72.9336037,80.2357235 C59.2812535,73.0585806 61.8397788,72.9406083 47.9595945,80.2357235 C50.5675207,65.0408848 51.4707465,67.4298249 40.2449401,56.4864147 C55.7302857,54.2353548 53.6134194,55.653235 60.4477051,41.8077051 L60.4477051,41.8077051 Z M37.6694562,70.4513917 L35.4449401,83.4254009 C34.1546175,90.9372903 42.0469677,96.6766452 48.7942488,93.1271521 L60.4477051,87.0014378 L72.100424,93.1271521 C78.8447558,96.6736959 86.737106,90.9417143 85.4497327,83.4268756 L83.2237419,70.4528664 L92.652682,61.2628203 C98.1103779,55.9422673 95.095447,46.6652166 87.5533272,45.5680737 L74.5262304,43.6760922 L68.697659,31.8707465 C67.1374747,28.7061382 63.9780276,26.740424 60.4491797,26.740424 L60.4477051,26.740424 C56.9203318,26.740424 53.7586728,28.7046636 52.1955392,31.8707465 L46.3684424,43.6760922 L33.3413456,45.5680737 C29.8501014,46.0753548 27.0040184,48.4760922 25.9142488,51.8309309 C24.8244793,55.1857696 25.7166452,58.8001475 28.2419908,61.2628203 L37.6694562,70.4513917 Z" id="Fill-7" fill="#174481"></path>
                <path d="M60.4477051,11.7969401 C87.2834654,11.7969401 109.115724,33.6291982 109.115724,60.4649585 C109.115724,87.3007189 87.2834654,109.132977 60.4477051,109.132977 C33.6119447,109.132977 11.7796866,87.3007189 11.7796866,60.4649585 C11.7796866,33.6306728 33.6119447,11.7969401 60.4477051,11.7969401 L60.4477051,11.7969401 Z M86.0462304,145.464037 L65.3361843,130.805972 C63.3734194,129.413899 60.7573825,129.356387 58.7341567,130.661456 L34.8499171,146.049475 L34.8499171,115.227724 C50.6419908,122.639336 69.4327742,123.025696 86.0462304,115.227724 L86.0462304,145.464037 Z M23.052682,107.928184 L23.052682,150.5833 C23.052682,157.954359 31.2303779,162.40929 37.4305622,158.418876 L61.7734194,142.735926 L83.1219908,157.84671 C89.2801475,162.216111 97.8434654,157.818691 97.8434654,150.238968 L97.8434654,107.92671 C111.879226,96.844682 120.914433,79.6944516 120.914433,60.4649585 C120.914433,27.1244977 93.7896406,-0.000294930876 60.4491797,-0.000294930876 C3.29526267,-0.000294930876 -21.8792995,72.4494747 23.052682,107.928184 L23.052682,107.928184 Z" id="Fill-9" fill="#174481"></path>
            </g>
        </g>
    </g>
</svg>