<svg id="Layer_1" data-name="Layer 1" xmlns="http://www.w3.org/2000/svg" viewBox="0 0 24 24"><defs><style>.cls-1{fill:#d2d2d2;}</style></defs><path class="cls-1" d="M11.11,0a11.92,11.92,0,0,1,8.27,2.53L21.57.38l1.35,7L15.91,6,18,4a10,10,0,1,0,4,8,9.66,9.66,0,0,0-.31-2.36h2.08a11.87,11.87,0,0,1-.25,5.68A12,12,0,0,1,.06,10.8,12.08,12.08,0,0,1,11.11,0ZM11,5v8.22a.79.79,0,0,0,.79.79h5.42a.79.79,0,0,0,.79-.79v-.42a.79.79,0,0,0-.79-.79H13.79a.79.79,0,0,1-.79-.79V5a.79.79,0,0,0-.79-.79h-.42A.79.79,0,0,0,11,5Z"/><circle class="cls-1" cx="11.92" cy="12.84" r="2.04"/></svg>