<?xml version="1.0" encoding="UTF-8"?>
<svg width="14px" height="18px" viewBox="0 0 14 18" version="1.1" xmlns="http://www.w3.org/2000/svg" xmlns:xlink="http://www.w3.org/1999/xlink">
    <!-- Generator: sketchtool 57.1 (101010) - https://sketch.com -->
    <title>67C7D614-9961-46D9-B1D4-DFC590F0DCF8</title>
    <desc>Created with sketchtool.</desc>
    <g id="Page-1" stroke="none" stroke-width="1" fill="none" fill-rule="evenodd">
        <g id="Profile-Page" transform="translate(-643.000000, -997.000000)" fill="#B2B2B2">
            <path d="M652.439009,1004.06833 L647.560991,1004.06833 L647.560991,1001.23507 C647.560991,999.905434 648.655144,998.823681 650.000026,998.823681 C651.344908,998.823681 652.439009,999.905434 652.439009,1001.23507 L652.439009,1004.06833 Z M650.712611,1009.86919 L650.712611,1011.2094 C650.712611,1011.59848 650.393572,1011.91391 650.000026,1011.91391 C649.60648,1011.91391 649.287389,1011.59848 649.287389,1011.2094 L649.287389,1009.86919 C648.838441,1009.62166 648.534581,1009.14763 648.534581,1008.60326 C648.534581,1007.80308 649.19068,1007.15442 650.000026,1007.15442 C650.809371,1007.15442 651.465471,1007.80308 651.465471,1008.60326 C651.465471,1009.14763 651.161611,1009.62166 650.712611,1009.86919 L650.712611,1009.86919 Z M655.487982,1004.06833 L654.283645,1004.06833 L654.283645,1001.23507 C654.283645,998.899844 652.361972,997 650.000026,997 C647.638028,997 645.716406,998.899844 645.716406,1001.23507 L645.716406,1004.06833 L644.512018,1004.06833 C643.676959,1004.06833 643,1004.73761 643,1005.56321 L643,1013.50517 C643,1014.33076 643.676959,1015 644.512018,1015 L655.487982,1015 C656.323041,1015 657,1014.33076 657,1013.50517 L657,1005.56321 C657,1004.73761 656.323041,1004.06833 655.487982,1004.06833 L655.487982,1004.06833 Z" id="Fill-1"></path>
        </g>
    </g>
</svg>