<?xml version="1.0" encoding="UTF-8"?>
<svg width="120px" height="103px" viewBox="0 0 120 103" version="1.1" xmlns="http://www.w3.org/2000/svg" xmlns:xlink="http://www.w3.org/1999/xlink">
    <!-- Generator: Sketch 57.1 (83088) - https://sketch.com -->
    <title>congrats</title>
    <desc>Created with Sketch.</desc>
    <g id="Version-4---New-Theme" stroke="none" stroke-width="1" fill="none" fill-rule="evenodd">
        <g id="Set-Password---Successful" transform="translate(-660.000000, -201.000000)">
            <g id="congrats" transform="translate(660.000000, 201.000000)">
                <path d="M7.09735535,59.5744681 C7.76391542,59.5744681 8.30489171,60.1146284 8.30489171,60.7801831 L8.304,65.4554681 L12.9870536,65.4557048 C13.6536137,65.4557048 14.1945899,65.9958651 14.1945899,66.6614198 C14.1945899,67.3269745 13.6536137,67.8671348 12.9870536,67.8671348 L8.304,67.8664681 L8.30489171,72.542536 C8.30489171,73.2080907 7.76391542,73.748251 7.09735535,73.748251 C6.43079528,73.748251 5.88981899,73.2080907 5.88981899,72.542536 L5.889,67.8664681 L1.20753636,67.8671348 C0.540976291,67.8671348 -2.22044605e-13,67.3269745 -2.22044605e-13,66.6614198 C-2.22044605e-13,65.9958651 0.540976291,65.4557048 1.20753636,65.4557048 L5.889,65.4554681 L5.88981899,60.7801831 C5.88981899,60.1146284 6.43079528,59.5744681 7.09735535,59.5744681 Z" id="Combined-Shape" fill="#D0D0D0"></path>
                <path d="M110.997284,27.5876185 L114.30817,30.8930426 L117.619474,27.5876185 C118.091017,27.1161839 118.855387,27.1161839 119.32693,27.5876185 C119.798473,28.0578473 119.798473,28.8216678 119.32693,29.2924995 L116.01517,32.5980426 L119.32687,35.9046407 C119.798413,36.3754724 119.798413,37.13869 119.32687,37.6095217 C119.090796,37.845239 118.782271,37.9627962 118.473141,37.9627962 C118.164012,37.9627962 117.855487,37.845239 117.619413,37.6095217 L114.30817,34.3030426 L110.997344,37.6095217 C110.761271,37.845239 110.452745,37.9627962 110.143616,37.9627962 C109.834487,37.9627962 109.525961,37.845239 109.289888,37.6095217 C108.818345,37.13869 108.818345,36.3754724 109.289888,35.9046407 L112.60017,32.5980426 L109.289827,29.2924995 C108.818284,28.8216678 108.818284,28.0578473 109.289827,27.5876185 C109.76137,27.1161839 110.525741,27.1161839 110.997284,27.5876185 Z" id="Combined-Shape" fill="#D0D0D0"></path>
                <path d="M20.0390541,19.4327066 C18.2989942,19.4327066 16.8831578,20.8458046 16.8831578,22.58324 C16.8831578,24.3206753 18.2989942,25.7343762 20.0390541,25.7343762 C21.779114,25.7343762 23.1949504,24.3206753 23.1949504,22.58324 C23.1949504,20.8458046 21.779114,19.4327066 20.0390541,19.4327066 M20.0390541,28.1458062 C16.9670816,28.1458062 14.4680851,25.6499761 14.4680851,22.58324 C14.4680851,19.5165038 16.9670816,17.0212766 20.0390541,17.0212766 C23.1110266,17.0212766 25.6100231,19.5165038 25.6100231,22.58324 C25.6100231,25.6499761 23.1110266,28.1458062 20.0390541,28.1458062" id="Fill-26" fill="#D0D0D0"></path>
                <path d="M73.5532907,5.86640642 L76.513566,8.82161393 L79.4738414,5.86640642 L76.513566,2.91119891 L73.5532907,5.86640642 Z M76.513566,11.7328128 C76.1935689,11.7328128 75.8862509,11.6062128 75.6598378,11.3795383 L70.992106,6.71884694 C70.765693,6.49277538 70.6382979,6.1859209 70.6382979,5.86640642 C70.6382979,5.54689194 70.765693,5.24003747 70.992106,5.01396591 L75.6598378,0.3532745 C75.8862509,0.127202934 76.1935689,4.64517314e-13 76.513566,4.64517314e-13 C76.8341669,4.64517314e-13 77.1408812,0.127202934 77.3672943,0.3532745 L82.0350261,5.01396591 C82.506569,5.48479762 82.506569,6.24801523 82.0350261,6.71884694 L77.3672943,11.3795383 C77.1408812,11.6056099 76.8341669,11.7328128 76.513566,11.7328128 L76.513566,11.7328128 Z" id="Fill-28" fill="#D0D0D0"></path>
                <polyline id="Path-8" stroke="#D0D0D0" stroke-width="4" stroke-linecap="round" transform="translate(62.519659, 51.821073) rotate(-315.000000) translate(-62.519659, -51.821073) " points="71.4222959 33.1914894 71.4222959 70.4506568 53.6170213 70.4506568"></polyline>
                <circle id="Oval" stroke="#D0D0D0" stroke-width="4" cx="62.1276596" cy="59.5744681" r="40.5531915"></circle>
            </g>
        </g>
    </g>
</svg>