<?xml version="1.0" encoding="UTF-8"?>
<svg width="40px" height="40px" viewBox="0 0 40 40" version="1.1" xmlns="http://www.w3.org/2000/svg" xmlns:xlink="http://www.w3.org/1999/xlink">
    <!-- Generator: Sketch 57.1 (83088) - https://sketch.com -->
    <title>whatsapp-icon copy</title>
    <desc>Created with Sketch.</desc>
    <defs>
        <polygon id="path-1" points="2e-05 2e-05 39.8214 2e-05 39.8214 40 2e-05 40"></polygon>
        <path d="M0.2686,19.0024 C0.2676,22.3356 1.1386,25.59 2.7946,28.4588 L2.7946,28.4588 L0.1102,38.2604 L10.1408,35.6302 C12.9042,37.1364 16.0154,37.9314 19.1822,37.9322 L19.1822,37.9322 L19.1904,37.9322 C29.6182,37.9322 38.1066,29.4466 38.1110031,19.0172 L38.1110031,19.0172 C38.113,13.9632 36.1468,9.211 32.5742,5.6358 L32.5742,5.6358 C29.0022,2.0604 24.2516,0.0908 19.1898,0.0884 L19.1898,0.0884 C8.7608,0.0884 0.273,8.5732 0.2686,19.0024" id="path-3"></path>
        <linearGradient x1="49.9999506%" y1="99.9998911%" x2="49.9999506%" y2="-3.73048308e-05%" id="linearGradient-5">
            <stop stop-color="#1FAF38" offset="0%"></stop>
            <stop stop-color="#60D669" offset="100%"></stop>
        </linearGradient>
    </defs>
    <g id="Page-1" stroke="none" stroke-width="1" fill="none" fill-rule="evenodd">
        <g id="Profile---Developer" transform="translate(-686.000000, -940.000000)">
            <g id="whatsapp-icon-copy" transform="translate(686.000000, 940.000000)">
                <g id="Group-3">
                    <g id="Fill-1-Clipped">
                        <mask id="mask-2" fill="white">
                            <use xlink:href="#path-1"></use>
                        </mask>
                        <g id="path-1"></g>
                        <path d="M19.99402,36.30922 L19.98762,36.30922 C17.03002,36.30762 14.12962,35.51342 11.59982,34.01242 L10.99782,33.65542 L4.76042,35.29082 L6.42562,29.21182 L6.03342,28.58842 C4.38362,25.96522 3.51282,22.93382 3.51401752,19.82122 C3.51762,10.73762 10.91002,3.34782 20.00022,3.34782 C24.40222,3.34962 28.53962,5.06542 31.65122,8.17922 C34.76262,11.29302 36.47482,15.43222 36.4734217,19.83442 C36.46982,28.91822 29.07702,36.30922 19.99402,36.30922 M34.01942,5.81282 C30.27562,2.06662 25.29782,0.00222 19.99402,2e-05 C9.06482,2e-05 0.17082,8.89122 0.16642,19.81982 C0.16502,23.31322 1.07802,26.72322 2.81302,29.72922 L2e-05,40.00002 L10.51082,37.24382 C13.40662,38.82322 16.66742,39.65542 19.98542,39.65682 L19.99402,39.65682 C30.92142,39.65682 39.81682,30.76402 39.8214223,19.83582 C39.82322,14.53942 37.76262,9.55922 34.01942,5.81282" id="Fill-1" fill="#E0E0E0" fill-rule="nonzero" mask="url(#mask-2)"></path>
                    </g>
                </g>
                <g id="Group-6">
                    <g id="Fill-4-Clipped">
                        <mask id="mask-4" fill="white">
                            <use xlink:href="#path-3"></use>
                        </mask>
                        <g id="path-3"></g>
                        <path d="M2.2686,19.0024 C2.2676,22.3356 3.1386,25.59 4.7946,28.4588 L4.7946,28.4588 L2.1102,38.2604 L12.1408,35.6302 C14.9042,37.1364 18.0154,37.9314 21.1822,37.9322 L21.1822,37.9322 L21.1904,37.9322 C31.6182,37.9322 40.1066,29.4466 40.1110031,19.0172 L40.1110031,19.0172 C40.113,13.9632 38.1468,9.211 34.5742,5.6358 L34.5742,5.6358 C31.0022,2.0604 26.2516,0.0908 21.1898,0.0884 L21.1898,0.0884 C10.7608,0.0884 2.273,8.5732 2.2686,19.0024" id="Fill-4" fill="url(#linearGradient-5)" fill-rule="nonzero" mask="url(#mask-4)"></path>
                    </g>
                </g>
                <g id="Group-11" fill="#FFFFFF" fill-rule="nonzero">
                    <path d="M14.89442,11.40542 C14.52762,10.58982 14.14142,10.57342 13.79242,10.55922 C13.50702,10.54702 13.18022,10.5476105 12.85402,10.5476105 C12.52742,10.5476105 11.99682,10.67042 11.54822,11.16042 C11.09902,11.65062 9.83382,12.83522 9.83382,15.24462 C9.83382,17.65422 11.58902,19.98262 11.83342,20.30962 C12.07842,20.63602 15.22162,25.73862 20.19922,27.70162 C24.33622,29.33302 25.17802,29.00842 26.07582,28.92682 C26.97382,28.84522 28.97342,27.74242 29.38162,26.59882 C29.78982,25.45542 29.78982,24.47542 29.66722,24.27042 C29.54482,24.06642 29.21822,23.94402 28.72842,23.69902 C28.23882,23.45422 25.83122,22.26922 25.38202,22.10602 C24.93302,21.94282 24.60662,21.86102 24.28002,22.35142 C23.95362,22.84122 23.01542,23.94402 22.72982,24.27042 C22.44402,24.59782 22.15822,24.63862 21.66862,24.39362 C21.17882,24.14802 19.60142,23.63142 17.73042,21.96302 C16.27442,20.66522 15.29162,19.06202 15.00602,18.57182 C14.72022,18.08202 14.97522,17.81682 15.22102,17.57262 C15.44082,17.35322 15.71082,17.00102 15.95582,16.71482 C16.20002,16.42902 16.28182,16.22482 16.44502,15.89842 C16.60802,15.57142 16.52662,15.28542 16.40422,15.04042 C16.28182,14.79562 15.33002,12.37362 14.89442,11.40542" id="Fill-7"></path>
                    <path d="M19.79304,35.89614 L19.78684,35.89614 C16.86304,35.89454 13.99604,35.10954 11.49524,33.62574 L10.90004,33.27294 L4.73444,34.88954 L6.38044,28.88014 L5.99284,28.26414 C4.36204,25.67094 3.50104,22.67434 3.50223751,19.59734 C3.50564,10.61814 10.81344,3.31314 19.79924,3.31314 C24.15064,3.31494 28.24044,5.01114 31.31644,8.08914 C34.39224,11.16714 36.08484,15.25894 36.0834418,19.61074 C36.07964,28.59014 28.77184,35.89614 19.79304,35.89614 M33.65744,5.74994 C29.95664,2.04654 25.03584,0.00594 19.79304,0.00374 C8.98944,0.00374 0.19744,8.79294 0.19304,19.59594 C0.19184,23.04934 1.09424,26.42034 2.80904,29.39174 L0.02864,39.54454 L10.41884,36.82014 C13.28144,38.38134 16.50464,39.20394 19.78464,39.20514 L19.79304,39.20514 C30.59504,39.20514 39.38824,30.41454 39.3928423,19.61194 C39.39464,14.37614 37.35764,9.45334 33.65744,5.74994" id="Fill-9"></path>
                </g>
            </g>
        </g>
    </g>
</svg>