<svg id="Layer_1" data-name="Layer 1" xmlns="http://www.w3.org/2000/svg" width="200" height="200" viewBox="0 0 200 200"><defs><style>.cls-1{fill:#f5f5f5;}</style></defs><path class="cls-1" d="M199.35,200c-65.84,0-133.68.28-199.35,0,0,0,1-16,.63-16a60.06,60.06,0,0,1,5.13-25.21c9-20.91,24.5-34.62,46.11-41.55.68-.22,1.39-.35,2.06-.61,8.75-3.38,16.32-3.83,25.58,1.46,15.78,9,32.46,6.6,47.67-3.38,2.85-1.87,8.15-2.06,12.94-1.12,11.26,3.19,15.61,6.11,24.5,11.29,21.08,12.29,32.6,31.31,34.72,55.79C199.42,181.65,199.35,198.65,199.35,200Z"/><path class="cls-1" d="M146.67,65.55c.07,24-17.23,45.94-39.82,50.06-12.27,2.24-23.29-1.15-33.1-8.66C47.62,86.93,46.19,48.31,71.1,29c15.06-11.65,31.74-13.36,49-5.49C136.52,31,146.61,47.48,146.67,65.55Z"/></svg>