<svg id="Layer_1" data-name="Layer 1" xmlns="http://www.w3.org/2000/svg" xmlns:xlink="http://www.w3.org/1999/xlink" width="15.16" height="15.7" viewBox="0 0 15.16 15.7"><defs><style>.cls-1{fill:#fff;}.cls-1,.cls-3{fill-rule:evenodd;}.cls-2{mask:url(#mask);}.cls-3{fill:#d81f26;}</style><mask id="mask" x="0" y="0" width="15.16" height="15.7" maskUnits="userSpaceOnUse"><g transform="translate(-2 -2)"><g id="mask-2"><polygon id="path-1" class="cls-1" points="2 2 17.16 2 17.16 17.7 2 17.7 2 2"/></g></g></mask></defs><g id="Page-1"><g id="RCS-BOT-Directory---Submit-a-Bot---BOT-RCS-Details"><g id="Group-3"><g class="cls-2"><g id="Fill-1"><path id="path-3" class="cls-1" d="M5.4,4a1.14,1.14,0,0,1,.8-.33h6.35V3.24A1.24,1.24,0,0,0,11.31,2H3.24A1.23,1.23,0,0,0,2,3.24v10a1.23,1.23,0,0,0,1.24,1.23H5.07V4.75A1.15,1.15,0,0,1,5.4,4ZM15.69,15.63a.6.6,0,0,1-.6.6h-7a.6.6,0,0,1-.6-.6V6.75A.78.78,0,0,1,8.24,6h4.13V8.14a1,1,0,0,0,1,1h2.34ZM13.35,6.25l1.92,1.89H13.82a.47.47,0,0,1-.47-.48Zm3.33,1.21L14.16,5A1.63,1.63,0,0,0,13,4.51H6.89a.94.94,0,0,0-.63.26A.9.9,0,0,0,6,5.41V16.47A1.24,1.24,0,0,0,7.24,17.7h8.69a1.23,1.23,0,0,0,1.23-1.23V8.61a1.6,1.6,0,0,0-.48-1.15Z" transform="translate(-2 -2)"/><path id="path-3-2" data-name="path-3" class="cls-3" d="M5.4,4a1.14,1.14,0,0,1,.8-.33h6.35V3.24A1.24,1.24,0,0,0,11.31,2H3.24A1.23,1.23,0,0,0,2,3.24v10a1.23,1.23,0,0,0,1.24,1.23H5.07V4.75A1.15,1.15,0,0,1,5.4,4ZM15.69,15.63a.6.6,0,0,1-.6.6h-7a.6.6,0,0,1-.6-.6V6.75A.78.78,0,0,1,8.24,6h4.13V8.14a1,1,0,0,0,1,1h2.34ZM13.35,6.25l1.92,1.89H13.82a.47.47,0,0,1-.47-.48Zm3.33,1.21L14.16,5A1.63,1.63,0,0,0,13,4.51H6.89a.94.94,0,0,0-.63.26A.9.9,0,0,0,6,5.41V16.47A1.24,1.24,0,0,0,7.24,17.7h8.69a1.23,1.23,0,0,0,1.23-1.23V8.61a1.6,1.6,0,0,0-.48-1.15Z" transform="translate(-2 -2)"/></g></g></g></g></g></svg>