<svg id="Layer_1" data-name="Layer 1" xmlns="http://www.w3.org/2000/svg" width="20" height="20" viewBox="0 0 20 20"><defs><style>.cls-1{fill:#d81f26;fill-rule:evenodd;}</style></defs><g id="Page-1"><g id="RCS-BOT-Directory---Submit-a-Bot---BOT-RCS-Details"><path id="privacy-policy" class="cls-1" d="M10,10.8a.8.8,0,0,0-.81.8v.8h1.62v-.8a.82.82,0,0,0-.81-.8m0-1.6a2.42,2.42,0,0,1,2.44,2.4v.8h.81v3.2H6.75V12.4h.81v-.8A2.43,2.43,0,0,1,10,9.2m.81-6,4.47,4.4H10.81V3.2M5.12,2A1.61,1.61,0,0,0,3.5,3.6V16.4A1.62,1.62,0,0,0,5.12,18h9.76a1.62,1.62,0,0,0,1.62-1.6V6.8L11.62,2H5.12"/></g></g></svg>