<svg id="Layer_1" data-name="Layer 1" xmlns="http://www.w3.org/2000/svg" width="20" height="20" viewBox="0 0 20 20"><defs><style>.cls-1{fill:#fff;}.cls-1,.cls-2{fill-rule:evenodd;}.cls-2{fill:#d81f26;}</style></defs><g id="Page-1"><g id="RCS-BOT-Directory---Submit-a-Bot---BOT-RCS-Details"><g id="Group-10"><g id="Fill-1"><path id="path-1" class="cls-1" d="M12.66,8.45h0l.57-.65L12.38,7l-.52.58-.09.11L10.24,9.38,10,9.1a1.88,1.88,0,0,1-.48-.67,2.71,2.71,0,0,1,0-.57,1.84,1.84,0,0,0-.16-.61A1.24,1.24,0,0,0,8,6.67H7.81a3.41,3.41,0,0,0-.55.14l1.22.59-1,1.91h.8A1,1,0,0,1,9,9.57l.6.6-1.32,1.5.89.78L10.39,11l1.8,1.8a.53.53,0,0,0,.74,0,.52.52,0,0,0,0-.72l0,0-1.84-1.85Z"/><path id="path-1-2" class="cls-2" d="M12.66,8.45h0l.57-.65L12.38,7l-.52.58-.09.11L10.24,9.38,10,9.1a1.88,1.88,0,0,1-.48-.67,2.71,2.71,0,0,1,0-.57,1.84,1.84,0,0,0-.16-.61A1.24,1.24,0,0,0,8,6.67H7.81a3.41,3.41,0,0,0-.55.14l1.22.59-1,1.91h.8A1,1,0,0,1,9,9.57l.6.6-1.32,1.5.89.78L10.39,11l1.8,1.8a.53.53,0,0,0,.74,0,.52.52,0,0,0,0-.72l0,0-1.84-1.85Z"/></g><g id="Fill-3"><polygon id="path-2" class="cls-1" points="7.55 13.33 8.98 12.56 8.13 11.82 7.55 13.33"/><polygon id="path-2-2" class="cls-2" points="7.55 13.33 8.98 12.56 8.13 11.82 7.55 13.33"/></g><g id="Fill-5"><path id="path-3" class="cls-1" d="M6.74,7.43a1.58,1.58,0,0,0,.61,1.4L7.79,8Z"/><path id="path-3-2" class="cls-2" d="M6.74,7.43a1.58,1.58,0,0,0,.61,1.4L7.79,8Z"/></g><g id="Group-9"><g id="Fill-7"><path id="path-6" class="cls-1" d="M10,14.91A4.91,4.91,0,1,1,14.91,10h0A4.91,4.91,0,0,1,10,14.91m6.76-6.26a.73.73,0,0,1-.7-.52A6.53,6.53,0,0,0,15.6,7a.73.73,0,0,1,.14-.86h0a.74.74,0,0,0,0-1l-.87-.87a.74.74,0,0,0-1,0h0A.73.73,0,0,1,13,4.4a6.24,6.24,0,0,0-1.1-.46.73.73,0,0,1-.51-.7.74.74,0,0,0-.74-.74H9.39a.74.74,0,0,0-.74.74.73.73,0,0,1-.52.7A6.53,6.53,0,0,0,7,4.4a.73.73,0,0,1-.86-.14h0a.74.74,0,0,0-1,0l-.87.87a.74.74,0,0,0,0,1h0A.73.73,0,0,1,4.4,7a6.14,6.14,0,0,0-.46,1.09.73.73,0,0,1-.7.52.74.74,0,0,0-.74.74v1.22a.74.74,0,0,0,.74.74.73.73,0,0,1,.7.52A6.18,6.18,0,0,0,4.4,13a.73.73,0,0,1-.14.86h0a.74.74,0,0,0,0,1l.87.87a.74.74,0,0,0,1,0h0A.73.73,0,0,1,7,15.6a6.14,6.14,0,0,0,1.09.46.73.73,0,0,1,.52.7.74.74,0,0,0,.74.74h1.22a.74.74,0,0,0,.74-.74.73.73,0,0,1,.51-.7A6.27,6.27,0,0,0,13,15.6a.73.73,0,0,1,.86.14h0a.74.74,0,0,0,1,0l.87-.87a.74.74,0,0,0,0-1h0A.73.73,0,0,1,15.6,13a6.14,6.14,0,0,0,.46-1.09.73.73,0,0,1,.7-.52.74.74,0,0,0,.74-.74V9.39a.74.74,0,0,0-.74-.74"/><path id="path-6-2" class="cls-2" d="M10,14.91A4.91,4.91,0,1,1,14.91,10h0A4.91,4.91,0,0,1,10,14.91m6.76-6.26a.73.73,0,0,1-.7-.52A6.53,6.53,0,0,0,15.6,7a.73.73,0,0,1,.14-.86h0a.74.74,0,0,0,0-1l-.87-.87a.74.74,0,0,0-1,0h0A.73.73,0,0,1,13,4.4a6.24,6.24,0,0,0-1.1-.46.73.73,0,0,1-.51-.7.74.74,0,0,0-.74-.74H9.39a.74.74,0,0,0-.74.74.73.73,0,0,1-.52.7A6.53,6.53,0,0,0,7,4.4a.73.73,0,0,1-.86-.14h0a.74.74,0,0,0-1,0l-.87.87a.74.74,0,0,0,0,1h0A.73.73,0,0,1,4.4,7a6.14,6.14,0,0,0-.46,1.09.73.73,0,0,1-.7.52.74.74,0,0,0-.74.74v1.22a.74.74,0,0,0,.74.74.73.73,0,0,1,.7.52A6.18,6.18,0,0,0,4.4,13a.73.73,0,0,1-.14.86h0a.74.74,0,0,0,0,1l.87.87a.74.74,0,0,0,1,0h0A.73.73,0,0,1,7,15.6a6.14,6.14,0,0,0,1.09.46.73.73,0,0,1,.52.7.74.74,0,0,0,.74.74h1.22a.74.74,0,0,0,.74-.74.73.73,0,0,1,.51-.7A6.27,6.27,0,0,0,13,15.6a.73.73,0,0,1,.86.14h0a.74.74,0,0,0,1,0l.87-.87a.74.74,0,0,0,0-1h0A.73.73,0,0,1,15.6,13a6.14,6.14,0,0,0,.46-1.09.73.73,0,0,1,.7-.52.74.74,0,0,0,.74-.74V9.39a.74.74,0,0,0-.74-.74"/></g></g></g></g></g></svg>