<?xml version="1.0" encoding="UTF-8"?>
<svg width="18px" height="23px" viewBox="0 0 18 23" version="1.1" xmlns="http://www.w3.org/2000/svg" xmlns:xlink="http://www.w3.org/1999/xlink">
    <!-- Generator: Sketch 57.1 (83088) - https://sketch.com -->
    <title>Group 14</title>
    <desc>Created with Sketch.</desc>
    <defs>
        <polygon id="path-1" points="3.5e-06 0.00469 16.0289535 0.00469 16.0289535 18.475933 3.5e-06 18.475933"></polygon>
        <polygon id="path-3" points="0 22.920275 17.9977 22.920275 17.9977 0.017465 0 0.017465"></polygon>
    </defs>
    <g id="Page-1" stroke="none" stroke-width="1" fill="none" fill-rule="evenodd">
        <g id="Launch-Flow---6" transform="translate(-104.000000, -1713.000000)">
            <g id="Group-14" transform="translate(104.000000, 1713.000000)">
                <g id="Group-3" transform="translate(0.000000, 0.012775)">
                    <mask id="mask-2" fill="white">
                        <use xlink:href="#path-1"></use>
                    </mask>
                    <g id="Clip-2"></g>
                    <path d="M6.9123285,18.475933 L0.4375035,18.475933 C0.195881,18.475933 3.5e-06,18.2800555 3.5e-06,18.038433 L3.5e-06,0.442183 C3.5e-06,0.2005605 0.195881,0.004683 0.4375035,0.004683 L15.5914535,0.004683 C15.833076,0.004683 16.0289535,0.2005605 16.0289535,0.442183 L16.0289535,8.542758 L15.1539535,8.542758 L15.1539535,0.879683 L0.8750035,0.879683 L0.8750035,17.600933 L6.9123285,17.600933 L6.9123285,18.475933 Z" id="Fill-1" fill="#D71F27" mask="url(#mask-2)"></path>
                </g>
                <mask id="mask-4" fill="white">
                    <use xlink:href="#path-3"></use>
                </mask>
                <g id="Clip-5"></g>
                <polygon id="Fill-4" fill="#D71F27" mask="url(#mask-4)" points="3.03618 4.24263 12.9927875 4.24263 12.9927875 3.36763 3.03618 3.36763"></polygon>
                <polygon id="Fill-6" fill="#D71F27" mask="url(#mask-4)" points="3.03618 6.96661 12.9927875 6.96661 12.9927875 6.09161 3.03618 6.09161"></polygon>
                <polygon id="Fill-7" fill="#D71F27" mask="url(#mask-4)" points="3.03625 9.69059 7.6990375 9.69059 7.6990375 8.81559 3.03625 8.81559"></polygon>
                <polygon id="Fill-8" fill="#D71F27" mask="url(#mask-4)" points="3.03625 12.41464 6.912325 12.41464 6.912325 11.53964 3.03625 11.53964"></polygon>
                <polygon id="Fill-9" fill="#D71F27" mask="url(#mask-4)" points="3.03625 15.1384975 6.912325 15.1384975 6.912325 14.2634975 3.03625 14.2634975"></polygon>
                <path d="M10.2503257,20.2606512 C10.3844282,20.2606512 10.5156257,20.3223037 10.6006932,20.4358787 L11.3697657,21.4623937 L12.1112407,18.1838212 C11.7676282,18.3374537 11.3784982,18.5102312 10.9705733,18.3778087 L10.9705557,18.3778087 C10.5469332,18.2402587 10.3209732,17.8443387 10.1394107,17.5262062 C10.0447357,17.3603587 9.93744325,17.1723387 9.84444825,17.1046662 C9.82656325,17.0916637 9.80456575,17.0795187 9.77954075,17.0681262 L8.91145325,20.9064187 L10.0473782,20.3107187 C10.1118832,20.2769087 10.1814808,20.2606512 10.2503257,20.2606512 M11.5875007,22.9202838 C11.4515082,22.9202838 11.3210457,22.8567238 11.2373957,22.7450738 L10.1238182,21.2586588 L8.47897575,22.1212338 C8.32791575,22.2004388 8.14456825,22.1846538 8.00924075,22.0807038 C7.87396575,21.9767538 7.81143825,21.8036788 7.84908075,21.6372713 L9.02684825,16.4296213 C9.07955825,16.1965913 9.30954325,16.0488388 9.54332575,16.0979438 C9.79663825,16.1510388 10.1119008,16.2171188 10.3593333,16.3971763 C10.6042458,16.5754313 10.7610282,16.8501288 10.8993482,17.0924863 C11.0005157,17.2697613 11.1390808,17.5125388 11.2407733,17.5455788 C11.3301982,17.5746988 11.5875882,17.4594788 11.7579158,17.3833188 C11.9876032,17.2806113 12.2479507,17.1642188 12.5221757,17.1392988 C12.7408382,17.1194363 12.9401107,17.2644938 12.9884982,17.4785013 L13.0563458,17.7784863 C13.0707132,17.8420288 13.0707132,17.9079688 13.0563458,17.9714938 L12.0142558,22.5792613 C11.9766307,22.7456688 11.8456957,22.8750113 11.6788682,22.9106238 C11.6484532,22.9171163 11.6178282,22.9202838 11.5875007,22.9202838" id="Fill-10" fill="#D71F27" mask="url(#mask-4)"></path>
                <path d="M13.1480107,18.1838073 L13.8894857,21.4623973 L14.6585408,20.4358648 C14.7873057,20.2640148 15.0217182,20.2110247 15.2118732,20.3107223 L16.3477983,20.9064223 L15.4797107,17.0681298 C15.4546857,17.0795048 15.4327057,17.0916498 15.4148208,17.1046523 C15.4148208,17.1046523 15.4148032,17.1046698 15.4147857,17.1046698 C15.3217907,17.1723598 15.2144983,17.3603623 15.1198232,17.5262273 C14.9382782,17.8443598 14.7123182,18.2402623 14.2887132,18.3778123 C13.8807882,18.5102173 13.4916232,18.3374398 13.1480107,18.1838073 M13.6717507,22.9202698 C13.6414057,22.9202698 13.6108157,22.9171198 13.5803832,22.9106273 C13.4135557,22.8749973 13.2826207,22.7456723 13.2449957,22.5792648 L12.1350582,17.6715123 C12.1072507,17.5485573 12.1338332,17.4195823 12.2079807,17.3176448 C12.2821282,17.2157073 12.3966482,17.1506948 12.5221932,17.1392848 C12.5586457,17.1359773 12.5948007,17.1342973 12.6296257,17.1342973 C12.9444682,17.1342973 13.2403057,17.2665798 13.5013182,17.3833048 C13.6716807,17.4594648 13.9291057,17.5746148 14.0184957,17.5455648 C14.1201532,17.5125773 14.2587182,17.2697998 14.3598857,17.0925248 C14.4981882,16.8501498 14.6549882,16.5754523 14.8999007,16.3971973 C15.1473157,16.2171223 15.4625957,16.1510423 15.7159257,16.0979473 C15.9498482,16.0489298 16.1796932,16.1965773 16.2324032,16.4296248 L17.4101707,21.6372748 C17.4477957,21.8036823 17.3852857,21.9767573 17.2499932,22.0807073 C17.1147007,22.1846223 16.9313007,22.2004423 16.7802757,22.1212373 L15.1354332,21.2586623 L14.0218557,22.7450773 C13.9382057,22.8567098 13.8077432,22.9202698 13.6717507,22.9202698" id="Fill-11" fill="#D71F27" mask="url(#mask-4)"></path>
                <path d="M12.6296258,11.162207 C11.4667158,11.162207 10.5205958,12.1083095 10.5205958,13.2712195 C10.5205958,14.434147 11.4667158,15.3802495 12.6296258,15.3802495 C13.7925358,15.3802495 14.7386557,14.434147 14.7386557,13.2712195 C14.7386557,12.1083095 13.7925358,11.162207 12.6296258,11.162207 M12.6296258,16.2552495 C10.9842407,16.2552495 9.64559575,14.916622 9.64559575,13.2712195 C9.64559575,11.625817 10.9842407,10.287207 12.6296258,10.287207 C14.2750108,10.287207 15.6136557,11.625817 15.6136557,13.2712195 C15.6136557,14.916622 14.2750108,16.2552495 12.6296258,16.2552495 M11.2407908,17.545577 C11.3301982,17.574627 11.5875883,17.459477 11.7579157,17.383317 C11.9876207,17.2806095 12.2479508,17.164217 12.5221758,17.139297 C12.5586458,17.135972 12.5948008,17.1343095 12.6296257,17.1343095 C12.9444682,17.1343095 13.2403057,17.2665745 13.5013357,17.3832995 C13.6716808,17.459477 13.9291057,17.574627 14.0184957,17.545577 C14.1201533,17.512572 14.2587183,17.2697945 14.3598858,17.0925195 C14.4982058,16.8501445 14.6549883,16.5754295 14.8999358,16.397192 C15.1473157,16.2171345 15.4625958,16.151037 15.7159258,16.097942 L15.7349132,16.093952 C15.9329957,16.052477 16.2042633,15.995672 16.2649533,15.9122495 C16.3235782,15.8317145 16.2932682,15.5471645 16.2731957,15.3588995 C16.2432533,15.0779195 16.2093383,14.759437 16.3047658,14.465507 C16.3969733,14.181517 16.5985383,13.960142 16.7934883,13.746047 C16.9401383,13.5849595 17.1226983,13.384462 17.1226983,13.2712195 C17.1226983,13.1579595 16.9401383,12.9574795 16.7934708,12.7963745 C16.5985383,12.5822795 16.3969733,12.360922 16.3047658,12.0769495 C16.2093383,11.783002 16.2432533,11.4645195 16.2731957,11.183557 C16.2932682,10.9952745 16.3235782,10.710742 16.2649707,10.6302245 C16.2042457,10.5467845 15.9329957,10.4899795 15.7349132,10.4485045 C15.4596207,10.3908595 15.1476132,10.3255145 14.8999183,10.145247 C14.6549883,9.9670095 14.4982058,9.692312 14.3598858,9.449937 C14.2587183,9.272662 14.1201533,9.0298845 14.0184783,8.9968795 C13.9291933,8.9678645 13.6716983,9.0829795 13.5013357,9.159157 C13.2403057,9.2758645 12.9444682,9.4081645 12.6296257,9.4081645 C12.3147833,9.4081645 12.0189458,9.2758645 11.7578983,9.159157 C11.5875707,9.0829795 11.3300583,8.967847 11.2407733,8.9968795 C11.1390982,9.0298845 11.0005157,9.2726795 10.8993482,9.4499545 C10.7610282,9.692312 10.6042633,9.9670095 10.3593508,10.1452645 C10.1116383,10.3255145 9.79963075,10.3908595 9.52435575,10.4485045 C9.32625575,10.4899795 9.05498825,10.5467845 8.99426325,10.6302245 C8.93567325,10.710742 8.96598325,10.995257 8.98605575,11.1835395 C9.01599825,11.4645195 9.04991325,11.783002 8.95448575,12.0769495 C8.86227825,12.360922 8.66069575,12.582297 8.46576325,12.796392 C8.31909575,12.957497 8.13653575,13.157977 8.13653575,13.2712195 C8.13653575,13.3844795 8.31909575,13.584977 8.46578075,13.7460645 C8.66071325,13.9601595 8.86227825,14.1815345 8.95448575,14.4655245 C9.04991325,14.7594545 9.01599825,15.0779195 8.98605575,15.358917 C8.96598325,15.547182 8.93567325,15.8317145 8.99428075,15.912267 C9.05498825,15.995672 9.32625575,16.052477 9.52433825,16.093952 L9.54334325,16.097942 C9.79663825,16.151037 10.1119008,16.2171345 10.3593333,16.397192 C10.6042458,16.5754295 10.7610282,16.850127 10.8993482,17.0924845 C11.0005157,17.269777 11.1390982,17.5125545 11.2407908,17.545577 M11.2728507,18.424987 C11.1735207,18.424987 11.0726682,18.410952 10.9705732,18.377807 L10.9705557,18.377807 C10.5469333,18.240257 10.3209732,17.844337 10.1394107,17.5262045 C10.0447358,17.360357 9.93744325,17.1723545 9.84444825,17.1046645 C9.74874075,17.0350145 9.53531075,16.990267 9.36381075,16.954322 L9.34498075,16.9503845 C8.98892575,16.875817 8.54582575,16.7830145 8.28680825,16.427152 C8.02989075,16.074107 8.07561825,15.6448845 8.11597325,15.266202 C8.13765575,15.0626945 8.16009075,14.8522395 8.12225575,14.735742 C8.08828825,14.631162 7.94512075,14.473907 7.81878825,14.335167 C7.57051575,14.0624995 7.26153575,13.723157 7.26153575,13.2712195 C7.26153575,12.819282 7.57051575,12.479957 7.81878825,12.207307 C7.94510325,12.0685495 8.08828825,11.911312 8.12225575,11.8067145 C8.16009075,11.690217 8.13765575,11.479762 8.11597325,11.2762545 C8.07561825,10.8975545 8.02989075,10.4683495 8.28679075,10.1153395 C8.54582575,9.7594245 8.98896075,9.6666395 9.34501575,9.592072 C9.53415575,9.5524695 9.74854825,9.507582 9.84444825,9.437792 C9.93744325,9.3701195 10.0447358,9.182117 10.1394107,9.0162345 C10.3209732,8.6981195 10.5469333,8.3021995 10.9705382,8.1646495 C11.3800558,8.031667 11.7705507,8.206317 12.1150907,8.3603695 C12.3050533,8.4453145 12.5015082,8.533147 12.6296257,8.533147 C12.7577433,8.533147 12.9541982,8.4453145 13.1441432,8.3603695 C13.4886832,8.206282 13.8791957,8.031667 14.2886957,8.1646495 C14.7123182,8.302182 14.9382607,8.698102 15.1198232,9.016217 C15.2144982,9.1820995 15.3217907,9.3700845 15.4147858,9.4377745 C15.5107033,9.5075645 15.7250957,9.5524695 15.9142532,9.592072 C16.2703082,9.6666395 16.7134257,9.759442 16.9724433,10.1153395 C17.2293607,10.4683495 17.1836332,10.8975545 17.1432783,11.276272 C17.1215957,11.479762 17.0991608,11.690217 17.1369958,11.8067145 C17.1709632,11.9112945 17.3141482,12.0685495 17.4404457,12.2072895 C17.6887357,12.479957 17.9976982,12.819282 17.9976982,13.2712195 C17.9976982,13.7231395 17.6887357,14.062482 17.4404633,14.3351495 C17.3141482,14.4738895 17.1709632,14.6311445 17.1369958,14.7357245 C17.0991608,14.852222 17.1215957,15.062677 17.1432783,15.2661845 C17.1836332,15.6448845 17.2293607,16.074107 16.9724433,16.4271345 C16.7134257,16.7830145 16.2703257,16.875817 15.9142707,16.9503845 L15.8954582,16.954322 C15.7239407,16.990267 15.5104932,17.0350145 15.4148207,17.104647 C15.3217907,17.1723545 15.2144982,17.3603745 15.1198232,17.526222 C14.9382782,17.8443545 14.7123182,18.240257 14.2887133,18.377807 C13.8791782,18.510772 13.4887007,18.3361395 13.1441608,18.182087 C12.9541982,18.097142 12.7577607,18.0093095 12.6296257,18.0093095 C12.6211207,18.0093095 12.6116008,18.009782 12.6013632,18.0107095 C12.4721782,18.022452 12.2906332,18.1035995 12.1150732,18.182122 C11.8564407,18.2977445 11.5718732,18.424987 11.2728507,18.424987" id="Fill-12" fill="#D71F27" mask="url(#mask-4)"></path>
                <path d="M12.6296258,11.162207 C11.4667158,11.162207 10.5205958,12.1083095 10.5205958,13.2712195 C10.5205958,14.434147 11.4667158,15.3802495 12.6296258,15.3802495 C13.7925358,15.3802495 14.7386557,14.434147 14.7386557,13.2712195 C14.7386557,12.1083095 13.7925358,11.162207 12.6296258,11.162207 M12.6296258,16.2552495 C10.9842407,16.2552495 9.64559575,14.916622 9.64559575,13.2712195 C9.64559575,11.625817 10.9842407,10.287207 12.6296258,10.287207 C14.2750108,10.287207 15.6136557,11.625817 15.6136557,13.2712195 C15.6136557,14.916622 14.2750108,16.2552495 12.6296258,16.2552495" id="Fill-13" fill="#D71F27" mask="url(#mask-4)"></path>
            </g>
        </g>
    </g>
</svg>