<svg id="Layer_1" data-name="Layer 1" xmlns="http://www.w3.org/2000/svg" xmlns:xlink="http://www.w3.org/1999/xlink" width="20" height="20" viewBox="0 0 20 20"><defs><style>.cls-1{fill:#fff;}.cls-1,.cls-2,.cls-3,.cls-4,.cls-5,.cls-7,.cls-8,.cls-9{fill-rule:evenodd;}.cls-2{fill:url(#linear-gradient);}.cls-3{fill:url(#linear-gradient-2);}.cls-4{fill:url(#linear-gradient-3);}.cls-5{fill:url(#linear-gradient-4);}.cls-6{mask:url(#mask);}.cls-7{fill:url(#linear-gradient-5);}.cls-8{fill:url(#linear-gradient-6);}.cls-9{fill:url(#linear-gradient-7);}</style><linearGradient id="linear-gradient" x1="-540.45" y1="587.81" x2="-540.03" y2="586.81" gradientTransform="matrix(8.42, 0, 0, -12.94, 4555.53, 7609.46)" gradientUnits="userSpaceOnUse"><stop offset="0" stop-color="#b7222c"/><stop offset="1" stop-color="#d81f26"/></linearGradient><linearGradient id="linear-gradient-2" x1="-361.44" y1="554.55" x2="-361.34" y2="553.56" gradientTransform="matrix(2.45, 0, 0, -7.61, 891.23, 4221.66)" xlink:href="#linear-gradient"/><linearGradient id="linear-gradient-3" x1="-296.78" y1="524.91" x2="-296.66" y2="523.91" gradientTransform="matrix(1.95, 0, 0, -5.57, 585.55, 2926.25)" xlink:href="#linear-gradient"/><linearGradient id="linear-gradient-4" x1="-186.92" y1="461.05" x2="-186.76" y2="460.05" gradientTransform="matrix(1.45, 0, 0, -3.53, 278.65, 1631.49)" xlink:href="#linear-gradient"/><mask id="mask" x="12.99" y="1.5" width="2.45" height="7.61" maskUnits="userSpaceOnUse"><g id="mask-10"><polygon id="path-9" class="cls-1" points="12.99 1.5 15.45 1.5 15.45 9.11 12.99 9.11 12.99 1.5"/></g></mask><linearGradient id="linear-gradient-5" x1="-361.4" y1="554.55" x2="-361.3" y2="553.55" gradientTransform="matrix(2.45, 0, 0, -7.61, 899.74, 4221.66)" xlink:href="#linear-gradient"/><linearGradient id="linear-gradient-6" x1="-296.92" y1="524.9" x2="-296.8" y2="523.91" gradientTransform="matrix(1.95, 0, 0, -5.57, 592.16, 2926.25)" xlink:href="#linear-gradient"/><linearGradient id="linear-gradient-7" x1="-187.42" y1="461.04" x2="-187.25" y2="460.04" gradientTransform="matrix(1.45, 0, 0, -3.53, 283.09, 1631.49)" xlink:href="#linear-gradient"/></defs><g id="Page-1"><g id="RCS-BOT-Directory---Submit-a-Bot---BOT-RCS-Details"><g id="Group-16"><g id="Fill-1"><path id="path-2" class="cls-1" d="M10.62,13.68l.81-.56L12,14.65Zm-3.12,1,.58-1.5.8.55ZM10.12,9.7l.37,1H9l.37-.94Zm-1.48,2h2.23l.2.52-1.32.91-1.31-.9Zm2.19-2.89L9.89,6a.69.69,0,0,0,.51-.66.68.68,0,0,0-1.35,0A.68.68,0,0,0,9.56,6l-.79,2.6L7.85,11v0l-2.26,5.9a.5.5,0,0,0,.29.64.57.57,0,0,0,.18,0,.5.5,0,0,0,.46-.32l.37-1,0,0,2.82-1.95,2.82,1.95.07,0,.37.95a.48.48,0,0,0,.46.32.57.57,0,0,0,.18,0,.49.49,0,0,0,.28-.64Z"/><path id="path-2-2" data-name="path-2" class="cls-2" d="M10.62,13.68l.81-.56L12,14.65Zm-3.12,1,.58-1.5.8.55ZM10.12,9.7l.37,1H9l.37-.94Zm-1.48,2h2.23l.2.52-1.32.91-1.31-.9Zm2.19-2.89L9.89,6a.69.69,0,0,0,.51-.66.68.68,0,0,0-1.35,0A.68.68,0,0,0,9.56,6l-.79,2.6L7.85,11v0l-2.26,5.9a.5.5,0,0,0,.29.64.57.57,0,0,0,.18,0,.5.5,0,0,0,.46-.32l.37-1,0,0,2.82-1.95,2.82,1.95.07,0,.37.95a.48.48,0,0,0,.46.32.57.57,0,0,0,.18,0,.49.49,0,0,0,.28-.64Z"/></g><g id="Fill-3"><path id="path-4" class="cls-1" d="M6,9.11A.42.42,0,0,0,6.37,9c.15-.21.07-.53-.2-.79a4,4,0,0,1,0-5.72c.28-.27.36-.59.21-.8A.45.45,0,0,0,6,1.5a.71.71,0,0,0-.48.2,5,5,0,0,0,0,7.21.73.73,0,0,0,.48.2"/><path id="path-4-2" data-name="path-4" class="cls-3" d="M6,9.11A.42.42,0,0,0,6.37,9c.15-.21.07-.53-.2-.79a4,4,0,0,1,0-5.72c.28-.27.36-.59.21-.8A.45.45,0,0,0,6,1.5a.71.71,0,0,0-.48.2,5,5,0,0,0,0,7.21.73.73,0,0,0,.48.2"/></g><g id="Fill-5"><path id="path-6" class="cls-1" d="M6.67,7.87a.65.65,0,0,0,.47.22.43.43,0,0,0,.34-.16c.15-.19.07-.51-.19-.79a2.68,2.68,0,0,1,0-3.67c.27-.29.34-.6.19-.8a.41.41,0,0,0-.34-.15.7.7,0,0,0-.47.21A3.59,3.59,0,0,0,5.62,5.32a3.59,3.59,0,0,0,1,2.55"/><path id="path-6-2" data-name="path-6" class="cls-4" d="M6.67,7.87a.65.65,0,0,0,.47.22.43.43,0,0,0,.34-.16c.15-.19.07-.51-.19-.79a2.68,2.68,0,0,1,0-3.67c.27-.29.34-.6.19-.8a.41.41,0,0,0-.34-.15.7.7,0,0,0-.47.21A3.59,3.59,0,0,0,5.62,5.32a3.59,3.59,0,0,0,1,2.55"/></g><g id="Fill-7"><path id="path-8" class="cls-1" d="M7.78,6.83a.64.64,0,0,0,.48.24.42.42,0,0,0,.33-.16c.09-.13.15-.37-.15-.8a1.41,1.41,0,0,1,0-1.62c.3-.43.25-.67.16-.8a.42.42,0,0,0-.34-.15.63.63,0,0,0-.47.23,2.37,2.37,0,0,0,0,3.06"/><path id="path-8-2" data-name="path-8" class="cls-5" d="M7.78,6.83a.64.64,0,0,0,.48.24.42.42,0,0,0,.33-.16c.09-.13.15-.37-.15-.8a1.41,1.41,0,0,1,0-1.62c.3-.43.25-.67.16-.8a.42.42,0,0,0-.34-.15.63.63,0,0,0-.47.23,2.37,2.37,0,0,0,0,3.06"/></g><g id="Group-11"><g class="cls-6"><g id="Fill-9"><path id="path-12" class="cls-1" d="M13.88,1.7a.69.69,0,0,0-.47-.2.43.43,0,0,0-.34.16c-.15.2-.07.52.2.79a4,4,0,0,1,0,5.72c-.27.26-.35.58-.2.79a.42.42,0,0,0,.34.15.7.7,0,0,0,.47-.2,4.93,4.93,0,0,0,0-7.21"/><path id="path-12-2" data-name="path-12" class="cls-7" d="M13.88,1.7a.69.69,0,0,0-.47-.2.43.43,0,0,0-.34.16c-.15.2-.07.52.2.79a4,4,0,0,1,0,5.72c-.27.26-.35.58-.2.79a.42.42,0,0,0,.34.15.7.7,0,0,0,.47-.2,4.93,4.93,0,0,0,0-7.21"/></g></g></g><g id="Fill-12"><path id="path-14" class="cls-1" d="M12.87,5.31a2.67,2.67,0,0,1-.71,1.83c-.27.28-.34.6-.19.79a.41.41,0,0,0,.33.16.67.67,0,0,0,.48-.22,3.59,3.59,0,0,0,1.05-2.55,3.63,3.63,0,0,0-1.06-2.59.72.72,0,0,0-.48-.21.39.39,0,0,0-.33.15c-.15.2-.08.51.19.8a2.66,2.66,0,0,1,.72,1.84"/><path id="path-14-2" data-name="path-14" class="cls-8" d="M12.87,5.31a2.67,2.67,0,0,1-.71,1.83c-.27.28-.34.6-.19.79a.41.41,0,0,0,.33.16.67.67,0,0,0,.48-.22,3.59,3.59,0,0,0,1.05-2.55,3.63,3.63,0,0,0-1.06-2.59.72.72,0,0,0-.48-.21.39.39,0,0,0-.33.15c-.15.2-.08.51.19.8a2.66,2.66,0,0,1,.72,1.84"/></g><g id="Fill-14"><path id="path-16" class="cls-1" d="M11.26,5.31a1.4,1.4,0,0,1-.25.8c-.3.43-.25.67-.15.8a.39.39,0,0,0,.33.16.62.62,0,0,0,.47-.24,2.39,2.39,0,0,0,.56-1.52,2.42,2.42,0,0,0-.57-1.54.63.63,0,0,0-.48-.23.4.4,0,0,0-.33.15c-.1.13-.15.37.16.8a1.4,1.4,0,0,1,.26.82"/><path id="path-16-2" data-name="path-16" class="cls-9" d="M11.26,5.31a1.4,1.4,0,0,1-.25.8c-.3.43-.25.67-.15.8a.39.39,0,0,0,.33.16.62.62,0,0,0,.47-.24,2.39,2.39,0,0,0,.56-1.52,2.42,2.42,0,0,0-.57-1.54.63.63,0,0,0-.48-.23.4.4,0,0,0-.33.15c-.1.13-.15.37.16.8a1.4,1.4,0,0,1,.26.82"/></g></g></g></g></svg>