<svg id="Layer_1" data-name="Layer 1" xmlns="http://www.w3.org/2000/svg" xmlns:xlink="http://www.w3.org/1999/xlink" width="30" height="30" viewBox="0 0 30 30"><defs><style>.cls-1{fill:#fff;fill-rule:evenodd;}.cls-2{fill:#f7c443;}.cls-3{mask:url(#mask);}</style><mask id="mask" x="11" y="7.07" width="7.86" height="15.64" maskUnits="userSpaceOnUse"><g id="mask-2"><polygon id="path-1" class="cls-1" points="11 7.07 18.86 7.07 18.86 22.71 11 22.71 11 7.07"/></g></mask></defs><g id="Page-1"><g id="Launch---Onboarding-NDA-6---Bot-Launch"><g id="Group"><circle id="Oval" class="cls-2" cx="15" cy="15" r="15"/><g id="Group-8"><path id="Fill-1" class="cls-1" d="M14.93,13.21a.33.33,0,0,1-.24-.1l-1.36-1.43a.38.38,0,0,1,0-.51.33.33,0,0,1,.48,0l1.36,1.43a.36.36,0,0,1,0,.51.31.31,0,0,1-.24.1"/><path id="Fill-3" class="cls-1" d="M16.29,19.83a.35.35,0,0,1-.34-.36V18.35a.35.35,0,0,1,.34-.36.36.36,0,0,1,.35.36v1.12a.36.36,0,0,1-.35.36"/><g id="Group-7"><g class="cls-3"><path id="Fill-5" class="cls-1" d="M17.83,22H12a.36.36,0,0,1,0-.72h5.8a.36.36,0,0,1,0,.72ZM12,8.51a.36.36,0,0,1,0-.72h5.8a.36.36,0,0,1,0,.72Zm6,12V18.21a1.52,1.52,0,0,0-.4-1L16,15.53a.33.33,0,0,0-.48,0,.36.36,0,0,0,0,.51l1.58,1.66a.73.73,0,0,1,.2.51v2.34H12.54V18.21a.71.71,0,0,1,.2-.51l4.86-5.11a1.46,1.46,0,0,0,.41-1V9.22a1.07,1.07,0,0,0,.85-1.07,1.06,1.06,0,0,0-1-1.08H12a1.06,1.06,0,0,0-1,1.08,1.07,1.07,0,0,0,.86,1.07v2.35a1.45,1.45,0,0,0,.4,1l1.58,1.66a.35.35,0,0,0,.24.11.36.36,0,0,0,.25-.11.38.38,0,0,0,0-.51l-1.59-1.66a.71.71,0,0,1-.2-.51V9.23h4.78v2.34a.71.71,0,0,1-.2.51l-4.86,5.11a1.45,1.45,0,0,0-.4,1v2.35A1.07,1.07,0,0,0,11,21.63a1.06,1.06,0,0,0,1,1.08h5.8a1.06,1.06,0,0,0,1-1.08A1.07,1.07,0,0,0,18,20.56Z"/></g></g></g></g></g></g></svg>