<?xml version="1.0" encoding="UTF-8"?>
<svg width="140px" height="140px" viewBox="0 0 140 140" version="1.1" xmlns="http://www.w3.org/2000/svg" xmlns:xlink="http://www.w3.org/1999/xlink">
    <!-- Generator: Sketch 57.1 (83088) - https://sketch.com -->
    <title>submit-successful</title>
    <desc>Created with Sketch.</desc>
    <g id="submit-successful" stroke="none" stroke-width="1" fill="none" fill-rule="evenodd">
        <path d="M75.6900883,35.401972 C76.8656099,35.401972 77.8183712,36.3532962 77.8183712,37.5270447 L77.8186391,45.2314105 C93.7476255,49.5917578 105.486048,64.175595 105.486048,81.4452143 C105.486048,102.146256 88.6194066,118.988166 67.8863846,118.988166 C47.1533626,118.988166 30.2867211,102.146256 30.2867211,81.4452143 C30.2867211,64.1755599 42.0251914,49.5916985 57.9542273,45.2313839 L57.954398,37.5270447 C57.954398,36.3532962 58.9071593,35.401972 60.0826808,35.401972 C61.2582024,35.401972 62.2109637,36.3532962 62.2109637,37.5270447 L62.2104454,44.3291517 C63.3764057,44.1521307 64.5597892,44.0287742 65.7579814,43.9616929 L65.7581017,37.5270447 C65.7581017,36.3532962 66.710863,35.401972 67.8863846,35.401972 C69.0619061,35.401972 70.0146674,36.3532962 70.0146674,37.5270447 L70.0150602,43.9617082 C71.2129034,44.0287786 72.3959462,44.1520915 73.5615765,44.3290382 L73.5618055,37.5270447 C73.5618055,36.3532962 74.5145668,35.401972 75.6900883,35.401972 Z M70.0145772,48.2194569 L70.0146674,53.1109113 C70.0146674,54.2846598 69.0619061,55.2359841 67.8863846,55.2359841 C66.710863,55.2359841 65.7581017,54.2846598 65.7581017,53.1109113 L65.7587164,48.2194238 C64.5576881,48.2953024 63.3737233,48.4349584 62.2101895,48.6350291 L62.2109637,53.1109113 C62.2109637,54.2846598 61.2582024,55.2359841 60.0826808,55.2359841 C58.9071593,55.2359841 57.954398,54.2846598 57.954398,53.1109113 L57.9546377,49.6602496 C44.4043107,53.890437 34.5432868,66.5395625 34.5432868,81.4452143 C34.5432868,99.8030092 49.5008586,114.73802 67.8863846,114.73802 C86.2719106,114.73802 101.229482,99.8030092 101.229482,81.4452143 C101.229482,66.5398283 91.3688102,53.8908881 77.8188565,49.6604759 L77.8183712,53.1109113 C77.8183712,54.2846598 76.8656099,55.2359841 75.6900883,55.2359841 C74.5145668,55.2359841 73.5618055,54.2846598 73.5618055,53.1109113 L73.5620129,48.6349316 C72.3988308,48.4349421 71.2152307,48.2953308 70.0145772,48.2194569 Z M80.5617277,90.9789989 C81.5577641,91.6037702 81.8571426,92.9149401 81.2321368,93.9094741 C78.329159,98.5237154 73.3397546,101.279226 67.8863846,101.279226 C62.4330145,101.279226 57.4436101,98.5244237 54.5406323,93.9094741 C53.9149172,92.9156485 54.215005,91.6037702 55.210332,90.9797072 C56.2049495,90.3549358 57.5202283,90.6545711 58.1445246,91.6483968 C60.2642943,95.0173454 63.9064957,97.0290809 67.8863846,97.0290809 C71.8662735,97.0290809 75.5084749,95.0180538 77.6275351,91.6483968 C78.2518314,90.6545711 79.5649819,90.3549358 80.5617277,90.9789989 Z M59.0185394,71.5282083 C60.194061,71.5282083 61.1468223,72.4795325 61.1468223,73.653281 C61.1468223,74.8270295 60.194061,75.7783537 59.0185394,75.7783537 L48.3771252,75.7783537 C47.2016037,75.7783537 46.2488424,74.8270295 46.2488424,73.653281 C46.2488424,72.4795325 47.2016037,71.5282083 48.3771252,71.5282083 L59.0185394,71.5282083 Z M87.3956439,71.5282083 C88.5711655,71.5282083 89.5239268,72.4795325 89.5239268,73.653281 C89.5239268,74.8270295 88.5711655,75.7783537 87.3956439,75.7783537 L76.7542297,75.7783537 C75.5787082,75.7783537 74.6259469,74.8270295 74.6259469,73.653281 C74.6259469,72.4795325 75.5787082,71.5282083 76.7542297,71.5282083 L87.3956439,71.5282083 Z M129.584453,58.7583629 C130.138516,59.3108818 130.138516,60.2083709 129.584453,60.7615982 L125.694,64.646 L129.584382,68.530864 C130.138445,69.0840913 130.138445,69.980872 129.584382,70.5340992 C129.306996,70.811067 128.944478,70.9491968 128.581251,70.9491968 C128.218024,70.9491968 127.855507,70.811067 127.578121,70.5340992 L123.687,66.649 L119.797189,70.5340992 C119.519803,70.811067 119.157286,70.9491968 118.794059,70.9491968 C118.430832,70.9491968 118.068314,70.811067 117.790928,70.5340992 C117.236865,69.980872 117.236865,69.0840913 117.790928,68.530864 L121.681,64.646 L117.790857,60.7615982 C117.236794,60.2083709 117.236794,59.3108818 117.790857,58.7583629 C118.34492,58.2044273 119.243056,58.2044273 119.797118,58.7583629 L123.687,62.642 L127.578191,58.7583629 C128.132254,58.2044273 129.03039,58.2044273 129.584453,58.7583629 Z M18.3393925,47.8731029 C19.1226006,47.8731029 19.7582478,48.5077913 19.7582478,49.2898181 L19.758,54.783 L25.259788,54.7835561 C26.042996,54.7835561 26.6786432,55.4182445 26.6786432,56.2002712 C26.6786432,56.982298 26.042996,57.6169864 25.259788,57.6169864 L19.758,57.616 L19.7582478,63.1105827 C19.7582478,63.8926095 19.1226006,64.5272978 18.3393925,64.5272978 C17.5561844,64.5272978 16.9205373,63.8926095 16.9205373,63.1105827 L16.92,57.616 L11.4188552,57.6169864 C10.6356471,57.6169864 10,56.982298 10,56.2002712 C10,55.4182445 10.6356471,54.7835561 11.4188552,54.7835561 L16.92,54.783 L16.9205373,49.2898181 C16.9205373,48.5077913 17.5561844,47.8731029 18.3393925,47.8731029 Z M103.357552,30.6340172 C103.734258,30.6340172 104.094648,30.7834806 104.360683,31.0491147 L109.845268,36.5254271 C110.399331,37.0786544 110.399331,37.9754351 109.845268,38.5286623 L104.360683,44.0049747 C104.094648,44.2706088 103.734258,44.4200723 103.357552,44.4200723 C102.981556,44.4200723 102.620457,44.2713172 102.354422,44.0049747 L96.8698369,38.5286623 C96.6038015,38.2630282 96.4541123,37.9024742 96.4541123,37.5270447 C96.4541123,37.1516152 96.6038015,36.7910612 96.8698369,36.5254271 L102.354422,31.0491147 C102.620457,30.7834806 102.981556,30.6340172 103.357552,30.6340172 Z M103.357552,34.0546759 L99.8792288,37.5270447 L103.357552,40.9994136 L106.835876,37.5270447 L103.357552,34.0546759 Z M45.0191206,21 C48.6286882,21 51.5650091,23.931892 51.5650091,27.535307 C51.5650091,31.1387219 48.6286882,34.0713223 45.0191206,34.0713223 C41.4095529,34.0713223 38.473232,31.1387219 38.473232,27.535307 C38.473232,23.931892 41.4095529,21 45.0191206,21 Z M45.0191206,23.8334303 C42.9745502,23.8334303 41.3109424,25.4938204 41.3109424,27.535307 C41.3109424,29.5767935 42.9745502,31.237892 45.0191206,31.237892 C47.0636909,31.237892 48.7272987,29.5767935 48.7272987,27.535307 C48.7272987,25.4938204 47.0636909,23.8334303 45.0191206,23.8334303 Z" id="Combined-Shape" fill="#D0D0D0"></path>
    </g>
</svg>