<svg id="Layer_1" data-name="Layer 1" xmlns="http://www.w3.org/2000/svg" width="20" height="20" viewBox="0 0 20 20"><defs><style>.cls-1{fill:#d81f26;fill-rule:evenodd;}</style></defs><g id="Page-1"><g id="RCS-BOT-Directory---Submit-a-Bot---BOT-RCS-Details"><path id="country" class="cls-1" d="M10,2a8,8,0,1,0,8,8,8,8,0,0,0-8-8M9.2,16.34A6.39,6.39,0,0,1,3.6,10a6,6,0,0,1,.17-1.43L7.6,12.4v.8a1.6,1.6,0,0,0,1.6,1.6m5.52-.49A1.61,1.61,0,0,0,13.2,13.2h-.8V10.8a.8.8,0,0,0-.8-.8H6.8V8.4H8.4a.8.8,0,0,0,.8-.8V6h1.6a1.6,1.6,0,0,0,1.6-1.6V4.07a6.39,6.39,0,0,1,2.32,10.24"/></g></g></svg>