<svg id="Layer_1" data-name="Layer 1" xmlns="http://www.w3.org/2000/svg" xmlns:xlink="http://www.w3.org/1999/xlink" width="20" height="20" viewBox="0 0 20 20"><defs><style>.cls-1{fill:#fff;}.cls-1,.cls-2{fill-rule:evenodd;}.cls-2{fill:#d81f26;}.cls-3{mask:url(#mask);}</style><mask id="mask" x="2" y="2" width="15.15" height="15.22" maskUnits="userSpaceOnUse"><g id="mask-3"><polygon id="path-2" class="cls-1" points="2 2 17.15 2 17.15 17.22 2 17.22 2 2"/></g></mask></defs><g id="Page-1"><g id="RCS-BOT-Directory---Submit-a-Bot---BOT-WhatsApp-Details"><g id="Group-8"><g id="Fill-1"><path id="path-1" class="cls-1" d="M13.05,11.12c-.19-.09-1.12-.55-1.29-.61s-.3-.1-.42.09-.49.61-.6.74-.22.14-.41.05a5.38,5.38,0,0,1-1.52-.94,6,6,0,0,1-1.05-1.3c-.1-.19,0-.29.09-.39s.19-.22.28-.33a1.44,1.44,0,0,0,.19-.31.34.34,0,0,0,0-.33c0-.1-.41-1-.58-1.4s-.29-.32-.42-.33H6.94a.74.74,0,0,0-.51.23,2.14,2.14,0,0,0-.66,1.58,3.75,3.75,0,0,0,.77,2,7.83,7.83,0,0,0,3.22,2.84c1.6.63,1.92.5,2.27.47a1.91,1.91,0,0,0,1.27-.89,1.74,1.74,0,0,0,.11-.9c-.05-.08-.18-.13-.36-.22"/><path id="path-1-2" data-name="path-1" class="cls-2" d="M13.05,11.12c-.19-.09-1.12-.55-1.29-.61s-.3-.1-.42.09-.49.61-.6.74-.22.14-.41.05a5.38,5.38,0,0,1-1.52-.94,6,6,0,0,1-1.05-1.3c-.1-.19,0-.29.09-.39s.19-.22.28-.33a1.44,1.44,0,0,0,.19-.31.34.34,0,0,0,0-.33c0-.1-.41-1-.58-1.4s-.29-.32-.42-.33H6.94a.74.74,0,0,0-.51.23,2.14,2.14,0,0,0-.66,1.58,3.75,3.75,0,0,0,.77,2,7.83,7.83,0,0,0,3.22,2.84c1.6.63,1.92.5,2.27.47a1.91,1.91,0,0,0,1.27-.89,1.74,1.74,0,0,0,.11-.9c-.05-.08-.18-.13-.36-.22"/></g><g id="Group-5"><g class="cls-3"><path id="Fill-3" class="cls-1" d="M9.61,16.83h0a7.29,7.29,0,0,1-3.48-.89L2.26,17l1-3.78a7.22,7.22,0,0,1-1-3.64,7.29,7.29,0,1,1,7.29,7.29M14.94,4.21a7.54,7.54,0,0,0-11.87,9.1L2,17.22l4-1a7.53,7.53,0,0,0,3.6.92h0A7.54,7.54,0,0,0,14.94,4.21"/></g></g><g id="Fill-6"><path id="path-4" class="cls-1" d="M9.61,15.82h0a6.31,6.31,0,0,1-3.2-.88l-.23-.13-2.37.62.63-2.32-.14-.23a6.27,6.27,0,1,1,5.31,2.94M14.76,4.4A7.28,7.28,0,0,0,3.3,13.18L2.26,17l3.86-1a7.29,7.29,0,0,0,3.48.89h0A7.28,7.28,0,0,0,14.76,4.4"/><path id="path-4-2" data-name="path-4" class="cls-2" d="M9.61,15.82h0a6.31,6.31,0,0,1-3.2-.88l-.23-.13-2.37.62.63-2.32-.14-.23a6.27,6.27,0,1,1,5.31,2.94M14.76,4.4A7.28,7.28,0,0,0,3.3,13.18L2.26,17l3.86-1a7.29,7.29,0,0,0,3.48.89h0A7.28,7.28,0,0,0,14.76,4.4"/></g></g></g></g></svg>