<svg id="Layer_1" data-name="Layer 1" xmlns="http://www.w3.org/2000/svg" viewBox="0 0 20 20"><defs><style>.cls-1{fill:#d81f26;fill-rule:evenodd;}</style></defs><g id="Page-1"><g id="Launch-Flow---6"><path id="Fill-1" class="cls-1" d="M2.57,12.51l2.62-2.33a.55.55,0,0,1,.76,0l2.28,2.52,3.35-4.21a.55.55,0,0,1,.39-.2.51.51,0,0,1,.41.16l5,5.08V4.07H2.57ZM18.5,4.07V15.93A1.07,1.07,0,0,1,17.43,17H2.57A1.07,1.07,0,0,1,1.5,15.93V4.07A1.07,1.07,0,0,1,2.57,3H17.43A1.07,1.07,0,0,1,18.5,4.07ZM7,5.28A1.83,1.83,0,1,1,5.2,7.1,1.82,1.82,0,0,1,7,5.28Z"/></g></g></svg>