<svg id="Layer_1" data-name="Layer 1" xmlns="http://www.w3.org/2000/svg" viewBox="0 0 20 22"><defs><style>.cls-1{fill-rule:evenodd;}</style></defs><g id="Page-2"><g id="RCS-BOT-Directory---App-Description"><g id="Group-34"><g id="Group-24"><path id="qr-code-icon" class="cls-1" d="M18.33,18.53V15.2H20v3.33a1.67,1.67,0,0,1-1.67,1.67H15V18.53ZM1.67,15.2v3.33H5V20.2H1.67A1.67,1.67,0,0,1,0,18.53V15.2ZM18.33.2A1.67,1.67,0,0,1,20,1.87V5.2H18.33V1.87H15V.2ZM1.67,1.87V5.2H0V1.87A1.67,1.67,0,0,1,1.67.2H5V1.87Zm7.5,6.66h1.66V5.2H9.17ZM7.5,9.37h3.33V12.7H9.17V11H7.5V9.37ZM3.33,11H5V9.37H3.33ZM5,15.2H6.67V13.53H5Zm8.33-8.33H15V5.2H13.33ZM5,6.87H6.67V5.2H5Zm-1.67,10h5v-5h-5Zm10-1.67H15V12.7H13.33Zm-1.66-2.5h1.66V11H11.67V9.37h1.66V11H15V9.37h1.67V11H15V12.7h1.67v2.5H15v1.67H13.33V15.2h-2.5v1.67H9.17V13.53h2.5V12.7Zm0-4.17h5v-5h-5Zm-8.34,0h5v-5h-5Z"/></g></g></g></g></svg>