<svg xmlns="http://www.w3.org/2000/svg" width="56.8" height="56.8" viewBox="0 0 56.8 56.8"><defs><style>.cls-1,.cls-4{fill:#fff;}.cls-1{stroke:#a9a9a9;stroke-width:0.8px;stroke-dasharray:1.92 1.92;}.cls-1,.cls-2,.cls-3,.cls-4,.cls-5{fill-rule:evenodd;}.cls-2{fill:#e0e0e0;}.cls-3{fill:#b7b7b7;}.cls-5{fill:#d3d3d3;}</style></defs><g id="Layer_1" data-name="Layer 1"><g id="Page-1"><g id="Profile---Developer"><path id="Stroke-3" class="cls-1" d="M46,57H12A11,11,0,0,1,1,46V12A11,11,0,0,1,12,1H46A11,11,0,0,1,57,12V46A11,11,0,0,1,46,57Z" transform="translate(-0.6 -0.6)"/></g></g></g><g id="Layer_3" data-name="Layer 3"><g id="Page-1-2" data-name="Page-1"><g id="Profile---Developer-2" data-name="Profile---Developer"><g id="Group-19"><path id="Fill-11" class="cls-2" d="M40.69,17.38a16.5,16.5,0,0,0-26,19.9l-2.34,8.55,8.75-2.3a16.4,16.4,0,0,0,7.88,2h0A16.5,16.5,0,0,0,40.69,17.38M29,42.75h0a13.69,13.69,0,0,1-7-1.91l-.5-.29-5.19,1.36,1.39-5.06-.33-.52A13.72,13.72,0,1,1,29,42.75" transform="translate(-0.6 -0.6)"/><path id="Fill-13" class="cls-3" d="M13.27,28.85a15.77,15.77,0,0,0,2.1,7.87l-2.23,8.16,8.35-2.19A15.71,15.71,0,0,0,29,44.6h0A15.74,15.74,0,1,0,13.27,28.85" transform="translate(-0.6 -0.6)"/><path id="Fill-15" class="cls-4" d="M24.94,22c-.3-.68-.63-.7-.92-.71h-.78a1.47,1.47,0,0,0-1.08.51,4.54,4.54,0,0,0-1.43,3.4,8,8,0,0,0,1.66,4.21c.21.27,2.82,4.52,7,6.15,3.45,1.36,4.15,1.09,4.89,1A4.11,4.11,0,0,0,37,34.68a3.44,3.44,0,0,0,.24-1.94c-.1-.17-.37-.27-.78-.48S34,31.07,33.67,30.94s-.65-.21-.92.2-1.05,1.33-1.29,1.6-.48.3-.88.1a11,11,0,0,1-3.28-2A12.38,12.38,0,0,1,25,28a.6.6,0,0,1,.18-.83c.19-.19.41-.48.61-.72a2.52,2.52,0,0,0,.41-.68.74.74,0,0,0,0-.71c-.1-.2-.9-2.22-1.26-3" transform="translate(-0.6 -0.6)"/><path id="Fill-17" class="cls-5" d="M40.55,17.33A16.31,16.31,0,0,0,14.89,37l-2.32,8.45,8.65-2.27a16.25,16.25,0,0,0,7.79,2h0A16.31,16.31,0,0,0,40.55,17.33M29,42.41h0a13.48,13.48,0,0,1-6.9-1.89l-.49-.29-5.13,1.34,1.37-5-.32-.51A13.55,13.55,0,1,1,29,42.41" transform="translate(-0.6 -0.6)"/></g></g></g></g></svg>