<?xml version="1.0" encoding="UTF-8"?>
<svg width="30px" height="30px" viewBox="0 0 30 30" version="1.1" xmlns="http://www.w3.org/2000/svg" xmlns:xlink="http://www.w3.org/1999/xlink">
    <!-- Generator: Sketch 57.1 (83088) - https://sketch.com -->
    <title>Group 5</title>
    <desc>Created with Sketch.</desc>
    <g id="Page-1" stroke="none" stroke-width="1" fill="none" fill-rule="evenodd">
        <g id="Launch---Onboarding-NDA-6---Bot-Launch" transform="translate(-831.000000, -379.000000)">
            <g id="Group-5" transform="translate(831.000000, 379.000000)">
                <circle id="Oval" fill="#D81F26" cx="15" cy="15" r="15"></circle>
                <path d="M16.214102,15.5 L20.8527146,10.8613874 C21.0490951,10.6650068 21.0490951,10.3436533 20.8527146,10.1472854 C20.656334,9.95090485 20.3349932,9.95090485 20.1386253,10.1472854 L15.5,14.785898 L10.8613874,10.1472854 C10.6650068,9.95090485 10.343666,9.95090485 10.1472854,10.1472854 C9.95090485,10.3436533 9.95090485,10.6650068 10.1472854,10.8613874 L14.785898,15.5 L10.1472854,20.1386126 C9.95090485,20.3349932 9.95090485,20.6563467 10.1472854,20.8527146 C10.343666,21.0490951 10.6650068,21.0490951 10.8613874,20.8527146 L15.5,16.214102 L20.1386253,20.8527146 C20.3349932,21.0490951 20.656334,21.0490951 20.8527146,20.8527146 C21.0490951,20.6563467 21.0490951,20.3349932 20.8527146,20.1386126 L16.214102,15.5 Z" id="Fill-1" fill="#FFFFFF"></path>
            </g>
        </g>
    </g>
</svg>