<svg id="Layer_1" data-name="Layer 1" xmlns="http://www.w3.org/2000/svg" width="20" height="20" viewBox="0 0 20 20"><defs><style>.cls-1{fill:#d81f26;fill-rule:evenodd;}</style></defs><g id="Page-1"><g id="Launch---Onboarding-NDA-3---Company-Details"><g id="Group-3"><path id="Fill-1" class="cls-1" d="M17.75,16.32a.23.23,0,0,1-.17.09H2.42a.23.23,0,0,1-.17-.09.2.2,0,0,1,0-.18l1.88-5.49a.2.2,0,0,1,.2-.14H7.77c1,1.55,1.92,2.84,2,2.95a.3.3,0,0,0,.46,0c.08-.11,1-1.4,2-2.95h3.46a.2.2,0,0,1,.2.14l1.88,5.49a.2.2,0,0,1,0,.18M10,3.92A1.88,1.88,0,1,1,8.09,5.79,1.9,1.9,0,0,1,10,3.92m8.93,11.84L17,10.27a1.41,1.41,0,0,0-1.35-.95H12.94a8.82,8.82,0,0,0,1.34-3.53,4.28,4.28,0,0,0-8.56,0A8.82,8.82,0,0,0,7.06,9.32H4.31A1.41,1.41,0,0,0,3,10.27L1.07,15.76A1.39,1.39,0,0,0,1.27,17a1.43,1.43,0,0,0,1.15.58H17.58A1.43,1.43,0,0,0,18.73,17a1.39,1.39,0,0,0,.2-1.26"/></g></g></g></svg>