<svg id="Layer_1" data-name="Layer 1" xmlns="http://www.w3.org/2000/svg" xmlns:xlink="http://www.w3.org/1999/xlink" width="20" height="20" viewBox="0 0 20 20"><defs><style>.cls-1{fill:#fff;}.cls-1,.cls-2,.cls-3,.cls-5,.cls-6,.cls-7{fill-rule:evenodd;}.cls-2{fill:url(#linear-gradient);}.cls-3{fill:url(#linear-gradient-2);}.cls-4{mask:url(#mask);}.cls-5{fill:url(#linear-gradient-3);}.cls-6{fill:url(#linear-gradient-4);}.cls-7{fill:#d81f26;}</style><linearGradient id="linear-gradient" x1="-104.71" y1="126.85" x2="-103.74" y2="125.85" gradientTransform="matrix(11.39, 0, 0, -11.52, 1194.58, 1463.79)" gradientUnits="userSpaceOnUse"><stop offset="0" stop-color="#b7222c"/><stop offset="1" stop-color="#d81f26"/></linearGradient><linearGradient id="linear-gradient-2" x1="-102.53" y1="124.28" x2="-101.53" y2="123.32" gradientTransform="matrix(9.38, 0, 0, -9.21, 969.1, 1152.09)" xlink:href="#linear-gradient"/><mask id="mask" x="5.91" y="6.07" width="11.41" height="11.26" maskUnits="userSpaceOnUse"><g id="mask-6"><polygon id="path-5" class="cls-1" points="5.91 6.07 17.32 6.07 17.32 17.32 5.91 17.32 5.91 6.07"/></g></mask><linearGradient id="linear-gradient-3" x1="-104.74" y1="126.59" x2="-103.75" y2="125.62" gradientTransform="matrix(11.41, 0, 0, -11.26, 1201.31, 1431.3)" xlink:href="#linear-gradient"/><linearGradient id="linear-gradient-4" x1="-102.53" y1="124.79" x2="-101.57" y2="123.79" gradientTransform="matrix(9.4, 0, 0, -9.58, 967.04, 1198.23)" xlink:href="#linear-gradient"/></defs><g id="Page-1"><g id="RCS-BOT-Directory---Submit-a-Bot---BOT-Basic-Details"><g id="Group-12"><g id="Fill-1"><path id="path-2" class="cls-1" d="M3.2,13.52a.31.31,0,0,0,.13,0,.27.27,0,0,0,.1-.36A7.13,7.13,0,0,1,13,3.35a.27.27,0,0,0,.36-.1.27.27,0,0,0-.11-.36A7.66,7.66,0,0,0,3,13.39a.26.26,0,0,0,.23.13"/><path id="path-2-2" data-name="path-2" class="cls-2" d="M3.2,13.52a.31.31,0,0,0,.13,0,.27.27,0,0,0,.1-.36A7.13,7.13,0,0,1,13,3.35a.27.27,0,0,0,.36-.1.27.27,0,0,0-.11-.36A7.66,7.66,0,0,0,3,13.39a.26.26,0,0,0,.23.13"/></g><g id="Fill-3"><path id="path-4" class="cls-1" d="M6.91,15.4a.27.27,0,0,0,.14.34,6.53,6.53,0,0,0,2.61.54,6.63,6.63,0,0,0,6.62-6.62,6.49,6.49,0,0,0-.47-2.43.26.26,0,0,0-.33-.15.27.27,0,0,0-.15.34,6.09,6.09,0,0,1-5.67,8.34,6,6,0,0,1-2.4-.5.27.27,0,0,0-.35.14"/><path id="path-4-2" data-name="path-4" class="cls-3" d="M6.91,15.4a.27.27,0,0,0,.14.34,6.53,6.53,0,0,0,2.61.54,6.63,6.63,0,0,0,6.62-6.62,6.49,6.49,0,0,0-.47-2.43.26.26,0,0,0-.33-.15.27.27,0,0,0-.15.34,6.09,6.09,0,0,1-5.67,8.34,6,6,0,0,1-2.4-.5.27.27,0,0,0-.35.14"/></g><g id="Group-7"><g class="cls-4"><g id="Fill-5"><path id="path-8" class="cls-1" d="M16.67,6.56c-.05-.12-.11-.23-.17-.35a.27.27,0,0,0-.35-.12.27.27,0,0,0-.12.35,3.54,3.54,0,0,1,.16.34,7,7,0,0,1,.61,2.88A7.15,7.15,0,0,1,6.29,16a.25.25,0,0,0-.35.1.27.27,0,0,0,.11.36A7.67,7.67,0,0,0,16.67,6.56"/><path id="path-8-2" data-name="path-8" class="cls-5" d="M16.67,6.56c-.05-.12-.11-.23-.17-.35a.27.27,0,0,0-.35-.12.27.27,0,0,0-.12.35,3.54,3.54,0,0,1,.16.34,7,7,0,0,1,.61,2.88A7.15,7.15,0,0,1,6.29,16a.25.25,0,0,0-.35.1.27.27,0,0,0,.11.36A7.67,7.67,0,0,0,16.67,6.56"/></g></g></g><g id="Fill-8"><path id="path-10" class="cls-1" d="M12.08,4.07a.27.27,0,0,0,.34-.14.26.26,0,0,0-.13-.34,6.61,6.61,0,0,0-8.62,8.88.26.26,0,0,0,.24.15.22.22,0,0,0,.11,0,.26.26,0,0,0,.12-.35,6.1,6.1,0,0,1,7.94-8.18"/><path id="path-10-2" data-name="path-10" class="cls-6" d="M12.08,4.07a.27.27,0,0,0,.34-.14.26.26,0,0,0-.13-.34,6.61,6.61,0,0,0-8.62,8.88.26.26,0,0,0,.24.15.22.22,0,0,0,.11,0,.26.26,0,0,0,.12-.35,6.1,6.1,0,0,1,7.94-8.18"/></g><path id="Fill-10" class="cls-7" d="M13.14,8.47A.7.7,0,0,0,12.58,8L11,7.76l-.72-1.47A.7.7,0,0,0,9.6,5.9h0A.7.7,0,0,0,9,6.29L8.26,7.76,6.63,8a.7.7,0,0,0-.56.47.68.68,0,0,0,.18.71l1.17,1.15L7.14,12a.7.7,0,0,0,.28.68.71.71,0,0,0,.73,0l1.45-.77,1.46.77a.72.72,0,0,0,.32.08.68.68,0,0,0,.41-.14.69.69,0,0,0,.28-.67l-.28-1.62L13,9.18a.69.69,0,0,0,.18-.71Z"/></g></g></g></svg>