<?xml version="1.0" encoding="UTF-8"?>
<svg width="424px" height="305px" viewBox="0 0 424 305" version="1.1" xmlns="http://www.w3.org/2000/svg" xmlns:xlink="http://www.w3.org/1999/xlink">
    <!-- Generator: Sketch 57.1 (83088) - https://sketch.com -->
    <title>Group 50</title>
    <desc>Created with Sketch.</desc>
    <defs>
        <polygon id="path-1" points="0.195511111 0.133394239 423.322996 0.133394239 423.322996 171.297658 0.195511111 171.297658"></polygon>
        <polygon id="path-3" points="0.000174485597 0.69523786 423.322996 0.69523786 423.322996 192.806497 0.000174485597 192.806497"></polygon>
        <polygon id="path-5" points="0.513685597 0.39782716 23.4323687 0.39782716 23.4323687 18.1419654 0.513685597 18.1419654"></polygon>
    </defs>
    <g id="Page-1" stroke="none" stroke-width="1" fill="none" fill-rule="evenodd">
        <g id="Launch---Onboarding-NDA-1---Get-Started" transform="translate(0.000000, -515.000000)">
            <g id="Group-50" transform="translate(0.000000, 515.000000)">
                <g id="Group-3" transform="translate(0.000000, 99.058963)">
                    <mask id="mask-2" fill="white">
                        <use xlink:href="#path-1"></use>
                    </mask>
                    <g id="Clip-2"></g>
                    <path d="M394.961322,101.710184 C393.973733,101.710184 392.998359,101.761658 392.036071,101.860242 C386.907067,96.7504313 379.833421,93.5904971 372.0217,93.5904971 C366.446886,93.5904971 361.252449,95.2062337 356.868499,97.9840444 C349.181536,86.6581844 336.202425,79.2163737 321.48282,79.2163737 C304.728713,79.2163737 290.235067,88.8619374 283.22947,102.898431 C276.511774,95.5089663 266.837421,90.854563 256.063807,90.854563 C245.876466,90.854563 236.660137,95.0038305 230.007001,101.703205 L219.563165,0.133394239 L205.218705,0.133394239 L197.512548,64.0928346 C196.00412,63.7525877 194.43724,63.5676329 192.825865,63.5676329 C181.087347,63.5676329 171.570902,73.0832049 171.570902,84.8225959 C171.570902,85.4428922 171.603182,86.0553366 171.655528,86.6616741 C166.986293,84.1316329 161.639182,82.6929992 155.954441,82.6929992 C142.366375,82.6929992 130.700268,90.9086535 125.641931,102.641937 C124.67877,100.785411 123.538507,99.0379374 122.252548,97.4099868 C119.189453,93.2005218 114.999182,89.8678469 110.121437,87.8542831 C109.789914,87.7016082 109.459264,87.5498058 109.121635,87.4067276 L109.121635,87.4599457 C106.063774,86.3327687 102.759017,85.7150897 99.3103095,85.7150897 C87.0282683,85.7150897 76.5722189,93.5233202 72.6288444,104.446119 C67.4684329,99.0745794 60.217684,95.7262008 52.1800049,95.7262008 C41.3278733,95.7262008 31.9030337,101.822728 27.1343424,110.776456 C12.1320708,111.517147 0.195511111,123.915221 0.195511111,139.101575 C0.195511111,154.765147 12.892828,167.463337 28.5572724,167.463337 C39.4094041,167.463337 48.8333712,161.36681 53.6020626,152.413081 C56.5491243,152.267386 59.3766634,151.671518 62.0192477,150.693526 C67.1936181,157.583962 75.4319556,162.041197 84.711972,162.041197 C95.1017169,162.041197 104.181947,156.451551 109.121635,148.118119 L109.121635,171.297658 L314.396087,171.297658 L314.396087,164.09402 C316.702787,164.47876 319.067939,164.689016 321.48282,164.689016 C336.202425,164.689016 349.181536,157.247205 356.868499,145.922217 C361.252449,148.699156 366.446886,150.314892 372.0217,150.314892 C373.009289,150.314892 373.985536,150.263419 374.946951,150.164835 C380.075956,155.273773 387.149602,158.433707 394.961322,158.433707 C410.624894,158.433707 423.323083,145.735518 423.323083,130.071946 C423.323083,114.408374 410.624894,101.710184 394.961322,101.710184" id="Fill-1" fill="#ECF0F1" mask="url(#mask-2)"></path>
                </g>
                <g id="Group-6" transform="translate(0.000000, 112.145383)">
                    <mask id="mask-4" fill="white">
                        <use xlink:href="#path-3"></use>
                    </mask>
                    <g id="Clip-5"></g>
                    <path d="M422.038084,147.149723 C425.217212,132.956193 418.075516,118.024588 404.274578,111.891419 C391.941936,106.410826 377.959533,109.584719 369.125327,118.792324 C366.340537,111.095765 360.554594,104.497592 352.484635,100.91104 C341.58801,96.0681926 329.403681,97.9849169 320.620076,104.847435 C305.225212,98.8966041 287.70773,106.019106 280.930709,121.267402 C279.425771,124.655913 278.576899,128.167435 278.323022,131.663254 C274.935384,126.565658 269.143335,123.20332 262.564356,123.20332 C259.654808,123.20332 256.898808,123.862876 254.436816,125.035419 C252.143203,111.244077 240.429113,100.639715 226.128273,100.06304 L216.822084,0.69523786 L207.997475,0.69523786 L199.42238,85.9096412 C197.060718,85.1698222 194.550742,84.7676329 191.9448,84.7676329 C178.12903,84.7676329 166.9288,95.9678634 166.9288,109.783633 C166.9288,112.977592 167.533393,116.028472 168.6248,118.836818 C159.980784,118.942382 152.231006,122.716505 146.829804,128.665592 C143.489277,123.385658 138.608043,118.999962 132.470512,116.272752 C119.507977,110.51211 104.811928,113.848275 95.527549,123.526119 C92.6005531,115.436094 86.5188576,108.501164 78.0371128,104.731402 C66.5838782,99.6416576 53.7783802,101.656094 44.5463473,108.869328 C28.3654255,102.614892 9.95370535,110.100324 2.83120329,126.126826 C-0.224039506,133.002431 -0.713471605,140.364851 0.938034568,147.149723 L0.000174485597,147.149723 L0.000174485597,192.806497 L423.32317,192.806497 L423.32317,147.149723 L422.038084,147.149723 Z" id="Fill-4" fill="#FFFFFF" mask="url(#mask-4)"></path>
                </g>
                <path d="M211.759035,114.492563 C201.55948,114.492563 202.033208,129.37444 202.77041,134.374324 C204.243068,144.36188 209.672188,154.082472 211.296649,156.820151 C211.530459,157.213616 211.987612,157.213616 212.221422,156.820151 C213.845883,154.082472 219.275002,144.36188 220.747661,134.374324 C221.484863,129.37444 221.958591,114.492563 211.759035,114.492563" id="Fill-7" fill="#F39C11"></path>
                <path d="M211.759035,114.492563 C204.995974,114.492563 205.310048,123.238653 205.798607,126.178736 C206.727743,131.764892 210.033373,137.208843 211.2792,139.108991 C211.530459,139.491987 211.987612,139.491987 212.238871,139.108991 C213.48557,137.208843 216.790328,131.764892 217.719463,126.178736 C218.208895,123.238653 218.522097,114.492563 211.759035,114.492563" id="Fill-9" fill="#FFCE55"></path>
                <path d="M193.555215,68.4076016 C189.441717,74.2781695 178.319133,93.4724576 185.126688,121.589067 C185.357009,122.536523 187.116696,122.514713 187.302523,121.560277 C191.19268,101.642746 201.127017,89.7751078 202.901536,88.0477004 C203.108301,87.847042 203.178968,87.5870584 203.106556,87.3366716 L195.601931,68.6248362 C195.377717,67.8527374 194.042902,67.7122765 193.555215,68.4076016" id="Fill-11" fill="#CCD0D9"></path>
                <path d="M229.962943,68.4076016 C234.076441,74.2781695 245.199026,93.4724576 238.39147,121.589067 C238.161149,122.536523 236.401462,122.514713 236.215635,121.560277 C232.325478,101.642746 222.391141,89.7751078 220.616622,88.0477004 C220.410729,87.847042 220.33919,87.5870584 220.411602,87.3366716 L227.916227,68.6248362 C228.140441,67.8527374 229.476128,67.7122765 229.962943,68.4076016" id="Fill-13" fill="#FFFFFF"></path>
                <path d="M224.501282,52.0866551 C224.173249,37.9585564 217.394484,21.2358568 214.061809,12.7427704 C213.002681,10.0426058 210.516262,10.0426058 209.456262,12.7427704 C206.123587,21.2358568 199.345694,37.9585564 199.016788,52.0866551 C198.576212,71.0410255 200.560114,94.9438074 201.749233,107.72226 C201.882714,109.153914 202.462007,110.372696 203.296048,110.977289 C205.554764,112.615709 209.163126,112.840795 211.759472,112.840795 C214.354945,112.840795 217.963307,112.615709 220.222023,110.977289 C221.056937,110.372696 221.635356,109.153914 221.768838,107.72226 C222.957957,94.9438074 224.941858,71.0410255 224.501282,52.0866551" id="Fill-15" fill="#656D78"></path>
                <path d="M228.976314,48.7967292 C228.532249,34.6686305 219.374372,17.9459309 214.870899,9.45284444 C213.438372,6.75267984 210.079524,6.75267984 208.646998,9.45284444 C204.144397,17.9459309 194.985648,34.6686305 194.541582,48.7967292 C193.946586,67.7502272 196.626685,91.6538815 198.233697,104.432334 C198.413417,105.863988 199.195985,107.081898 200.324035,107.687363 C203.375788,109.32491 208.251788,109.632005 211.758948,109.632005 C215.266981,109.632005 220.142981,109.32491 223.194734,107.687363 C224.321911,107.081898 225.104479,105.863988 225.285072,104.432334 C226.891212,91.6538815 229.572183,67.7502272 228.976314,48.7967292" id="Fill-17" fill="#CDD0D9"></path>
                <path d="M230.300311,42.2415671 C229.782961,28.1134683 220.635554,11.3907687 215.386155,2.8976823 C213.7172,0.197517695 209.800871,0.197517695 208.131916,2.8976823 C202.882517,11.3907687 193.735109,28.1134683 193.21776,42.2415671 C192.524179,61.1959374 194.11985,85.0987193 195.992953,97.877172 C196.203208,99.3088263 197.114895,100.526736 198.429644,101.132201 C201.986533,102.769748 207.670402,103.59681 211.759472,103.59681 C215.848542,103.59681 221.531537,102.769748 225.088426,101.132201 C226.403175,100.526736 227.315735,99.3088263 227.525118,97.877172 C229.398221,85.0987193 230.993891,61.1959374 230.300311,42.2415671" id="Fill-19" fill="#D81F26"></path>
                <path d="M215.654339,86.6796461 C215.704067,94.8098025 213.805664,115.851893 212.86257,121.163235 C212.640973,122.413424 210.973763,122.412551 210.749549,121.163235 C209.808199,115.89377 207.862684,96.633177 207.862684,86.6796461 C207.862684,70.557177 207.850471,67.958214 211.806059,67.958214 C215.76252,67.958214 215.556627,70.557177 215.654339,86.6796461" id="Fill-21" fill="#F6F7FB"></path>
                <g id="Group-25" transform="translate(199.786008, 0.474601)">
                    <mask id="mask-6" fill="white">
                        <use xlink:href="#path-5"></use>
                    </mask>
                    <g id="Clip-24"></g>
                    <path d="M11.9730272,18.1419654 C15.9748543,18.1419654 19.8240066,17.6909202 23.4323687,16.869093 C20.7575045,11.1250272 17.8287638,6.02917531 15.6005827,2.42343045 C13.931628,-0.277606584 10.0152988,-0.277606584 8.3454716,2.42343045 C6.11729053,6.02917531 3.18854979,11.1250272 0.513685597,16.869093 C4.12204774,17.6909202 7.9712,18.1419654 11.9730272,18.1419654" id="Fill-23" fill="#CCD0D9" mask="url(#mask-6)"></path>
                </g>
                <path d="M222.442876,44.8490798 C222.442876,50.7493103 217.659353,55.5328329 211.759123,55.5328329 C205.858892,55.5328329 201.07537,50.7493103 201.07537,44.8490798 C201.07537,38.9488494 205.858892,34.1653267 211.759123,34.1653267 C217.659353,34.1653267 222.442876,38.9488494 222.442876,44.8490798" id="Fill-26" fill="#F6F7FB"></path>
                <path d="M219.417557,44.8490798 C219.417557,49.0786107 215.988915,52.5072527 211.759384,52.5072527 C207.529853,52.5072527 204.100339,49.0786107 204.100339,44.8490798 C204.100339,40.619549 207.529853,37.190907 211.759384,37.190907 C215.988915,37.190907 219.417557,40.619549 219.417557,44.8490798" id="Fill-28" fill="#182C51"></path>
                <path d="M213.70202,114.69357 C213.699402,114.720616 213.695913,114.747661 213.693295,114.774706 C218.453263,116.296221 218.156637,123.553077 217.718678,126.179085 C216.790415,131.764369 213.484785,137.209192 212.238958,139.108467 C212.113328,139.300402 211.937098,139.396369 211.759123,139.396369 L211.759123,139.396369 L211.759123,157.115381 L211.759123,157.115381 C211.931863,157.115381 212.104604,157.017669 212.221509,156.8205 C213.846843,154.081949 219.27509,144.362229 220.747748,134.374673 C221.435221,129.715035 221.894119,116.477686 213.70202,114.69357" id="Fill-30" fill="#E67F22"></path>
                <path d="M213.693034,114.774532 C213.386812,117.57677 213.095421,119.850318 212.862482,121.163322 C212.751684,121.78798 212.2797,122.100309 211.806844,122.100309 C211.791141,122.100309 211.775437,122.099437 211.758861,122.099437 L211.758861,139.397067 L211.759733,139.397067 C211.936836,139.397067 212.113067,139.300227 212.238696,139.109165 C213.484523,137.209017 216.790153,131.765067 217.719289,126.17891 C218.156375,123.553774 218.453001,116.296046 213.693034,114.774532" id="Fill-32" fill="#F6BB43"></path>
                <path d="M221.680374,108.348053 C219.457427,109.1376 216.705789,109.462143 214.21937,109.577304 C214.115551,110.68267 214.009987,111.754012 213.904423,112.77737 C216.108176,112.634291 218.539633,112.197205 220.222547,110.977551 C220.93183,110.462818 221.457032,109.50402 221.680374,108.348053" id="Fill-34" fill="#464952"></path>
                <path d="M225.737077,100.762815 C225.533801,100.903276 225.317439,101.02716 225.088863,101.132724 C222.341587,102.397745 218.325801,103.178568 214.755826,103.468214 C214.587447,105.54372 214.405109,107.613119 214.219282,109.577827 C216.705702,109.462667 219.45734,109.138123 221.680286,108.347704 C222.219447,108.156642 222.728072,107.937663 223.193949,107.687276 C224.321998,107.081811 225.104566,105.863901 225.284286,104.432247 C225.428237,103.293728 225.58004,102.067095 225.737077,100.762815" id="Fill-36" fill="#AAB2BD"></path>
                <path d="M215.495383,3.07417449 C217.709605,6.66857778 220.586,11.6928905 223.218988,17.3436066 C219.610626,18.1654337 215.761473,18.616479 211.758774,18.616479 L211.758774,34.1648905 C217.659877,34.1648905 222.442527,38.9484132 222.442527,44.8486436 C222.442527,50.7488741 217.659877,55.5323967 211.758774,55.5323967 L211.758774,67.9583885 L211.805885,67.9583885 C215.762346,67.9583885 215.556453,70.5573514 215.655037,86.6798206 C215.676848,90.4504543 215.281638,96.9988988 214.755564,103.467952 C218.325539,103.178306 222.342198,102.397483 225.088601,101.132463 C225.317177,101.026899 225.533539,100.903014 225.736815,100.762553 C226.699103,100.097763 227.351679,99.0595737 227.525292,97.8765613 C227.527909,97.8591128 227.529654,97.8407918 227.533144,97.8233432 C228.585292,90.6240675 229.549325,79.9167588 230.067547,68.5577465 C230.469737,59.7331374 230.603218,50.5168082 230.300486,42.2418288 C229.786626,28.2096971 220.760486,11.6196066 215.495383,3.07417449" id="Fill-38" fill="#ED2E3B"></path>
                <path d="M211.806321,67.958214 L211.75921,67.958214 L211.75921,122.100222 C211.774914,122.100222 211.790617,122.101095 211.807193,122.101095 C212.279177,122.101095 212.752033,121.787893 212.862831,121.163235 C213.09577,119.85023 213.38716,117.576683 213.693383,114.774444 C213.696,114.747399 213.698617,114.721226 213.702107,114.693309 C213.769284,114.078247 213.836461,113.437885 213.90451,112.777457 C214.009202,111.754099 214.114765,110.682757 214.219457,109.577391 C214.405284,107.612683 214.587621,105.544156 214.756,103.467778 C215.281202,96.9995967 215.677284,90.4511523 215.654601,86.6796461 C215.556016,70.557177 215.762782,67.958214 211.806321,67.958214" id="Fill-40" fill="#CCD0D9"></path>
                <path d="M211.759035,0.872427984 L211.759035,18.6167407 C215.760863,18.6167407 219.610887,18.1656955 223.219249,17.3429959 C220.586262,11.6922798 217.708994,6.66883951 215.494772,3.07356379 C215.492155,3.07007407 215.489537,3.06571193 215.48692,3.06134979 C215.471216,3.03604938 215.456385,3.01249383 215.441554,2.98719342 C215.438937,2.98283128 215.435447,2.97846914 215.43283,2.974107 C215.417126,2.94880658 215.401422,2.92350617 215.386591,2.89820576 C214.551677,1.54768724 213.155793,0.872427984 211.759035,0.872427984" id="Fill-42" fill="#E6E9EE"></path>
                <path d="M211.759035,34.1652395 L211.759035,37.1908198 C215.988566,37.1908198 219.417208,40.6185893 219.417208,44.8489926 C219.417208,49.0785235 215.988566,52.5071654 211.759035,52.5071654 L211.759035,55.5327457 C217.660138,55.5327457 222.442788,50.749223 222.442788,44.8489926 C222.442788,38.9487621 217.660138,34.1652395 211.759035,34.1652395" id="Fill-44" fill="#CCD0D9"></path>
                <path d="M211.759035,37.1906453 L211.759035,52.5069909 C215.988566,52.5069909 219.417208,49.078349 219.417208,44.8488181 C219.417208,40.6192872 215.988566,37.1906453 211.759035,37.1906453" id="Fill-46" fill="#111C35"></path>
                <path d="M230.067286,68.557572 C229.549063,79.9165844 228.58503,90.623893 227.532882,97.8231687 C230.749524,103.506165 234.252323,111.508947 236.215286,121.560189 C236.309508,122.044387 236.808537,122.287794 237.306693,122.287794 C237.791763,122.287794 238.277705,122.056601 238.391121,121.588979 C245.142841,93.7070535 234.261919,74.6000082 230.067286,68.557572" id="Fill-48" fill="#CCD0D9"></path>
            </g>
        </g>
    </g>
</svg>