<?xml version="1.0" encoding="UTF-8"?>
<svg width="223px" height="277px" viewBox="0 0 223 277" version="1.1" xmlns="http://www.w3.org/2000/svg" xmlns:xlink="http://www.w3.org/1999/xlink">
    <!-- Generator: Sketch 57.1 (83088) - https://sketch.com -->
    <title>Group 102</title>
    <desc>Created with Sketch.</desc>
    <defs>
        <polygon id="path-1" points="7.26428306e-05 0.16425 222.3855 0.16425 222.3855 75.599775 7.26428306e-05 75.599775"></polygon>
        <path d="M101.8404,2.7639 L3.7386,59.7744 C-1.2267,62.6607 -1.2006,67.338 3.7935,70.2207 L3.7935,70.2207 L102.5352,127.2303 C107.5347,130.1166 115.6095,130.1166 120.5766,127.2303 L120.5766,127.2303 L218.6775,70.2198 C221.1408,68.7888 222.3756,66.9168 222.3855,65.0403 L222.3855,65.0403 L222.3855,64.9953 C222.3747,63.1044 221.1183,61.2135 218.619,59.7699 L218.619,59.7699 L119.8755,2.7612 C117.3798,1.3203 114.1137,0.5994 110.8503,0.5994 L110.8503,0.5994 C107.586,0.5994 104.3244,1.3212 101.8404,2.7639" id="path-3"></path>
        <linearGradient x1="3.11277313%" y1="30.1655113%" x2="140.191935%" y2="88.1535737%" id="linearGradient-5">
            <stop stop-color="#FDC84F" offset="0%"></stop>
            <stop stop-color="#F27410" offset="100%"></stop>
        </linearGradient>
        <polygon id="path-6" points="29.4921 0.765 28.1034 0.765 0.0837 179.7093 2.8404 181.2114 28.0629 14.454 27.5292 195.5844 30.0582 196.983 29.9277 0.765"></polygon>
        <linearGradient x1="46.6253216%" y1="82.5549578%" x2="53.60868%" y2="31.6424775%" id="linearGradient-8">
            <stop stop-color="#D1D3D4" offset="0%"></stop>
            <stop stop-color="#546072" offset="100%"></stop>
        </linearGradient>
        <path d="M16.7436,0.126 C7.9065,0.7308 0.8775,10.4643 0.8775,22.383 L0.8775,22.383 C0.8775,34.3026 7.9065,44.0361 16.7436,44.6409 L16.7436,44.6409 C17.0325,44.6607 17.3232,44.6706 17.6157,44.6706 L17.6157,44.6706 C26.8578,44.6706 34.3521,34.6923 34.3521,22.383 L34.3521,22.383 C34.3521,10.0746 26.8578,0.0963 17.6157,0.0963 L17.6157,0.0963 C17.3232,0.0963 17.0325,0.1062 16.7436,0.126" id="path-9"></path>
        <radialGradient cx="50.0007141%" cy="49.9996893%" fx="50.0007141%" fy="49.9996893%" r="91.3369538%" gradientTransform="translate(0.500007,0.499997),scale(1.000000,0.750984),translate(-0.500007,-0.499997)" id="radialGradient-11">
            <stop stop-color="#F0F2F2" offset="0%"></stop>
            <stop stop-color="#BCBDBF" offset="100%"></stop>
        </radialGradient>
        <path d="M0.1548,2.5911 C0.1548,4.0194 1.3131,5.1786 2.7414,5.1786 L2.7414,5.1786 C4.1715,5.1786 5.3298,4.0194 5.3298,2.5911 L5.3298,2.5911 C5.3298,1.1619 4.1715,0.0036 2.7414,0.0036 L2.7414,0.0036 C1.3131,0.0036 0.1548,1.1619 0.1548,2.5911" id="path-12"></path>
        <radialGradient cx="29.7088643%" cy="55.3362652%" fx="29.7088643%" fy="55.3362652%" r="50%" id="radialGradient-14">
            <stop stop-color="#F0F2F2" offset="0%"></stop>
            <stop stop-color="#BCBDBF" offset="100%"></stop>
        </radialGradient>
        <path d="M0.2655,15.8139 C0.2655,24.4692 5.535,31.4856 12.0339,31.4856 L12.0339,31.4856 C12.2391,31.4856 12.4443,31.4784 12.6477,31.4649 L12.6477,31.4649 C18.8631,31.0401 23.8041,24.1956 23.8041,15.8139 L23.8041,15.8139 C23.8041,7.4322 18.8631,0.5877 12.6477,0.1629 L12.6477,0.1629 C12.4443,0.1485 12.2391,0.1422 12.0339,0.1422 L12.0339,0.1422 C5.535,0.1422 0.2655,7.1586 0.2655,15.8139" id="path-15"></path>
        <radialGradient cx="49.9983727%" cy="50.0001289%" fx="49.9983727%" fy="50.0001289%" r="91.337824%" gradientTransform="translate(0.499984,0.500001),scale(1.000000,0.750991),rotate(180.000000),translate(-0.499984,-0.500001)" id="radialGradient-17">
            <stop stop-color="#F0F2F2" offset="0%"></stop>
            <stop stop-color="#BCBDBF" offset="100%"></stop>
        </radialGradient>
        <path d="M0.126,1.9539 C0.126,2.9583 0.9414,3.7728 1.9458,3.7728 L1.9458,3.7728 C2.9511,3.7728 3.7647,2.9583 3.7647,1.9539 L3.7647,1.9539 C3.7647,0.9486 2.9511,0.1332 1.9458,0.1332 L1.9458,0.1332 C0.9414,0.1332 0.126,0.9486 0.126,1.9539" id="path-18"></path>
        <radialGradient cx="70.2922892%" cy="55.3525534%" fx="70.2922892%" fy="55.3525534%" r="50.0055627%" gradientTransform="translate(0.702923,0.553526),scale(1.000000,0.999753),rotate(180.000000),translate(-0.702923,-0.553526)" id="radialGradient-20">
            <stop stop-color="#F0F2F2" offset="0%"></stop>
            <stop stop-color="#BCBDBF" offset="100%"></stop>
        </radialGradient>
        <polygon id="path-21" points="0.59904 0.2547 12.57534 0.2547 12.57534 55.85283 0.59904 55.85283"></polygon>
        <polygon id="path-23" points="0.59904 0.2547 12.57534 0.2547 12.57534 55.85283 0.59904 55.85283"></polygon>
    </defs>
    <g id="Page-1" stroke="none" stroke-width="1" fill="none" fill-rule="evenodd">
        <g id="MY-CARRIERS---1" transform="translate(-231.000000, -188.000000)">
            <g id="Group-102" transform="translate(231.000000, 187.000000)">
                <g id="Group-3" transform="translate(0.000000, 202.245300)">
                    <mask id="mask-2" fill="white">
                        <use xlink:href="#path-1"></use>
                    </mask>
                    <g id="Clip-2"></g>
                    <path d="M218.67759,5.42025 L120.57669,62.43075 C115.60959,65.31705 107.53479,65.31705 102.53529,62.43075 L3.79269,5.42115 C1.28079,3.97125 0.02529,2.06595 0.03159,0.16425 C0.02079,3.83265 0.01089,7.50105 7.26428306e-05,11.16945 C-0.00531,13.07115 1.24929,14.97555 3.76119,16.42635 L102.50379,73.43505 C107.50329,76.32135 115.57899,76.32135 120.54609,73.43505 L218.64699,16.42545 C221.11389,14.99175 222.34869,13.11525 222.35409,11.23605 C222.36489,7.56855 222.37479,3.90015 222.38559,0.23175 C222.38019,2.11005 221.14539,3.98655 218.67759,5.42025" id="Fill-1" fill="#F27410" mask="url(#mask-2)"></path>
                </g>
                <g id="Group-6" transform="translate(0.000000, 137.445300)">
                    <mask id="mask-4" fill="white">
                        <use xlink:href="#path-3"></use>
                    </mask>
                    <g id="Clip-5"></g>
                    <path d="M101.8404,2.7639 L3.7386,59.7744 C-1.2267,62.6607 -1.2006,67.338 3.7935,70.2207 L3.7935,70.2207 L102.5352,127.2303 C107.5347,130.1166 115.6095,130.1166 120.5766,127.2303 L120.5766,127.2303 L218.6775,70.2198 C221.1408,68.7888 222.3756,66.9168 222.3855,65.0403 L222.3855,65.0403 L222.3855,64.9953 C222.3747,63.1044 221.1183,61.2135 218.619,59.7699 L218.619,59.7699 L119.8755,2.7612 C117.3798,1.3203 114.1137,0.5994 110.8503,0.5994 L110.8503,0.5994 C107.586,0.5994 104.3244,1.3212 101.8404,2.7639" id="Fill-4" fill="url(#linearGradient-5)" mask="url(#mask-4)"></path>
                </g>
                <g id="Group-29" transform="translate(64.800000, 11.445300)">
                    <polygon id="Fill-7" fill="#BD6E21" points="92.72511 187.72821 46.55871 214.55721 0.09171 187.72911 46.25631 160.90011"></polygon>
                    <polygon id="Fill-9" fill="#BDBBAF" points="85.16916 179.91738 85.15026 186.52338 47.24406 208.55178 47.26386 201.94668"></polygon>
                    <polygon id="Fill-11" fill="#83827A" points="47.26368 201.94632 47.24478 208.55232 9.09108 186.52392 9.10998 179.91882"></polygon>
                    <polygon id="Fill-13" fill="#D3D1C4" points="85.16916 179.91738 47.26386 201.94668 9.11016 179.91918 47.01546 157.88988"></polygon>
                    <polygon id="Fill-15" fill="#556072" points="45.57789 195.59088 46.13049 0.77148 49.73049 0.77148 50.53509 195.66198 48.10599 196.99038"></polygon>
                    <polygon id="Fill-17" fill="#556072" points="20.84067 181.21113 18.13167 179.71713 46.15317 0.77103 49.70907 0.77103"></polygon>
                    <polygon id="Fill-19" fill="#556072" points="74.09934 181.40094 46.15074 0.77094 49.71024 0.77094 77.12064 179.62434"></polygon>
                    <polygon id="Fill-21" fill="#556072" points="48.6576 172.63827 47.295 171.46017 69.1236 146.21427 46.548 134.21007 64.1322 114.24267 46.4679 102.84777 60.129 91.27377 46.5057 82.47087 58.653 71.40897 59.8653 72.74007 49.4469 82.22877 63.144 91.07847 49.4847 102.65067 66.8655 113.86287 49.4046 133.68987 71.9613 145.68507"></polygon>
                    <polygon id="Fill-23" fill="#556072" points="46.43046 172.60308 24.05736 143.95698 46.51146 133.63308 29.04696 113.49288 46.40256 102.67038 32.38686 91.82628 46.52676 82.24578 36.11466 72.73908 37.32876 71.40978 49.42566 82.45458 35.45406 91.92258 49.55076 102.82878 31.78656 113.90598 49.44276 134.26578 26.87616 144.64278 47.84886 171.49608"></polygon>
                    <polygon id="Fill-25" fill="#556072" points="22.77774 163.74816 21.85614 162.20106 46.42884 147.54906 26.69634 130.95576 46.58454 117.16956 30.64914 101.01726 46.44234 94.25196 33.69474 80.61426 47.54664 73.08396 48.40614 74.66616 36.59814 81.08496 49.51044 94.89726 33.78384 101.63196 49.36824 117.42966 29.65824 131.09346 49.52394 147.80016"></polygon>
                    <polygon id="Fill-27" fill="#556072" points="71.17695 160.88904 47.32335 149.65254 66.39255 130.39344 46.58085 117.46314 61.32285 101.91384 46.48365 92.86344 58.47435 81.91224 48.51315 74.59974 49.57875 73.14984 61.30935 81.76104 49.46895 92.57544 64.16145 101.53584 49.37175 117.13644 69.22395 130.09284 50.39415 149.10894 71.94375 159.26094"></polygon>
                </g>
                <g id="Group-32" transform="translate(82.800000, 11.445300)">
                    <mask id="mask-7" fill="white">
                        <use xlink:href="#path-6"></use>
                    </mask>
                    <g id="Clip-31"></g>
                    <polygon id="Fill-30" fill="url(#linearGradient-8)" mask="url(#mask-7)" points="29.4921 0.765 28.1034 0.765 0.0837 179.7093 2.8404 181.2114 28.0629 14.454 27.5292 195.5844 30.0582 196.983 29.9277 0.765"></polygon>
                </g>
                <path d="M104.37759,66.22884 C104.37759,54.30924 111.40659,44.57574 120.24369,43.97184 C119.95659,43.95204 119.66409,43.94124 119.37249,43.94124 C110.12949,43.94124 102.63519,53.92044 102.63519,66.22884 C102.63519,78.53724 110.12949,88.51554 119.37249,88.51554 C119.66409,88.51554 119.95659,88.50564 120.24369,88.48584 C111.40659,87.88194 104.37759,78.14844 104.37759,66.22884" id="Fill-33" fill="#E6E7E8"></path>
                <g id="Group-37" transform="translate(103.500000, 43.845300)">
                    <mask id="mask-10" fill="white">
                        <use xlink:href="#path-9"></use>
                    </mask>
                    <g id="Clip-36"></g>
                    <path d="M16.7436,0.126 C7.9065,0.7308 0.8775,10.4643 0.8775,22.383 L0.8775,22.383 C0.8775,34.3026 7.9065,44.0361 16.7436,44.6409 L16.7436,44.6409 C17.0325,44.6607 17.3232,44.6706 17.6157,44.6706 L17.6157,44.6706 C26.8578,44.6706 34.3521,34.6923 34.3521,22.383 L34.3521,22.383 C34.3521,10.0746 26.8578,0.0963 17.6157,0.0963 L17.6157,0.0963 C17.3232,0.0963 17.0325,0.1062 16.7436,0.126" id="Fill-35" fill="url(#radialGradient-11)" mask="url(#mask-10)"></path>
                </g>
                <g id="Group-42" transform="translate(111.600000, 55.545300)" fill="#BCBEC0">
                    <path d="M25.7832,15.94728 L11.6487,22.94298 C11.4939,23.04828 11.3175,23.09958 11.142,23.09958 C10.8558,23.09958 10.5732,22.96188 10.3986,22.70628 C10.1187,22.29588 10.224,21.73608 10.6344,21.45618 L25.1613,15.03738 L1.2627,12.81888 C1.2303,12.82248 1.197,12.82428 1.1637,12.82428 C0.711,12.82428 0.3213,12.48318 0.27,12.02238 C0.216,11.52828 0.5724,11.08368 1.0674,11.02968 L24.3585,13.31388 L9.234,2.50488 C8.7624,2.35008 8.505,1.84158 8.6607,1.36908 C8.8146,0.89748 9.3222,0.64008 9.7956,0.79488 L26.1909,12.60558 C26.1909,12.60558 26.0856,14.44698 25.7832,15.94728" id="Fill-38"></path>
                    <path d="M9.79587,0.79452 C9.32247,0.63972 8.81487,0.89712 8.66007,1.36872 C8.50437,1.84122 8.76267,2.34972 9.23427,2.50452 L26.68797,8.23302 L1.06767,11.03022 C0.57267,11.08422 0.21537,11.52792 0.27027,12.02202 C0.32157,12.48282 0.71037,12.82482 1.16307,12.82482 C1.19637,12.82482 1.22967,12.82302 1.26297,12.81942 L27.48987,9.95652 L10.63467,21.45582 C10.22427,21.73662 10.11807,22.29642 10.39887,22.70682 C10.57257,22.96242 10.85607,23.09922 11.14227,23.09922 C11.31687,23.09922 11.49417,23.04882 11.64897,22.94262 L32.96547,8.39952 L9.79587,0.79452 Z" id="Fill-40"></path>
                </g>
                <g id="Group-45" transform="translate(140.400000, 61.845300)">
                    <mask id="mask-13" fill="white">
                        <use xlink:href="#path-12"></use>
                    </mask>
                    <g id="Clip-44"></g>
                    <path d="M0.1548,2.5911 C0.1548,4.0194 1.3131,5.1786 2.7414,5.1786 L2.7414,5.1786 C4.1715,5.1786 5.3298,4.0194 5.3298,2.5911 L5.3298,2.5911 C5.3298,1.1619 4.1715,0.0036 2.7414,0.0036 L2.7414,0.0036 C1.3131,0.0036 0.1548,1.1619 0.1548,2.5911" id="Fill-43" fill="url(#radialGradient-14)" mask="url(#mask-13)"></path>
                </g>
                <path d="M118.30392,29.95947 C118.30392,21.57777 113.36292,14.73327 107.14752,14.30847 C107.35002,14.29407 107.55432,14.28687 107.75952,14.28687 C114.26022,14.28687 119.52882,21.30417 119.52882,29.95947 C119.52882,38.61477 114.26022,45.63117 107.75952,45.63117 C107.55432,45.63117 107.35002,45.62397 107.14752,45.61047 C113.36292,45.18567 118.30392,38.34117 118.30392,29.95947" id="Fill-46" fill="#E6E7E8"></path>
                <g id="Group-50" transform="translate(94.500000, 14.145300)">
                    <mask id="mask-16" fill="white">
                        <use xlink:href="#path-15"></use>
                    </mask>
                    <g id="Clip-49"></g>
                    <path d="M0.2655,15.8139 C0.2655,24.4692 5.535,31.4856 12.0339,31.4856 L12.0339,31.4856 C12.2391,31.4856 12.4443,31.4784 12.6477,31.4649 L12.6477,31.4649 C18.8631,31.0401 23.8041,24.1956 23.8041,15.8139 L23.8041,15.8139 C23.8041,7.4322 18.8631,0.5877 12.6477,0.1629 L12.6477,0.1629 C12.4443,0.1485 12.2391,0.1422 12.0339,0.1422 L12.0339,0.1422 C5.535,0.1422 0.2655,7.1586 0.2655,15.8139" id="Fill-48" fill="url(#radialGradient-17)" mask="url(#mask-16)"></path>
                </g>
                <g id="Group-55" transform="translate(90.000000, 22.245300)" fill="#BCBEC0">
                    <path d="M28.0683,10.818 L15.8904,16.3593 C15.4962,16.5276 15.2676,16.4448 15.39,16.4448 C15.5925,16.4448 15.7905,16.3485 15.9138,16.1685 C16.11,15.8805 16.0362,15.4863 15.7473,15.2892 L27.0468,10.1358 L22.6683,9.3141 C22.5234,9.3069 22.3839,9.2196 22.4073,9.2196 C22.7259,9.2196 23.0004,8.9793 23.0355,8.6553 C23.0733,8.3079 22.8564,8.0775 22.626,7.9965 L27.1791,9.0225 L16.7319,1.9629 C17.064,1.854 17.2035,1.4823 17.0433,1.1718 C16.9632,1.0161 17.0568,0.927 16.7364,0.765 L28.2933,8.4141 C28.2933,8.4141 28.2177,9.6237 28.0683,10.818" id="Fill-51"></path>
                    <path d="M16.33716,0.76023 C16.67016,0.65133 17.02746,0.83223 17.13636,1.16433 C17.24526,1.49643 17.06436,1.85373 16.73226,1.96263 L4.45896,5.99103 L22.47516,7.95753 C22.82346,7.99533 23.07366,8.30763 23.03586,8.65503 C23.00076,8.97903 22.72626,9.21933 22.40766,9.21933 C22.38336,9.21933 22.36086,9.21843 22.33746,9.21573 L3.89466,7.20243 L15.74766,15.28893 C16.03656,15.48603 16.11036,15.88023 15.91326,16.16823 C15.79086,16.34823 15.59196,16.44453 15.39036,16.44453 C15.26796,16.44453 15.14286,16.40853 15.03396,16.33473 L0.04446,6.10803 L16.33716,0.76023 Z" id="Fill-53"></path>
                </g>
                <g id="Group-58" transform="translate(89.100000, 26.745300)">
                    <mask id="mask-19" fill="white">
                        <use xlink:href="#path-18"></use>
                    </mask>
                    <g id="Clip-57"></g>
                    <path d="M0.126,1.9539 C0.126,2.9583 0.9414,3.7728 1.9458,3.7728 L1.9458,3.7728 C2.9511,3.7728 3.7647,2.9583 3.7647,1.9539 L3.7647,1.9539 C3.7647,0.9486 2.9511,0.1332 1.9458,0.1332 L1.9458,0.1332 C0.9414,0.1332 0.126,0.9486 0.126,1.9539" id="Fill-56" fill="url(#radialGradient-20)" mask="url(#mask-19)"></path>
                </g>
                <g id="Group-101" transform="translate(29.700000, 0.645300)">
                    <path d="M125.2323,78.29343 L122.0733,76.56543 C124.0416,72.96813 125.0811,68.88663 125.0811,64.76193 C125.0811,59.89833 123.6627,55.19133 120.9771,51.15033 L123.9759,49.15773 C127.0539,53.79093 128.6811,59.18733 128.6811,64.76193 C128.6811,69.48873 127.4886,74.16783 125.2323,78.29343" id="Fill-59" fill="#27AAE1"></path>
                    <path d="M125.2323,78.29343 L122.0733,76.56543 C124.0416,72.96813 125.0811,68.88663 125.0811,64.76193 C125.0811,59.89833 123.6627,55.19133 120.9771,51.15033 L123.9759,49.15773 C127.0539,53.79093 128.6811,59.18733 128.6811,64.76193 C128.6811,69.48873 127.4886,74.16783 125.2323,78.29343" id="Fill-61" fill="#27AAE1"></path>
                    <path d="M135.47421,81.6012 L132.31521,79.8732 C134.79561,75.3399 136.10601,70.1964 136.10601,64.998 C136.10601,58.8672 134.31771,52.9344 130.93461,47.8413 L133.93341,45.8496 C137.70981,51.5349 139.70601,58.1562 139.70601,64.998 C139.70601,70.7985 138.24261,76.5396 135.47421,81.6012" id="Fill-63" fill="#27AAE1"></path>
                    <path d="M135.47421,81.6012 L132.31521,79.8732 C134.79561,75.3399 136.10601,70.1964 136.10601,64.998 C136.10601,58.8672 134.31771,52.9344 130.93461,47.8413 L133.93341,45.8496 C137.70981,51.5349 139.70601,58.1562 139.70601,64.998 C139.70601,70.7985 138.24261,76.5396 135.47421,81.6012" id="Fill-65" fill="#27AAE1"></path>
                    <path d="M145.71522,84.90942 L142.55622,83.18142 C145.54872,77.71212 147.13092,71.50572 147.13092,65.23362 C147.13092,57.83742 144.97362,50.67972 140.89122,44.53452 L143.89002,42.54282 C148.36482,49.28022 150.73092,57.12642 150.73092,65.23362 C150.73092,72.10782 148.99662,78.91182 145.71522,84.90942" id="Fill-67" fill="#27AAE1"></path>
                    <path d="M145.71522,84.90942 L142.55622,83.18142 C145.54872,77.71212 147.13092,71.50572 147.13092,65.23362 C147.13092,57.83742 144.97362,50.67972 140.89122,44.53452 L143.89002,42.54282 C148.36482,49.28022 150.73092,57.12642 150.73092,65.23362 C150.73092,72.10782 148.99662,78.91182 145.71522,84.90942" id="Fill-69" fill="#27AAE1"></path>
                    <path d="M155.95713,88.21674 L152.79813,86.48874 C156.30273,80.08254 158.15493,72.81414 158.15493,65.46834 C158.15493,56.80584 155.62863,48.42324 150.84693,41.22684 L153.84573,39.23424 C159.01983,47.02284 161.75493,56.09484 161.75493,65.46834 C161.75493,73.41624 159.75063,81.28224 155.95713,88.21674" id="Fill-71" fill="#27AAE1"></path>
                    <path d="M155.95713,88.21674 L152.79813,86.48874 C156.30273,80.08254 158.15493,72.81414 158.15493,65.46834 C158.15493,56.80584 155.62863,48.42324 150.84693,41.22684 L153.84573,39.23424 C159.01983,47.02284 161.75493,56.09484 161.75493,65.46834 C161.75493,73.41624 159.75063,81.28224 155.95713,88.21674" id="Fill-73" fill="#27AAE1"></path>
                    <path d="M166.19904,91.52487 L163.04004,89.79687 C167.05674,82.45467 169.18074,74.12337 169.18074,65.70387 C169.18074,55.77507 166.28364,46.16667 160.80354,37.91817 L163.80234,35.92647 C169.67574,44.76627 172.77984,55.06407 172.77984,65.70387 C172.77984,74.72547 170.50464,83.65437 166.19904,91.52487" id="Fill-75" fill="#27AAE1"></path>
                    <path d="M166.19904,91.52487 L163.04004,89.79687 C167.05674,82.45467 169.18074,74.12337 169.18074,65.70387 C169.18074,55.77507 166.28364,46.16667 160.80354,37.91817 L163.80234,35.92647 C169.67574,44.76627 172.77984,55.06407 172.77984,65.70387 C172.77984,74.72547 170.50464,83.65437 166.19904,91.52487" id="Fill-77" fill="#27AAE1"></path>
                    <path d="M48.14649,13.48596 L51.30549,15.21396 C49.33719,18.81126 48.29769,22.89276 48.29769,27.01746 C48.29769,31.88106 49.71609,36.58806 52.40169,40.62906 L49.40289,42.62166 C46.32489,37.98846 44.69769,32.59206 44.69769,27.01746 C44.69769,22.29066 45.89019,17.61156 48.14649,13.48596" id="Fill-79" fill="#27AAE1"></path>
                    <path d="M48.14649,13.48596 L51.30549,15.21396 C49.33719,18.81126 48.29769,22.89276 48.29769,27.01746 C48.29769,31.88106 49.71609,36.58806 52.40169,40.62906 L49.40289,42.62166 C46.32489,37.98846 44.69769,32.59206 44.69769,27.01746 C44.69769,22.29066 45.89019,17.61156 48.14649,13.48596" id="Fill-81" fill="#27AAE1"></path>
                    <path d="M37.90458,10.17819 L41.06358,11.90619 C38.58318,16.43949 37.27278,21.58299 37.27278,26.78139 C37.27278,32.91219 39.06108,38.84499 42.44418,43.93809 L39.44538,45.92979 C35.66898,40.24449 33.67278,33.62319 33.67278,26.78139 C33.67278,20.98089 35.13618,15.23979 37.90458,10.17819" id="Fill-83" fill="#27AAE1"></path>
                    <path d="M37.90458,10.17819 L41.06358,11.90619 C38.58318,16.43949 37.27278,21.58299 37.27278,26.78139 C37.27278,32.91219 39.06108,38.84499 42.44418,43.93809 L39.44538,45.92979 C35.66898,40.24449 33.67278,33.62319 33.67278,26.78139 C33.67278,20.98089 35.13618,15.23979 37.90458,10.17819" id="Fill-85" fill="#27AAE1"></path>
                    <path d="M27.66357,6.86997 L30.82257,8.59797 C27.83007,14.06727 26.24787,20.27367 26.24787,26.54577 C26.24787,33.94197 28.40517,41.09967 32.48757,47.24487 L29.48877,49.23657 C25.01397,42.49917 22.64787,34.65297 22.64787,26.54577 C22.64787,19.67157 24.38217,12.86757 27.66357,6.86997" id="Fill-87" fill="#27AAE1"></path>
                    <path d="M27.66357,6.86997 L30.82257,8.59797 C27.83007,14.06727 26.24787,20.27367 26.24787,26.54577 C26.24787,33.94197 28.40517,41.09967 32.48757,47.24487 L29.48877,49.23657 C25.01397,42.49917 22.64787,34.65297 22.64787,26.54577 C22.64787,19.67157 24.38217,12.86757 27.66357,6.86997" id="Fill-89" fill="#27AAE1"></path>
                    <path d="M17.42175,3.56265 L20.58075,5.29065 C17.07615,11.69685 15.22395,18.96525 15.22395,26.31105 C15.22395,34.97355 17.75025,43.35615 22.53195,50.55255 L19.53315,52.54515 C14.35905,44.75655 11.62395,35.68455 11.62395,26.31105 C11.62395,18.36315 13.62825,10.49715 17.42175,3.56265" id="Fill-91" fill="#27AAE1"></path>
                    <path d="M17.42175,3.56265 L20.58075,5.29065 C17.07615,11.69685 15.22395,18.96525 15.22395,26.31105 C15.22395,34.97355 17.75025,43.35615 22.53195,50.55255 L19.53315,52.54515 C14.35905,44.75655 11.62395,35.68455 11.62395,26.31105 C11.62395,18.36315 13.62825,10.49715 17.42175,3.56265" id="Fill-93" fill="#27AAE1"></path>
                    <g id="Group-97">
                        <mask id="mask-22" fill="white">
                            <use xlink:href="#path-21"></use>
                        </mask>
                        <g id="Clip-96"></g>
                        <path d="M7.17984,0.25443 L10.33884,1.98243 C6.32214,9.32463 4.19814,17.65593 4.19814,26.07543 C4.19814,36.00423 7.09524,45.61263 12.57534,53.86113 L9.57654,55.85283 C3.70314,47.01303 0.59904,36.71523 0.59904,26.07543 C0.59904,17.05383 2.87424,8.12493 7.17984,0.25443" id="Fill-95" fill="#27AAE1" mask="url(#mask-22)"></path>
                    </g>
                    <g id="Group-100">
                        <mask id="mask-24" fill="white">
                            <use xlink:href="#path-23"></use>
                        </mask>
                        <g id="Clip-99"></g>
                        <path d="M7.17984,0.25443 L10.33884,1.98243 C6.32214,9.32463 4.19814,17.65593 4.19814,26.07543 C4.19814,36.00423 7.09524,45.61263 12.57534,53.86113 L9.57654,55.85283 C3.70314,47.01303 0.59904,36.71523 0.59904,26.07543 C0.59904,17.05383 2.87424,8.12493 7.17984,0.25443" id="Fill-98" fill="#27AAE1" mask="url(#mask-24)"></path>
                    </g>
                </g>
            </g>
        </g>
    </g>
</svg>