<?xml version="1.0" encoding="UTF-8"?>
<svg width="13px" height="16px" viewBox="0 0 13 16" version="1.1" xmlns="http://www.w3.org/2000/svg" xmlns:xlink="http://www.w3.org/1999/xlink">
    <!-- Generator: Sketch 57.1 (83088) - https://sketch.com -->
    <title>password</title>
    <desc>Created with Sketch.</desc>
    <defs>
        <linearGradient x1="16.9921875%" y1="0%" x2="83.0078125%" y2="100%" id="linearGradient-1">
            <stop stop-color="#B7222C" offset="0%"></stop>
            <stop stop-color="#D81F26" offset="100%"></stop>
        </linearGradient>
    </defs>
    <g id="Page-2" stroke="none" stroke-width="1" fill="none" fill-rule="evenodd">
        <g id="RCS-BOT-Directory---Sign-up---Explorer" transform="translate(-416.000000, -1393.000000)" fill="url(#linearGradient-1)">
            <g id="Group-8" transform="translate(415.000000, 501.000000)">
                <path d="M7.5,895.636364 C6.30327778,895.636364 5.33333333,896.613091 5.33333333,897.818182 C5.33333333,898.770909 5.93277778,899.578182 6.77777778,899.876364 L6.77777778,904.363636 L8.22222222,904.363636 L8.22222222,902.909091 L9.66666667,902.909091 L9.66666667,901.454545 L8.22222222,901.454545 L8.22222222,899.876364 C9.06722222,899.578182 9.66666667,898.770909 9.66666667,897.818182 C9.66666667,896.613091 8.69672222,895.636364 7.5,895.636364 M14,899.272727 C14,903.309091 11.2266667,907.083636 7.5,908 C3.77333333,907.083636 1,903.309091 1,899.272727 L1,894.909091 L7.5,892 L14,894.909091 L14,899.272727 M7.5,897.090909 C7.89866667,897.090909 8.22222222,897.416727 8.22222222,897.818182 C8.22222222,898.219636 7.89866667,898.545455 7.5,898.545455 C7.10133333,898.545455 6.77777778,898.219636 6.77777778,897.818182 C6.77777778,897.416727 7.10133333,897.090909 7.5,897.090909" id="password"></path>
            </g>
        </g>
    </g>
</svg>