<svg id="Layer_1" data-name="Layer 1" xmlns="http://www.w3.org/2000/svg" width="589" height="50" viewBox="0 0 589 50"><defs><style>.cls-1{fill:#7cd845;fill-rule:evenodd;}.cls-2{isolation:isolate;}</style></defs><g id="Page-1"><g id="RCS-BOT-Directory---Submit-a-Bot---Both-BOT-WhatsApp-Details"><g id="progress-bar-1"><polygon id="Fill-1" class="cls-1" points="284 0 309.01 25 284 50 563.99 50 589 25 563.99 0 284 0"/><g id="WhatsApp-Bot-submiss" class="cls-2"><g class="cls-2"><path d="M344.94,28h0v0l2.27-8.33h1.51L351,28v0l1.79-8.33h1.87L352,31h-1.73L348,22.84H348L345.68,31H344l-2.7-11.38h1.87Z"/><path d="M358,23.64a3,3,0,0,1,1-.92,2.74,2.74,0,0,1,1.34-.33,2.64,2.64,0,0,1,2.09.85,3.79,3.79,0,0,1,.76,2.61V31h-1.9V25.84a2.13,2.13,0,0,0-.4-1.45A1.5,1.5,0,0,0,359.7,24a2,2,0,0,0-1,.23,2,2,0,0,0-.73.63V31h-1.9V18.81H358Z"/><path d="M370.24,31c-.07-.21-.12-.42-.17-.62S370,30,370,29.77a3.45,3.45,0,0,1-1,1,2.61,2.61,0,0,1-1.43.4,2.8,2.8,0,0,1-2-.68,2.45,2.45,0,0,1-.7-1.86,2.19,2.19,0,0,1,1-1.91,4.61,4.61,0,0,1,2.72-.69H370v-.74a1.38,1.38,0,0,0-.39-1,1.55,1.55,0,0,0-1.12-.37,1.56,1.56,0,0,0-1,.31,1,1,0,0,0-.38.8h-1.83v0a2.09,2.09,0,0,1,.9-1.78,3.8,3.8,0,0,1,2.47-.77,3.61,3.61,0,0,1,2.38.75,2.63,2.63,0,0,1,.91,2.16v3.75a6.58,6.58,0,0,0,.07,1,5.13,5.13,0,0,0,.22.94Zm-2.33-1.36a2.42,2.42,0,0,0,1.3-.36,1.84,1.84,0,0,0,.76-.82V27.21h-1.51a2,2,0,0,0-1.3.41,1.25,1.25,0,0,0-.46,1,1,1,0,0,0,.31.77A1.29,1.29,0,0,0,367.91,29.64Z"/><path d="M376.22,20.49v2.06h1.51V24h-1.51v4.67a1,1,0,0,0,.23.75.81.81,0,0,0,.6.22l.3,0,.28-.08.21,1.39a2.33,2.33,0,0,1-.58.21,3.26,3.26,0,0,1-.7.07,2.17,2.17,0,0,1-1.64-.61,2.72,2.72,0,0,1-.59-1.93V24H373v-1.4h1.29V20.49Z"/><path d="M384.17,28.7a.86.86,0,0,0-.37-.72,3.54,3.54,0,0,0-1.4-.51,5.89,5.89,0,0,1-2.29-.91,1.91,1.91,0,0,1-.78-1.61,2.29,2.29,0,0,1,.9-1.81,3.55,3.55,0,0,1,2.36-.75,3.71,3.71,0,0,1,2.46.76,2.24,2.24,0,0,1,.87,1.89v.05h-1.82a1.21,1.21,0,0,0-.4-.9,1.55,1.55,0,0,0-1.1-.38,1.59,1.59,0,0,0-1,.31,1,1,0,0,0-.36.76.83.83,0,0,0,.34.7,3.53,3.53,0,0,0,1.38.47,5.79,5.79,0,0,1,2.36.92A2,2,0,0,1,386,28.6a2.2,2.2,0,0,1-.94,1.85,4,4,0,0,1-2.48.71,3.78,3.78,0,0,1-2.6-.84,2.38,2.38,0,0,1-.91-1.94v0h1.77a1.28,1.28,0,0,0,.53,1.07,2.16,2.16,0,0,0,1.22.33,1.91,1.91,0,0,0,1.13-.28A.88.88,0,0,0,384.17,28.7Z"/><path d="M394.15,28.34H389.7L388.79,31h-1.92l4.18-11.38h1.79L397,31h-1.93Zm-3.91-1.58h3.37L392,21.9h0Z"/><path d="M405.46,27.05a4.75,4.75,0,0,1-.87,3,2.84,2.84,0,0,1-2.41,1.13,3,3,0,0,1-1.27-.25,2.81,2.81,0,0,1-1-.76v4.1h-1.9V22.55h1.61l.18,1.06a2.82,2.82,0,0,1,1-.91,2.88,2.88,0,0,1,1.34-.31,2.79,2.79,0,0,1,2.43,1.24,5.54,5.54,0,0,1,.87,3.26Zm-1.89-.16a4.06,4.06,0,0,0-.49-2.12,1.58,1.58,0,0,0-1.46-.82,1.86,1.86,0,0,0-1,.25,1.84,1.84,0,0,0-.67.71v3.81a1.75,1.75,0,0,0,.67.68,2,2,0,0,0,1,.24,1.64,1.64,0,0,0,1.45-.71,3.32,3.32,0,0,0,.48-1.88Z"/><path d="M414.52,27.05a4.81,4.81,0,0,1-.86,3,2.87,2.87,0,0,1-2.42,1.13,3,3,0,0,1-1.27-.25,2.69,2.69,0,0,1-1-.76v4.1h-1.9V22.55h1.6l.19,1.06a2.74,2.74,0,0,1,1-.91,3,3,0,0,1,3.76.93,5.54,5.54,0,0,1,.87,3.26Zm-1.89-.16a4.06,4.06,0,0,0-.49-2.12,1.57,1.57,0,0,0-1.45-.82,1.89,1.89,0,0,0-1,.25,1.74,1.74,0,0,0-.66.71v3.81a1.66,1.66,0,0,0,.66.68,2,2,0,0,0,1,.24,1.64,1.64,0,0,0,1.45-.71,3.32,3.32,0,0,0,.48-1.88Z"/><path d="M420.41,31V19.62h3.78a4.9,4.9,0,0,1,2.95.78,2.7,2.7,0,0,1,1.06,2.33,2.34,2.34,0,0,1-.44,1.38,2.64,2.64,0,0,1-1.24.91,2.55,2.55,0,0,1,1.57,1,2.9,2.9,0,0,1,.54,1.74,3,3,0,0,1-1,2.44,4.58,4.58,0,0,1-2.89.83Zm1.89-6.59h2.1a2.17,2.17,0,0,0,1.39-.41,1.46,1.46,0,0,0,.51-1.19,1.49,1.49,0,0,0-.53-1.25,2.61,2.61,0,0,0-1.58-.41H422.3Zm0,1.42v3.65h2.4a2.27,2.27,0,0,0,1.51-.45,1.59,1.59,0,0,0,.53-1.3,2.06,2.06,0,0,0-.44-1.4,1.75,1.75,0,0,0-1.39-.5Z"/><path d="M430.06,26.7a4.66,4.66,0,0,1,1-3.1,3.95,3.95,0,0,1,5.69,0,4.57,4.57,0,0,1,1,3.1v.16a4.6,4.6,0,0,1-1,3.11A3.53,3.53,0,0,1,434,31.16a3.6,3.6,0,0,1-2.86-1.2,4.64,4.64,0,0,1-1-3.1Zm1.9.16a3.7,3.7,0,0,0,.49,2,1.63,1.63,0,0,0,1.5.77,1.65,1.65,0,0,0,1.48-.77,3.7,3.7,0,0,0,.5-2v-.17a3.67,3.67,0,0,0-.5-2,1.66,1.66,0,0,0-1.5-.79,1.63,1.63,0,0,0-1.48.79,3.69,3.69,0,0,0-.49,2Z"/><path d="M441.84,20.49v2.06h1.51V24h-1.51v4.67a1,1,0,0,0,.22.75.81.81,0,0,0,.6.22l.31,0,.28-.08.2,1.39a2.12,2.12,0,0,1-.57.21,3.26,3.26,0,0,1-.7.07,2.16,2.16,0,0,1-1.64-.61,2.67,2.67,0,0,1-.59-1.93V24h-1.29v-1.4H440V20.49Z"/><path d="M453.77,28.7a.86.86,0,0,0-.37-.72,3.54,3.54,0,0,0-1.4-.51,6,6,0,0,1-2.29-.91,1.91,1.91,0,0,1-.78-1.61,2.29,2.29,0,0,1,.9-1.81,3.58,3.58,0,0,1,2.37-.75,3.67,3.67,0,0,1,2.45.76,2.24,2.24,0,0,1,.87,1.89v.05h-1.82a1.21,1.21,0,0,0-.4-.9,1.54,1.54,0,0,0-1.09-.38,1.6,1.6,0,0,0-1.05.31,1,1,0,0,0-.36.76.83.83,0,0,0,.34.7,3.66,3.66,0,0,0,1.38.47,5.79,5.79,0,0,1,2.36.92,2,2,0,0,1,.77,1.63,2.2,2.2,0,0,1-.94,1.85,4,4,0,0,1-2.48.71,3.78,3.78,0,0,1-2.6-.84,2.38,2.38,0,0,1-.91-1.94l0,0h1.76a1.28,1.28,0,0,0,.53,1.07,2.18,2.18,0,0,0,1.22.33,2,2,0,0,0,1.14-.28A.89.89,0,0,0,453.77,28.7Z"/><path d="M462.61,29.77a2.93,2.93,0,0,1-1,1,3,3,0,0,1-3.53-.5,4,4,0,0,1-.77-2.7V22.55h1.9v5.07a2.58,2.58,0,0,0,.35,1.55,1.32,1.32,0,0,0,1.09.45,2.36,2.36,0,0,0,1.15-.25,1.72,1.72,0,0,0,.73-.71V22.55h1.9V31h-1.65Z"/><path d="M473.83,27.05a4.78,4.78,0,0,1-.87,3,2.87,2.87,0,0,1-2.43,1.12,2.72,2.72,0,0,1-1.37-.32,2.61,2.61,0,0,1-1-.93L468,31h-1.59V18.81h1.89v4.7a2.84,2.84,0,0,1,.94-.83,2.75,2.75,0,0,1,1.28-.29A2.8,2.8,0,0,1,473,23.62a5.6,5.6,0,0,1,.87,3.27Zm-1.9-.16a4.37,4.37,0,0,0-.45-2.13A1.54,1.54,0,0,0,470,24a1.86,1.86,0,0,0-1.06.28,1.93,1.93,0,0,0-.68.78v3.54a1.89,1.89,0,0,0,.68.79,2,2,0,0,0,1.07.28,1.56,1.56,0,0,0,1.43-.69,3.44,3.44,0,0,0,.45-1.88Z"/><path d="M477.2,22.55l.1,1.1a3,3,0,0,1,1-.93,3.07,3.07,0,0,1,1.45-.33,2.59,2.59,0,0,1,1.42.38,2.24,2.24,0,0,1,.89,1.12,3,3,0,0,1,1-1.1,2.76,2.76,0,0,1,1.5-.4,2.49,2.49,0,0,1,2,.87,4,4,0,0,1,.74,2.65V31h-1.9V25.9a2.37,2.37,0,0,0-.37-1.52A1.36,1.36,0,0,0,484,24a1.6,1.6,0,0,0-1,.32,1.83,1.83,0,0,0-.61.89,1.27,1.27,0,0,0,0,.2c0,.06,0,.11,0,.16V31h-1.9V25.9a2.39,2.39,0,0,0-.38-1.5A1.4,1.4,0,0,0,479,24a2,2,0,0,0-1,.22,1.66,1.66,0,0,0-.63.63V31h-1.9V22.55Z"/><path d="M491.41,20.48h-1.9V18.81h1.9Zm0,10.52h-1.9V22.55h1.9Z"/><path d="M498.28,28.7a.86.86,0,0,0-.37-.72,3.54,3.54,0,0,0-1.4-.51,6,6,0,0,1-2.3-.91,1.92,1.92,0,0,1-.77-1.61,2.29,2.29,0,0,1,.9-1.81,3.53,3.53,0,0,1,2.36-.75,3.71,3.71,0,0,1,2.46.76A2.24,2.24,0,0,1,500,25v.05H498.2a1.21,1.21,0,0,0-.4-.9,1.55,1.55,0,0,0-1.1-.38,1.59,1.59,0,0,0-1,.31,1,1,0,0,0-.36.76.83.83,0,0,0,.34.7,3.53,3.53,0,0,0,1.38.47,5.79,5.79,0,0,1,2.36.92,2,2,0,0,1,.77,1.63,2.23,2.23,0,0,1-.94,1.85,4,4,0,0,1-2.48.71,3.83,3.83,0,0,1-2.61-.84,2.4,2.4,0,0,1-.9-1.94v0H495a1.28,1.28,0,0,0,.53,1.07,2.16,2.16,0,0,0,1.22.33,1.91,1.91,0,0,0,1.13-.28A.88.88,0,0,0,498.28,28.7Z"/><path d="M506.6,28.7a.86.86,0,0,0-.37-.72,3.54,3.54,0,0,0-1.4-.51,5.89,5.89,0,0,1-2.29-.91,1.91,1.91,0,0,1-.78-1.61,2.29,2.29,0,0,1,.9-1.81,3.53,3.53,0,0,1,2.36-.75,3.71,3.71,0,0,1,2.46.76,2.24,2.24,0,0,1,.87,1.89v.05h-1.82a1.21,1.21,0,0,0-.4-.9,1.55,1.55,0,0,0-1.1-.38,1.59,1.59,0,0,0-1,.31,1,1,0,0,0-.36.76.83.83,0,0,0,.34.7,3.53,3.53,0,0,0,1.38.47,5.79,5.79,0,0,1,2.36.92,2,2,0,0,1,.77,1.63,2.2,2.2,0,0,1-.94,1.85,4,4,0,0,1-2.48.71,3.78,3.78,0,0,1-2.6-.84,2.38,2.38,0,0,1-.91-1.94v0h1.77a1.28,1.28,0,0,0,.53,1.07,2.16,2.16,0,0,0,1.22.33,1.91,1.91,0,0,0,1.13-.28A.88.88,0,0,0,506.6,28.7Z"/><path d="M512.2,20.48h-1.9V18.81h1.9Zm0,10.52h-1.9V22.55h1.9Z"/><path d="M514,26.7a4.6,4.6,0,0,1,1-3.1,3.95,3.95,0,0,1,5.69,0,4.57,4.57,0,0,1,1,3.1v.16a4.6,4.6,0,0,1-1,3.11A4,4,0,0,1,515,30a4.59,4.59,0,0,1-1-3.1Zm1.9.16a3.79,3.79,0,0,0,.48,2,1.84,1.84,0,0,0,3,0,3.7,3.7,0,0,0,.5-2v-.17a3.67,3.67,0,0,0-.5-2,1.81,1.81,0,0,0-3,0,3.78,3.78,0,0,0-.48,2Z"/><path d="M525.1,22.55l.11,1.22a3.07,3.07,0,0,1,1-1,2.83,2.83,0,0,1,1.42-.36,2.67,2.67,0,0,1,2.06.8,3.62,3.62,0,0,1,.74,2.5V31h-1.9V25.7a1.91,1.91,0,0,0-.39-1.35A1.63,1.63,0,0,0,527,24a2.08,2.08,0,0,0-1,.24,2,2,0,0,0-.71.68V31h-1.9V22.55Z"/></g></g><polygon id="Fill-2" class="cls-1" points="0 0 25.01 25 0 50 279.99 50 305 25 279.99 0 0 0"/><g id="RCS-Bot-submission" class="cls-2"><g class="cls-2"><path d="M83,26.28V31H81.07V19.62h4.2a4.5,4.5,0,0,1,2.94.86,3,3,0,0,1,1,2.46,2.57,2.57,0,0,1-.45,1.52,3.23,3.23,0,0,1-1.34,1,2.35,2.35,0,0,1,1.39,1,3.22,3.22,0,0,1,.42,1.7v.95a3.91,3.91,0,0,0,.12,1,1.43,1.43,0,0,0,.43.73V31h-2a1.25,1.25,0,0,1-.4-.81,6.77,6.77,0,0,1-.09-1.09v-.91a1.91,1.91,0,0,0-.5-1.39,1.79,1.79,0,0,0-1.37-.52Zm0-1.52h2.21a2.58,2.58,0,0,0,1.66-.44A1.65,1.65,0,0,0,87.36,23a1.76,1.76,0,0,0-.52-1.34,2.19,2.19,0,0,0-1.57-.49H83Z"/><path d="M100,27.23v0a3.58,3.58,0,0,1-1.12,2.81,4.39,4.39,0,0,1-3.12,1.08,4.2,4.2,0,0,1-3.24-1.34,4.81,4.81,0,0,1-1.24-3.42V24.23a4.88,4.88,0,0,1,1.23-3.42,4.12,4.12,0,0,1,3.2-1.35,4.5,4.5,0,0,1,3.17,1.06A3.59,3.59,0,0,1,100,23.37l0,0H98.13A2.2,2.2,0,0,0,95.68,21a2.17,2.17,0,0,0-1.85.93,3.73,3.73,0,0,0-.69,2.31v2.17a3.77,3.77,0,0,0,.7,2.33,2.27,2.27,0,0,0,1.89.92A2.38,2.38,0,0,0,97.52,29a2.43,2.43,0,0,0,.61-1.78Z"/><path d="M108,28.07a1.47,1.47,0,0,0-.53-1.16,5,5,0,0,0-1.86-.81,7.83,7.83,0,0,1-2.94-1.32,2.65,2.65,0,0,1-1-2.16,2.77,2.77,0,0,1,1.14-2.27,4.65,4.65,0,0,1,2.93-.89,4.41,4.41,0,0,1,3,1,3,3,0,0,1,1.09,2.43V23H108a1.81,1.81,0,0,0-.6-1.42,2.94,2.94,0,0,0-3.29-.09,1.44,1.44,0,0,0-.56,1.17,1.28,1.28,0,0,0,.61,1.07,6.44,6.44,0,0,0,2,.81,6.61,6.61,0,0,1,2.79,1.36,2.85,2.85,0,0,1,1,2.21,2.65,2.65,0,0,1-1.13,2.26,4.93,4.93,0,0,1-3,.84,5.25,5.25,0,0,1-3.13-.95,2.9,2.9,0,0,1-1.3-2.59l0,0h1.82a1.78,1.78,0,0,0,.72,1.55,3.16,3.16,0,0,0,1.87.51,2.78,2.78,0,0,0,1.64-.42A1.37,1.37,0,0,0,108,28.07Z"/><path d="M115.88,31V19.62h3.78a4.88,4.88,0,0,1,3,.78,2.71,2.71,0,0,1,1.07,2.33,2.28,2.28,0,0,1-.45,1.38A2.66,2.66,0,0,1,122,25a2.55,2.55,0,0,1,1.56,1,3.22,3.22,0,0,1-.5,4.18,4.56,4.56,0,0,1-2.89.83Zm1.9-6.59h2.09a2.22,2.22,0,0,0,1.4-.41,1.68,1.68,0,0,0,0-2.44,2.61,2.61,0,0,0-1.58-.41h-1.88Zm0,1.42v3.65h2.39a2.27,2.27,0,0,0,1.51-.45,1.59,1.59,0,0,0,.53-1.3,2,2,0,0,0-.44-1.4,1.75,1.75,0,0,0-1.39-.5Z"/><path d="M125.54,26.7a4.6,4.6,0,0,1,1-3.1,3.94,3.94,0,0,1,5.68,0,4.52,4.52,0,0,1,1,3.1v.16a4.55,4.55,0,0,1-1,3.11,3.52,3.52,0,0,1-2.83,1.19,3.57,3.57,0,0,1-2.85-1.2,4.59,4.59,0,0,1-1-3.1Zm1.89.16a3.7,3.7,0,0,0,.49,2,1.83,1.83,0,0,0,3,0,3.61,3.61,0,0,0,.5-2v-.17a3.58,3.58,0,0,0-.5-2,1.66,1.66,0,0,0-1.5-.79,1.64,1.64,0,0,0-1.48.79,3.69,3.69,0,0,0-.49,2Z"/><path d="M137.31,20.49v2.06h1.51V24h-1.51v4.67a1,1,0,0,0,.23.75.81.81,0,0,0,.6.22l.3,0,.28-.08.21,1.39a2.33,2.33,0,0,1-.58.21,3.26,3.26,0,0,1-.7.07,2.17,2.17,0,0,1-1.64-.61,2.72,2.72,0,0,1-.59-1.93V24h-1.29v-1.4h1.29V20.49Z"/><path d="M149.25,28.7a.87.87,0,0,0-.38-.72,3.48,3.48,0,0,0-1.4-.51,6,6,0,0,1-2.29-.91A1.91,1.91,0,0,1,144.4,25a2.29,2.29,0,0,1,.9-1.81,3.58,3.58,0,0,1,2.37-.75,3.67,3.67,0,0,1,2.45.76A2.28,2.28,0,0,1,151,25l0,.05h-1.82a1.18,1.18,0,0,0-.4-.9,1.52,1.52,0,0,0-1.09-.38,1.6,1.6,0,0,0-1,.31,1,1,0,0,0-.36.76.85.85,0,0,0,.34.7,3.66,3.66,0,0,0,1.38.47,5.79,5.79,0,0,1,2.36.92,1.93,1.93,0,0,1,.77,1.63,2.2,2.2,0,0,1-.94,1.85,4,4,0,0,1-2.48.71,3.8,3.8,0,0,1-2.6-.84,2.38,2.38,0,0,1-.91-1.94l0,0H146a1.29,1.29,0,0,0,.54,1.07,2.15,2.15,0,0,0,1.21.33,2,2,0,0,0,1.14-.28A.9.9,0,0,0,149.25,28.7Z"/><path d="M158.08,29.77a2.85,2.85,0,0,1-1,1,3,3,0,0,1-3.53-.5,4,4,0,0,1-.76-2.7V22.55h1.89v5.07a2.5,2.5,0,0,0,.36,1.55,1.3,1.3,0,0,0,1.08.45,2.4,2.4,0,0,0,1.16-.25,1.78,1.78,0,0,0,.73-.71V22.55h1.89V31h-1.65Z"/><path d="M169.3,27.05a4.85,4.85,0,0,1-.86,3A2.9,2.9,0,0,1,166,31.16a2.75,2.75,0,0,1-1.37-.32,2.69,2.69,0,0,1-1-.93L163.47,31h-1.59V18.81h1.9v4.7a2.71,2.71,0,0,1,.93-.83,2.75,2.75,0,0,1,1.28-.29,2.82,2.82,0,0,1,2.45,1.23,5.67,5.67,0,0,1,.86,3.27Zm-1.9-.16a4.37,4.37,0,0,0-.45-2.13,1.53,1.53,0,0,0-1.44-.81,1.88,1.88,0,0,0-1.06.28,1.84,1.84,0,0,0-.67.78v3.54a1.8,1.8,0,0,0,.67.79,2,2,0,0,0,1.08.28,1.59,1.59,0,0,0,1.43-.69,3.53,3.53,0,0,0,.44-1.88Z"/><path d="M172.68,22.55l.1,1.1a2.81,2.81,0,0,1,1-.93,3,3,0,0,1,1.44-.33,2.59,2.59,0,0,1,1.42.38,2.19,2.19,0,0,1,.89,1.12,2.9,2.9,0,0,1,1-1.1,2.71,2.71,0,0,1,1.5-.4,2.52,2.52,0,0,1,2,.87,4,4,0,0,1,.74,2.65V31H181V25.9a2.43,2.43,0,0,0-.37-1.52,1.39,1.39,0,0,0-1.12-.43,1.62,1.62,0,0,0-1,.32,1.9,1.9,0,0,0-.61.89,1.27,1.27,0,0,0,0,.2c0,.06,0,.11,0,.16V31H176V25.9a2.39,2.39,0,0,0-.38-1.5,1.36,1.36,0,0,0-1.11-.45,2,2,0,0,0-1,.22,1.68,1.68,0,0,0-.64.63V31h-1.9V22.55Z"/><path d="M186.88,20.48H185V18.81h1.9Zm0,10.52H185V22.55h1.9Z"/><path d="M193.75,28.7a.86.86,0,0,0-.37-.72,3.54,3.54,0,0,0-1.4-.51,6,6,0,0,1-2.29-.91,1.91,1.91,0,0,1-.78-1.61,2.29,2.29,0,0,1,.9-1.81,3.58,3.58,0,0,1,2.37-.75,3.67,3.67,0,0,1,2.45.76A2.24,2.24,0,0,1,195.5,25v.05h-1.82a1.18,1.18,0,0,0-.4-.9,1.54,1.54,0,0,0-1.09-.38,1.6,1.6,0,0,0-1.05.31,1,1,0,0,0-.36.76.83.83,0,0,0,.34.7,3.66,3.66,0,0,0,1.38.47,5.79,5.79,0,0,1,2.36.92,2,2,0,0,1,.77,1.63,2.2,2.2,0,0,1-.94,1.85,4,4,0,0,1-2.48.71,3.78,3.78,0,0,1-2.6-.84,2.38,2.38,0,0,1-.91-1.94l0,0h1.76a1.28,1.28,0,0,0,.53,1.07,2.18,2.18,0,0,0,1.22.33,2,2,0,0,0,1.14-.28A.89.89,0,0,0,193.75,28.7Z"/><path d="M202.07,28.7a.86.86,0,0,0-.37-.72,3.54,3.54,0,0,0-1.4-.51,6,6,0,0,1-2.29-.91,1.91,1.91,0,0,1-.78-1.61,2.29,2.29,0,0,1,.9-1.81,3.58,3.58,0,0,1,2.37-.75,3.67,3.67,0,0,1,2.45.76,2.24,2.24,0,0,1,.87,1.89v.05H202a1.18,1.18,0,0,0-.4-.9,1.54,1.54,0,0,0-1.09-.38,1.6,1.6,0,0,0-1.05.31,1,1,0,0,0-.36.76.83.83,0,0,0,.34.7,3.66,3.66,0,0,0,1.38.47,5.79,5.79,0,0,1,2.36.92,2,2,0,0,1,.77,1.63,2.2,2.2,0,0,1-.94,1.85,4,4,0,0,1-2.48.71,3.78,3.78,0,0,1-2.6-.84,2.38,2.38,0,0,1-.91-1.94l0,0h1.76a1.28,1.28,0,0,0,.53,1.07,2.18,2.18,0,0,0,1.22.33,2,2,0,0,0,1.14-.28A.89.89,0,0,0,202.07,28.7Z"/><path d="M207.67,20.48h-1.9V18.81h1.9Zm0,10.52h-1.9V22.55h1.9Z"/><path d="M209.44,26.7a4.66,4.66,0,0,1,1-3.1,3.95,3.95,0,0,1,5.69,0,4.57,4.57,0,0,1,1,3.1v.16a4.6,4.6,0,0,1-1,3.11,3.54,3.54,0,0,1-2.84,1.19,3.59,3.59,0,0,1-2.85-1.2,4.64,4.64,0,0,1-1-3.1Zm1.9.16a3.79,3.79,0,0,0,.48,2,1.84,1.84,0,0,0,3,0,3.7,3.7,0,0,0,.5-2v-.17a3.67,3.67,0,0,0-.5-2,1.81,1.81,0,0,0-3,0,3.78,3.78,0,0,0-.48,2Z"/><path d="M220.57,22.55l.11,1.22a3.1,3.1,0,0,1,1-1,2.79,2.79,0,0,1,1.41-.36,2.67,2.67,0,0,1,2.06.8,3.58,3.58,0,0,1,.74,2.5V31H224V25.7a1.91,1.91,0,0,0-.39-1.35,1.6,1.6,0,0,0-1.2-.4,2,2,0,0,0-1,.24,2.13,2.13,0,0,0-.72.68V31h-1.9V22.55Z"/></g></g></g></g></g></svg>