<?xml version="1.0" encoding="utf-8"?>
<!-- Generator: Adobe Illustrator 24.1.0, SVG Export Plug-In . SVG Version: 6.00 Build 0)  -->
<svg version="1.1" id="Layer_1" xmlns="http://www.w3.org/2000/svg" xmlns:xlink="http://www.w3.org/1999/xlink" x="0px" y="0px"
	 width="300px" height="125px" viewBox="0 0 300 125" style="enable-background:new 0 0 300 125;" xml:space="preserve">
<style type="text/css">
	.st0{fill-rule:evenodd;clip-rule:evenodd;fill:#FFFFFF;fill-opacity:0;}
	.st1{enable-background:new    ;}
	.st2{fill:#CCCCCC;}
	.st3{fill-rule:evenodd;clip-rule:evenodd;fill:#F6E3E3;}
	.st4{fill:none;stroke:#343A3A;stroke-width:3.4783;stroke-linecap:round;stroke-linejoin:round;}
</style>
<desc>Created with Sketch.</desc>
<g id="_x34_04-Icon">
	<g id="Group">
		<rect id="Rectangle" x="-56.5" y="-21.5" class="st0" width="400" height="180"/>
		<g class="st1">
			<path class="st2" d="M65.1,82.1l9.5-2.6l2.7,10.1l-9.5,2.6l4.5,16.8l-12.6,3.4l-4.5-16.8l-32.4,8.7l-2.4-7.6L39,37l13-3.5
				L65.1,82.1z M32.3,90.9l20.3-5.4l-8.2-30.7h-0.3l-0.4,2.5L32.3,90.9z"/>
		</g>
		<g class="st1">
			<path class="st2" d="M228.3,78.4l-8.3,8.3l-8.8-8.8l8.3-8.3L205,55.1l10.9-10.9l14.5,14.5l28.1-28.1l6.9,6.4l16.2,72.1
				l-11.2,11.2L228.3,78.4z M256.7,50l-17.5,17.5L265.7,94l0.4-0.2l-1-2.8L256.7,50z"/>
		</g>
		<g id="Group-17" transform="translate(160.000000, 34.000000)">
			<polygon id="Fill-1" class="st3" points="24.1,-2 24.1,58.4 15.4,65 6.3,58.1 -2.7,65 -11.8,58.1 -20.9,65 -30,58.1 -39.1,65 
				-48.1,58.1 -48.1,-21.5 6.6,-21.5 			"/>
			<polygon id="Stroke-3" class="st4" points="24.1,-2 24.1,71.4 14.4,78.1 4.3,71.1 -5.8,78.1 -16,71.1 -26.1,78.1 -36.2,71.1 
				-46.4,78.1 -56.5,71.1 -56.5,-21.5 4.6,-21.5 			"/>
			<path id="Stroke-6" class="st4" d="M-35.5,9.7l10,10"/>
			<path id="Stroke-7" class="st4" d="M-25.5,9.7l-10,10"/>
			<path id="Stroke-8" class="st4" d="M-6.9,9.7l10,10"/>
			<path id="Stroke-9" class="st4" d="M3.2,9.7l-10,10"/>
			<path id="Stroke-10" class="st4" d="M-8.3,36.7V45c0,4.2,3.4,7.6,7.6,7.6s7.6-3.4,7.6-7.6v-8.3h-46"/>
			<path id="Stroke-12" class="st4" d="M-0.5,36.7v8.1"/>
			<polyline id="Stroke-14" class="st4" points="24.1,-2 4.6,-2 4.6,-21.5 			"/>
		</g>
	</g>
</g>
</svg>
