<?xml version="1.0" encoding="UTF-8"?>
<svg width="20px" height="20px" viewBox="0 0 20 20" version="1.1" xmlns="http://www.w3.org/2000/svg" xmlns:xlink="http://www.w3.org/1999/xlink">
    <!-- Generator: Sketch 57.1 (83088) - https://sketch.com -->
    <title>qr-code-icon</title>
    <desc>Created with Sketch.</desc>
    <g id="Page-2" stroke="none" stroke-width="1" fill="none" fill-rule="evenodd">
        <g id="RCS-BOT-Directory---App-Description" transform="translate(-1105.000000, -635.000000)" fill="#000000">
            <g id="Group-34" transform="translate(959.000000, 420.000000)">
                <g id="Group-24" transform="translate(136.000000, 210.000000)">
                    <path d="M28.3333333,23.3333333 L28.3333333,20 L30,20 L30,23.3333333 C30,24.2533333 29.2533333,25 28.3333333,25 L25,25 L25,23.3333333 L28.3333333,23.3333333 Z M11.6666667,20 L11.6666667,23.3333333 L15,23.3333333 L15,25 L11.6666667,25 C10.7466667,25 10,24.2533333 10,23.3333333 L10,20 L11.6666667,20 L11.6666667,20 Z M28.3333333,5 C29.2533333,5 30,5.74666667 30,6.66666667 L30,10 L28.3333333,10 L28.3333333,6.66666667 L25,6.66666667 L25,5 L28.3333333,5 L28.3333333,5 Z M11.6666667,6.66666667 L11.6666667,10 L10,10 L10,6.66666667 C10,5.74666667 10.7466667,5 11.6666667,5 L15,5 L15,6.66666667 L11.6666667,6.66666667 L11.6666667,6.66666667 Z M19.1666667,13.3333333 L20.8333333,13.3333333 L20.8333333,10 L19.1666667,10 L19.1666667,13.3333333 Z M17.5,14.1666667 L20.8333333,14.1666667 L20.8333333,17.5 L19.1666667,17.5 L19.1666667,15.8333333 L17.5,15.8333333 L17.5,14.1666667 L17.5,14.1666667 Z M13.3333333,15.8333333 L15,15.8333333 L15,14.1666667 L13.3333333,14.1666667 L13.3333333,15.8333333 Z M15,20 L16.6666667,20 L16.6666667,18.3333333 L15,18.3333333 L15,20 Z M23.3333333,11.6666667 L25,11.6666667 L25,10 L23.3333333,10 L23.3333333,11.6666667 Z M15,11.6666667 L16.6666667,11.6666667 L16.6666667,10 L15,10 L15,11.6666667 Z M13.3333333,21.6666667 L18.3333333,21.6666667 L18.3333333,16.6666667 L13.3333333,16.6666667 L13.3333333,21.6666667 Z M23.3333333,20 L25,20 L25,17.5 L23.3333333,17.5 L23.3333333,20 Z M21.6666667,17.5 L23.3333333,17.5 L23.3333333,15.8333333 L21.6666667,15.8333333 L21.6666667,14.1666667 L23.3333333,14.1666667 L23.3333333,15.8333333 L25,15.8333333 L25,14.1666667 L26.6666667,14.1666667 L26.6666667,15.8333333 L25,15.8333333 L25,17.5 L26.6666667,17.5 L26.6666667,20 L25,20 L25,21.6666667 L23.3333333,21.6666667 L23.3333333,20 L20.8333333,20 L20.8333333,21.6666667 L19.1666667,21.6666667 L19.1666667,18.3333333 L21.6666667,18.3333333 L21.6666667,17.5 L21.6666667,17.5 Z M21.6666667,13.3333333 L26.6666667,13.3333333 L26.6666667,8.33333333 L21.6666667,8.33333333 L21.6666667,13.3333333 Z M13.3333333,13.3333333 L18.3333333,13.3333333 L18.3333333,8.33333333 L13.3333333,8.33333333 L13.3333333,13.3333333 Z" id="qr-code-icon"></path>
                </g>
            </g>
        </g>
    </g>
</svg>