<?xml version="1.0" standalone="no"?>
<!DOCTYPE svg PUBLIC "-//W3C//DTD SVG 20010904//EN"
 "http://www.w3.org/TR/2001/REC-SVG-20010904/DTD/svg10.dtd">
<svg version="1.0" xmlns="http://www.w3.org/2000/svg"
 width="700.000000pt" height="700.000000pt" viewBox="0 0 700.000000 700.000000"
 preserveAspectRatio="xMidYMid meet">
<metadata>
Created by potrace 1.11, written by Peter Selinger 2001-2013
</metadata>
<g transform="translate(0.000000,700.000000) scale(0.100000,-0.100000)"
fill="#000000" stroke="none">
<path d="M848 6980 c-219 -46 -375 -128 -531 -279 -136 -132 -232 -296 -285
-489 l-27 -97 0 -2615 0 -2615 27 -96 c97 -351 346 -620 678 -732 41 -14 89
-28 105 -31 17 -4 41 -10 55 -14 14 -3 1182 -8 2596 -9 2812 -3 2648 -7 2823
54 163 55 275 126 400 253 47 47 91 92 96 100 97 136 145 239 192 410 17 61
18 216 19 2650 2 2810 5 2652 -52 2820 -108 313 -363 563 -674 661 -157 50
-51 48 -2780 48 -2439 0 -2559 -1 -2642 -19z"/>
</g>
</svg>
